{
copyright = "Copyright (c) 2015, Cadson Demak (info@cadsondemak.com)";
customParameters = (
{
name = vendorID;
value = CDK;
},
{
name = description;
value = "Copyright (c) 2015, Cadson Demak (info@cadsondemak.com)";
},
{
name = license;

glyphs = (
{
glyphname = A;
lastChange = "2015-10-24 18:33:41 +0000";
layers = (
{
layerId = "139F617A-DF90-4219-9825-66026F124FCC";
name = Light;
paths = (
{
closed = 1;
nodes = (
"468 242 LINE",
"217 242 LINE",
"342 573 LINE"
);
},
{
closed = 1;
nodes = (
"483 177 LINE",
"551 0 LINE",
"635 0 LINE",
"391 644 LINE",
"295 644 LINE",
"50 0 LINE",
"135 0 LINE",
"203 177 LINE"
);
}
);
width = 685;
}
);
leftKerningGroup = A;
note = A;
rightKerningGroup = A;
unicode = 0041;
},
{
glyphname = Aacute;
lastChange = "2015-10-24 18:33:41 +0000";
layers = (
{
layerId = "139F617A-DF90-4219-9825-66026F124FCC";
name = Light;
paths = (
{
closed = 1;
nodes = (
"468 242 LINE",
"217 242 LINE",
"342 573 LINE"
);
},
{
closed = 1;
nodes = (
"483 177 LINE",
"551 0 LINE",
"635 0 LINE",
"391 644 LINE",
"295 644 LINE",
"50 0 LINE",
"135 0 LINE",
"203 177 LINE"
);
},
{
closed = 1;
nodes = (
"358 688 LINE",
"437 856 LINE",
"363 856 LINE",
"292 688 LINE"
);
}
);
width = 685;
}
);
leftKerningGroup = A;
note = Aacute;
rightKerningGroup = A;
unicode = 00C1;
},
{
glyphname = Abreve;
lastChange = "2015-10-24 18:33:41 +0000";
layers = (
{
layerId = "139F617A-DF90-4219-9825-66026F124FCC";
name = Light;
paths = (
{
closed = 1;
nodes = (
"468 242 LINE",
"217 242 LINE",
"342 573 LINE"
);
},
{
closed = 1;
nodes = (
"483 177 LINE",
"551 0 LINE",
"635 0 LINE",
"391 644 LINE",
"295 644 LINE",
"50 0 LINE",
"135 0 LINE",
"203 177 LINE"
);
},
{
closed = 1;
nodes = (
"215 814 LINE",
"215 739 OFFCURVE",
"258 688 OFFCURVE",
"341 688 CURVE SMOOTH",
"425 688 OFFCURVE",
"469 739 OFFCURVE",
"469 814 CURVE",
"411 814 LINE",
"411 763 OFFCURVE",
"385 740 OFFCURVE",
"341 740 CURVE SMOOTH",
"299 740 OFFCURVE",
"273 763 OFFCURVE",
"273 814 CURVE"
);
}
);
width = 685;
}
);
leftKerningGroup = A;
note = Abreve;
rightKerningGroup = A;
unicode = 0102;
},
{
glyphname = Abreveacute;
lastChange = "2015-10-24 18:33:42 +0000";
layers = (
{
layerId = "139F617A-DF90-4219-9825-66026F124FCC";
name = Light;
paths = (
{
closed = 1;
nodes = (
"468 242 LINE",
"217 242 LINE",
"342 573 LINE"
);
},
{
closed = 1;
nodes = (
"483 177 LINE",
"551 0 LINE",
"635 0 LINE",
"391 644 LINE",
"295 644 LINE",
"50 0 LINE",
"135 0 LINE",
"203 177 LINE"
);
},
{
closed = 1;
nodes = (
"285 736 OFFCURVE",
"247 766 OFFCURVE",
"247 828 CURVE",
"195 828 LINE",
"195 726 OFFCURVE",
"262 688 OFFCURVE",
"342 688 CURVE SMOOTH",
"422 688 OFFCURVE",
"489 726 OFFCURVE",
"489 828 CURVE",
"437 828 LINE",
"437 766 OFFCURVE",
"399 736 OFFCURVE",
"342 736 CURVE SMOOTH"
);
},
{
closed = 1;
nodes = (
"362 792 LINE",
"430 917 LINE",
"365 917 LINE",
"303 792 LINE"
);
}
);
width = 685;
}
);
leftKerningGroup = A;
note = Abreveacute;
rightKerningGroup = A;
unicode = 1EAE;
},
{
glyphname = Abrevedotbelow;
lastChange = "2015-10-24 18:33:41 +0000";
layers = (
{
layerId = "139F617A-DF90-4219-9825-66026F124FCC";
name = Light;
paths = (
{
closed = 1;
nodes = (
"468 242 LINE",
"217 242 LINE",
"342 573 LINE"
);
},
{
closed = 1;
nodes = (
"483 177 LINE",
"551 0 LINE",
"635 0 LINE",
"391 644 LINE",
"295 644 LINE",
"50 0 LINE",
"135 0 LINE",
"203 177 LINE"
);
},
{
closed = 1;
nodes = (
"215 814 LINE",
"215 739 OFFCURVE",
"258 688 OFFCURVE",
"341 688 CURVE SMOOTH",
"425 688 OFFCURVE",
"469 739 OFFCURVE",
"469 814 CURVE",
"411 814 LINE",
"411 763 OFFCURVE",
"385 740 OFFCURVE",
"341 740 CURVE SMOOTH",
"299 740 OFFCURVE",
"273 763 OFFCURVE",
"273 814 CURVE"
);
},
{
closed = 1;
nodes = (
"382 -164 LINE",
"382 -87 LINE",
"302 -87 LINE",
"302 -164 LINE"
);
}
);
width = 685;
}
);
leftKerningGroup = A;
note = Abrevedotbelow;
rightKerningGroup = A;
unicode = 1EB6;
},
{
glyphname = Abrevegrave;
lastChange = "2015-10-24 18:33:41 +0000";
layers = (
{
layerId = "139F617A-DF90-4219-9825-66026F124FCC";
name = Light;
paths = (
{
closed = 1;
nodes = (
"468 242 LINE",
"217 242 LINE",
"342 573 LINE"
);
},
{
closed = 1;
nodes = (
"483 177 LINE",
"551 0 LINE",
"635 0 LINE",
"391 644 LINE",
"295 644 LINE",
"50 0 LINE",
"135 0 LINE",
"203 177 LINE"
);
},
{
closed = 1;
nodes = (
"285 736 OFFCURVE",
"247 766 OFFCURVE",
"247 828 CURVE",
"195 828 LINE",
"195 726 OFFCURVE",
"262 688 OFFCURVE",
"342 688 CURVE SMOOTH",
"422 688 OFFCURVE",
"489 726 OFFCURVE",
"489 828 CURVE",
"437 828 LINE",
"437 766 OFFCURVE",
"399 736 OFFCURVE",
"342 736 CURVE SMOOTH"
);
},
{
closed = 1;
nodes = (
"381 792 LINE",
"319 917 LINE",
"254 917 LINE",
"322 792 LINE"
);
}
);
width = 685;
}
);
leftKerningGroup = A;
note = Abrevegrave;
rightKerningGroup = A;
unicode = 1EB0;
},
{
glyphname = Abrevehookabove;
lastChange = "2015-10-24 18:33:41 +0000";
layers = (
{
layerId = "139F617A-DF90-4219-9825-66026F124FCC";
name = Light;
paths = (
{
closed = 1;
nodes = (
"468 242 LINE",
"217 242 LINE",
"342 573 LINE"
);
},
{
closed = 1;
nodes = (
"483 177 LINE",
"551 0 LINE",
"635 0 LINE",
"391 644 LINE",
"295 644 LINE",
"50 0 LINE",
"135 0 LINE",
"203 177 LINE"
);
},
{
closed = 1;
nodes = (
"285 736 OFFCURVE",
"247 766 OFFCURVE",
"247 828 CURVE",
"195 828 LINE",
"195 726 OFFCURVE",
"262 688 OFFCURVE",
"342 688 CURVE SMOOTH",
"422 688 OFFCURVE",
"489 726 OFFCURVE",
"489 828 CURVE",
"437 828 LINE",
"437 766 OFFCURVE",
"399 736 OFFCURVE",
"342 736 CURVE SMOOTH"
);
},
{
closed = 1;
nodes = (
"443 947 OFFCURVE",
"409 975 OFFCURVE",
"350 975 CURVE SMOOTH",
"322 975 OFFCURVE",
"295 970 OFFCURVE",
"276 963 CURVE",
"276 922 LINE",
"293 930 OFFCURVE",
"311 935 OFFCURVE",
"333 935 CURVE SMOOTH",
"369 935 OFFCURVE",
"386 923 OFFCURVE",
"386 896 CURVE SMOOTH",
"386 869 OFFCURVE",
"371 854 OFFCURVE",
"304 851 CURVE",
"304 793 LINE",
"364 793 LINE",
"364 827 LINE",
"421 836 OFFCURVE",
"443 858 OFFCURVE",
"443 901 CURVE SMOOTH"
);
}
);
width = 685;
}
);
leftKerningGroup = A;
note = Abrevehookabove;
rightKerningGroup = A;
unicode = 1EB2;
},
{
glyphname = Abrevetilde;
lastChange = "2015-10-24 18:33:42 +0000";
layers = (
{
layerId = "139F617A-DF90-4219-9825-66026F124FCC";
name = Light;
paths = (
{
closed = 1;
nodes = (
"468 242 LINE",
"217 242 LINE",
"342 573 LINE"
);
},
{
closed = 1;
nodes = (
"483 177 LINE",
"551 0 LINE",
"635 0 LINE",
"391 644 LINE",
"295 644 LINE",
"50 0 LINE",
"135 0 LINE",
"203 177 LINE"
);
},
{
closed = 1;
nodes = (
"285 736 OFFCURVE",
"247 766 OFFCURVE",
"247 828 CURVE",
"195 828 LINE",
"195 726 OFFCURVE",
"262 688 OFFCURVE",
"342 688 CURVE SMOOTH",
"422 688 OFFCURVE",
"489 726 OFFCURVE",
"489 828 CURVE",
"437 828 LINE",
"437 766 OFFCURVE",
"399 736 OFFCURVE",
"342 736 CURVE SMOOTH"
);
},
{
closed = 1;
nodes = (
"443 849 OFFCURVE",
"471 860 OFFCURVE",
"483 876 CURVE",
"483 933 LINE",
"466 910 OFFCURVE",
"443 900 OFFCURVE",
"412 900 CURVE SMOOTH",
"367 900 OFFCURVE",
"330 935 OFFCURVE",
"279 935 CURVE SMOOTH",
"251 935 OFFCURVE",
"218 924 OFFCURVE",
"203 908 CURVE",
"203 852 LINE",
"223 876 OFFCURVE",
"250 884 OFFCURVE",
"279 884 CURVE SMOOTH",
"319 884 OFFCURVE",
"364 849 OFFCURVE",
"412 849 CURVE SMOOTH"
);
}
);
width = 685;
}
);
leftKerningGroup = A;
note = Abrevetilde;
rightKerningGroup = A;
unicode = 1EB4;
},
{
glyphname = Acaron;
lastChange = "2015-10-24 18:33:41 +0000";
layers = (
{
layerId = "139F617A-DF90-4219-9825-66026F124FCC";
name = Light;
paths = (
{
closed = 1;
nodes = (
"468 242 LINE",
"217 242 LINE",
"342 573 LINE"
);
},
{
closed = 1;
nodes = (
"483 177 LINE",
"551 0 LINE",
"635 0 LINE",
"391 644 LINE",
"295 644 LINE",
"50 0 LINE",
"135 0 LINE",
"203 177 LINE"
);
},
{
closed = 1;
nodes = (
"490 836 LINE",
"419 836 LINE",
"342 734 LINE",
"265 836 LINE",
"194 836 LINE",
"309 688 LINE",
"375 688 LINE"
);
}
);
width = 685;
}
);
leftKerningGroup = A;
note = Acaron;
rightKerningGroup = A;
unicode = 01CD;
},
{
glyphname = Acircumflex;
lastChange = "2015-10-24 18:33:41 +0000";
layers = (
{
layerId = "139F617A-DF90-4219-9825-66026F124FCC";
name = Light;
paths = (
{
closed = 1;
nodes = (
"468 242 LINE",
"217 242 LINE",
"342 573 LINE"
);
},
{
closed = 1;
nodes = (
"483 177 LINE",
"551 0 LINE",
"635 0 LINE",
"391 644 LINE",
"295 644 LINE",
"50 0 LINE",
"135 0 LINE",
"203 177 LINE"
);
},
{
closed = 1;
nodes = (
"375 836 LINE",
"309 836 LINE",
"194 688 LINE",
"265 688 LINE",
"342 790 LINE",
"419 688 LINE",
"490 688 LINE"
);
}
);
width = 685;
}
);
leftKerningGroup = A;
note = Acircumflex;
rightKerningGroup = A;
unicode = 00C2;
},
{
glyphname = Acircumflexacute;
lastChange = "2015-10-24 18:33:41 +0000";
layers = (
{
layerId = "139F617A-DF90-4219-9825-66026F124FCC";
name = Light;
paths = (
{
closed = 1;
nodes = (
"468 242 LINE",
"217 242 LINE",
"342 573 LINE"
);
},
{
closed = 1;
nodes = (
"483 177 LINE",
"551 0 LINE",
"635 0 LINE",
"391 644 LINE",
"295 644 LINE",
"50 0 LINE",
"135 0 LINE",
"203 177 LINE"
);
},
{
closed = 1;
nodes = (
"370 806 LINE",
"304 806 LINE",
"193 688 LINE",
"263 688 LINE",
"337 771 LINE",
"412 688 LINE",
"481 688 LINE"
);
},
{
closed = 1;
nodes = (
"476 797 LINE",
"544 922 LINE",
"479 922 LINE",
"417 797 LINE"
);
}
);
width = 685;
}
);
leftKerningGroup = A;
note = Acircumflexacute;
rightKerningGroup = A;
unicode = 1EA4;
},
{
glyphname = Acircumflexdotbelow;
lastChange = "2015-10-24 18:33:41 +0000";
layers = (
{
layerId = "139F617A-DF90-4219-9825-66026F124FCC";
name = Light;
paths = (
{
closed = 1;
nodes = (
"468 242 LINE",
"217 242 LINE",
"342 573 LINE"
);
},
{
closed = 1;
nodes = (
"483 177 LINE",
"551 0 LINE",
"635 0 LINE",
"391 644 LINE",
"295 644 LINE",
"50 0 LINE",
"135 0 LINE",
"203 177 LINE"
);
},
{
closed = 1;
nodes = (
"375 836 LINE",
"309 836 LINE",
"194 688 LINE",
"265 688 LINE",
"342 790 LINE",
"419 688 LINE",
"490 688 LINE"
);
},
{
closed = 1;
nodes = (
"382 -164 LINE",
"382 -87 LINE",
"302 -87 LINE",
"302 -164 LINE"
);
}
);
width = 685;
}
);
leftKerningGroup = A;
note = Acircumflexdotbelow;
rightKerningGroup = A;
unicode = 1EAC;
},
{
glyphname = Acircumflexgrave;
lastChange = "2015-10-24 18:33:42 +0000";
layers = (
{
layerId = "139F617A-DF90-4219-9825-66026F124FCC";
name = Light;
paths = (
{
closed = 1;
nodes = (
"468 242 LINE",
"217 242 LINE",
"342 573 LINE"
);
},
{
closed = 1;
nodes = (
"483 177 LINE",
"551 0 LINE",
"635 0 LINE",
"391 644 LINE",
"295 644 LINE",
"50 0 LINE",
"135 0 LINE",
"203 177 LINE"
);
},
{
closed = 1;
nodes = (
"195 688 LINE",
"264 688 LINE",
"339 771 LINE",
"413 688 LINE",
"483 688 LINE",
"372 806 LINE",
"306 806 LINE"
);
},
{
closed = 1;
nodes = (
"259 797 LINE",
"197 922 LINE",
"132 922 LINE",
"200 797 LINE"
);
}
);
width = 685;
}
);
leftKerningGroup = A;
note = Acircumflexgrave;
rightKerningGroup = A;
unicode = 1EA6;
},
{
glyphname = Acircumflexhookabove;
lastChange = "2015-10-24 18:33:41 +0000";
layers = (
{
layerId = "139F617A-DF90-4219-9825-66026F124FCC";
name = Light;
paths = (
{
closed = 1;
nodes = (
"468 242 LINE",
"217 242 LINE",
"342 573 LINE"
);
},
{
closed = 1;
nodes = (
"483 177 LINE",
"551 0 LINE",
"635 0 LINE",
"391 644 LINE",
"295 644 LINE",
"50 0 LINE",
"135 0 LINE",
"203 177 LINE"
);
},
{
closed = 1;
nodes = (
"197 688 LINE",
"267 688 LINE",
"341 771 LINE",
"416 688 LINE",
"485 688 LINE",
"374 806 LINE",
"308 806 LINE"
);
},
{
closed = 1;
nodes = (
"569 932 OFFCURVE",
"533 960 OFFCURVE",
"473 960 CURVE SMOOTH",
"443 960 OFFCURVE",
"420 955 OFFCURVE",
"402 948 CURVE",
"402 905 LINE",
"418 912 OFFCURVE",
"436 917 OFFCURVE",
"459 917 CURVE SMOOTH",
"493 917 OFFCURVE",
"509 906 OFFCURVE",
"509 881 CURVE SMOOTH",
"509 855 OFFCURVE",
"496 842 OFFCURVE",
"429 839 CURVE",
"429 776 LINE",
"490 776 LINE",
"490 811 LINE",
"545 818 OFFCURVE",
"569 842 OFFCURVE",
"569 885 CURVE SMOOTH"
);
}
);
width = 685;
}
);
leftKerningGroup = A;
note = Acircumflexhookabove;
rightKerningGroup = A;
unicode = 1EA8;
},
{
glyphname = Acircumflextilde;
lastChange = "2015-10-24 18:33:41 +0000";
layers = (
{
layerId = "139F617A-DF90-4219-9825-66026F124FCC";
name = Light;
paths = (
{
closed = 1;
nodes = (
"468 242 LINE",
"217 242 LINE",
"342 573 LINE"
);
},
{
closed = 1;
nodes = (
"483 177 LINE",
"551 0 LINE",
"635 0 LINE",
"391 644 LINE",
"295 644 LINE",
"50 0 LINE",
"135 0 LINE",
"203 177 LINE"
);
},
{
closed = 1;
nodes = (
"198 688 LINE",
"268 688 LINE",
"342 771 LINE",
"417 688 LINE",
"486 688 LINE",
"375 806 LINE",
"309 806 LINE"
);
},
{
closed = 1;
nodes = (
"444 808 OFFCURVE",
"472 819 OFFCURVE",
"484 835 CURVE",
"484 892 LINE",
"467 869 OFFCURVE",
"444 859 OFFCURVE",
"413 859 CURVE SMOOTH",
"368 859 OFFCURVE",
"331 894 OFFCURVE",
"280 894 CURVE SMOOTH",
"252 894 OFFCURVE",
"219 883 OFFCURVE",
"204 867 CURVE",
"204 811 LINE",
"224 835 OFFCURVE",
"251 843 OFFCURVE",
"280 843 CURVE SMOOTH",
"320 843 OFFCURVE",
"365 808 OFFCURVE",
"413 808 CURVE SMOOTH"
);
}
);
width = 685;
}
);
leftKerningGroup = A;
note = Acircumflextilde;
rightKerningGroup = A;
unicode = 1EAA;
},
{
glyphname = Adieresis;
lastChange = "2015-10-24 18:33:41 +0000";
layers = (
{
layerId = "139F617A-DF90-4219-9825-66026F124FCC";
name = Light;
paths = (
{
closed = 1;
nodes = (
"468 242 LINE",
"217 242 LINE",
"342 573 LINE"
);
},
{
closed = 1;
nodes = (
"483 177 LINE",
"551 0 LINE",
"635 0 LINE",
"391 644 LINE",
"295 644 LINE",
"50 0 LINE",
"135 0 LINE",
"203 177 LINE"
);
},
{
closed = 1;
nodes = (
"293 710 LINE",
"293 785 LINE",
"215 785 LINE",
"215 710 LINE"
);
},
{
closed = 1;
nodes = (
"469 710 LINE",
"469 785 LINE",
"391 785 LINE",
"391 710 LINE"
);
}
);
width = 685;
}
);
leftKerningGroup = A;
note = Adieresis;
rightKerningGroup = A;
unicode = 00C4;
},
{
glyphname = Adotbelow;
lastChange = "2015-10-24 18:33:41 +0000";
layers = (
{
layerId = "139F617A-DF90-4219-9825-66026F124FCC";
name = Light;
paths = (
{
closed = 1;
nodes = (
"468 242 LINE",
"217 242 LINE",
"342 573 LINE"
);
},
{
closed = 1;
nodes = (
"483 177 LINE",
"551 0 LINE",
"635 0 LINE",
"391 644 LINE",
"295 644 LINE",
"50 0 LINE",
"135 0 LINE",
"203 177 LINE"
);
},
{
closed = 1;
nodes = (
"382 -164 LINE",
"382 -87 LINE",
"302 -87 LINE",
"302 -164 LINE"
);
}
);
width = 685;
}
);
leftKerningGroup = A;
note = Adotbelow;
rightKerningGroup = A;
unicode = 1EA0;
},
{
glyphname = Agrave;
lastChange = "2015-10-24 18:33:41 +0000";
layers = (
{
layerId = "139F617A-DF90-4219-9825-66026F124FCC";
name = Light;
paths = (
{
closed = 1;
nodes = (
"468 242 LINE",
"217 242 LINE",
"342 573 LINE"
);
},
{
closed = 1;
nodes = (
"483 177 LINE",
"551 0 LINE",
"635 0 LINE",
"391 644 LINE",
"295 644 LINE",
"50 0 LINE",
"135 0 LINE",
"203 177 LINE"
);
},
{
closed = 1;
nodes = (
"362 688 LINE",
"291 856 LINE",
"217 856 LINE",
"296 688 LINE"
);
}
);
width = 685;
}
);
leftKerningGroup = A;
note = Agrave;
rightKerningGroup = A;
unicode = 00C0;
},
{
glyphname = Ahookabove;
lastChange = "2015-10-24 18:33:41 +0000";
layers = (
{
layerId = "139F617A-DF90-4219-9825-66026F124FCC";
name = Light;
paths = (
{
closed = 1;
nodes = (
"468 242 LINE",
"217 242 LINE",
"342 573 LINE"
);
},
{
closed = 1;
nodes = (
"483 177 LINE",
"551 0 LINE",
"635 0 LINE",
"391 644 LINE",
"295 644 LINE",
"50 0 LINE",
"135 0 LINE",
"203 177 LINE"
);
},
{
closed = 1;
nodes = (
"463 886 OFFCURVE",
"421 920 OFFCURVE",
"342 920 CURVE SMOOTH",
"313 920 OFFCURVE",
"277 915 OFFCURVE",
"257 907 CURVE",
"257 856 LINE",
"274 863 OFFCURVE",
"302 868 OFFCURVE",
"323 868 CURVE SMOOTH",
"376 868 OFFCURVE",
"401 856 OFFCURVE",
"401 823 CURVE SMOOTH",
"401 788 OFFCURVE",
"386 775 OFFCURVE",
"308 771 CURVE",
"308 688 LINE",
"374 688 LINE",
"374 736 LINE",
"441 745 OFFCURVE",
"463 775 OFFCURVE",
"463 829 CURVE SMOOTH"
);
}
);
width = 685;
}
);
leftKerningGroup = A;
note = Ahookabove;
rightKerningGroup = A;
unicode = 1EA2;
},
{
glyphname = Amacron;
lastChange = "2015-10-24 18:33:41 +0000";
layers = (
{
layerId = "139F617A-DF90-4219-9825-66026F124FCC";
name = Light;
paths = (
{
closed = 1;
nodes = (
"468 242 LINE",
"217 242 LINE",
"342 573 LINE"
);
},
{
closed = 1;
nodes = (
"483 177 LINE",
"551 0 LINE",
"635 0 LINE",
"391 644 LINE",
"295 644 LINE",
"50 0 LINE",
"135 0 LINE",
"203 177 LINE"
);
},
{
closed = 1;
nodes = (
"198 771 LINE",
"198 712 LINE",
"486 712 LINE",
"486 771 LINE"
);
}
);
width = 685;
}
);
leftKerningGroup = A;
note = Amacron;
rightKerningGroup = A;
unicode = 0100;
},
{
glyphname = Aogonek;
lastChange = "2015-10-24 18:35:37 +0000";
layers = (
{
layerId = "139F617A-DF90-4219-9825-66026F124FCC";
name = Light;
paths = (
{
closed = 1;
nodes = (
"468 242 LINE",
"217 242 LINE",
"342 573 LINE"
);
},
{
closed = 1;
nodes = (
"483 177 LINE",
"551 0 LINE",
"635 0 LINE",
"391 644 LINE",
"295 644 LINE",
"50 0 LINE",
"135 0 LINE",
"203 177 LINE"
);
},
{
closed = 1;
nodes = (
"543 -77 OFFCURVE",
"568 -35 OFFCURVE",
"615 0 CURVE",
"551 0 LINE",
"507 -30 OFFCURVE",
"476 -80 OFFCURVE",
"476 -132 CURVE SMOOTH",
"476 -195 OFFCURVE",
"521 -220 OFFCURVE",
"575 -220 CURVE SMOOTH",
"599 -220 OFFCURVE",
"627 -216 OFFCURVE",
"643 -208 CURVE",
"643 -152 LINE",
"631 -159 OFFCURVE",
"610 -163 OFFCURVE",
"593 -163 CURVE SMOOTH",
"560 -163 OFFCURVE",
"543 -154 OFFCURVE",
"543 -120 CURVE SMOOTH"
);
}
);
width = 685;
}
);
leftKerningGroup = A;
note = Aogonek;
rightKerningGroup = A;
unicode = 0104;
},
{
glyphname = Aring;
lastChange = "2015-10-24 18:33:41 +0000";
layers = (
{
layerId = "139F617A-DF90-4219-9825-66026F124FCC";
name = Light;
paths = (
{
closed = 1;
nodes = (
"468 242 LINE",
"217 242 LINE",
"342 573 LINE"
);
},
{
closed = 1;
nodes = (
"483 177 LINE",
"551 0 LINE",
"635 0 LINE",
"391 644 LINE",
"295 644 LINE",
"50 0 LINE",
"135 0 LINE",
"203 177 LINE"
);
},
{
closed = 1;
nodes = (
"232 656 OFFCURVE",
"277 609 OFFCURVE",
"341 609 CURVE SMOOTH",
"407 609 OFFCURVE",
"452 656 OFFCURVE",
"452 716 CURVE SMOOTH",
"452 776 OFFCURVE",
"407 824 OFFCURVE",
"341 824 CURVE SMOOTH",
"277 824 OFFCURVE",
"232 776 OFFCURVE",
"232 716 CURVE SMOOTH"
);
},
{
closed = 1;
nodes = (
"280 750 OFFCURVE",
"306 777 OFFCURVE",
"341 777 CURVE SMOOTH",
"378 777 OFFCURVE",
"403 750 OFFCURVE",
"403 716 CURVE SMOOTH",
"403 682 OFFCURVE",
"378 655 OFFCURVE",
"341 655 CURVE SMOOTH",
"306 655 OFFCURVE",
"280 682 OFFCURVE",
"280 716 CURVE SMOOTH"
);
}
);
width = 685;
}
);
leftKerningGroup = A;
note = Aring;
rightKerningGroup = A;
unicode = 00C5;
},
{
glyphname = Aringacute;
lastChange = "2015-10-24 18:33:42 +0000";
layers = (
{
layerId = "139F617A-DF90-4219-9825-66026F124FCC";
name = Light;
paths = (
{
closed = 1;
nodes = (
"468 242 LINE",
"217 242 LINE",
"342 573 LINE"
);
},
{
closed = 1;
nodes = (
"483 177 LINE",
"551 0 LINE",
"635 0 LINE",
"391 644 LINE",
"295 644 LINE",
"50 0 LINE",
"135 0 LINE",
"203 177 LINE"
);
},
{
closed = 1;
nodes = (
"232 656 OFFCURVE",
"277 609 OFFCURVE",
"341 609 CURVE SMOOTH",
"407 609 OFFCURVE",
"452 656 OFFCURVE",
"452 716 CURVE SMOOTH",
"452 776 OFFCURVE",
"407 824 OFFCURVE",
"341 824 CURVE SMOOTH",
"277 824 OFFCURVE",
"232 776 OFFCURVE",
"232 716 CURVE SMOOTH"
);
},
{
closed = 1;
nodes = (
"280 750 OFFCURVE",
"306 777 OFFCURVE",
"341 777 CURVE SMOOTH",
"378 777 OFFCURVE",
"403 750 OFFCURVE",
"403 716 CURVE SMOOTH",
"403 682 OFFCURVE",
"378 655 OFFCURVE",
"341 655 CURVE SMOOTH",
"306 655 OFFCURVE",
"280 682 OFFCURVE",
"280 716 CURVE SMOOTH"
);
},
{
closed = 1;
nodes = (
"357 852 LINE",
"436 1020 LINE",
"362 1020 LINE",
"291 852 LINE"
);
}
);
width = 685;
}
);
leftKerningGroup = A;
note = Aringacute;
rightKerningGroup = A;
unicode = 01FA;
},
{
glyphname = Atilde;
lastChange = "2015-10-24 18:33:42 +0000";
layers = (
{
layerId = "139F617A-DF90-4219-9825-66026F124FCC";
name = Light;
paths = (
{
closed = 1;
nodes = (
"468 242 LINE",
"217 242 LINE",
"342 573 LINE"
);
},
{
closed = 1;
nodes = (
"483 177 LINE",
"551 0 LINE",
"635 0 LINE",
"391 644 LINE",
"295 644 LINE",
"50 0 LINE",
"135 0 LINE",
"203 177 LINE"
);
},
{
closed = 1;
nodes = (
"451 703 OFFCURVE",
"481 715 OFFCURVE",
"494 733 CURVE",
"494 797 LINE",
"476 772 OFFCURVE",
"451 761 OFFCURVE",
"417 761 CURVE SMOOTH",
"368 761 OFFCURVE",
"328 799 OFFCURVE",
"273 799 CURVE SMOOTH",
"242 799 OFFCURVE",
"206 787 OFFCURVE",
"190 769 CURVE",
"190 706 LINE",
"212 732 OFFCURVE",
"241 741 OFFCURVE",
"273 741 CURVE SMOOTH",
"316 741 OFFCURVE",
"365 703 OFFCURVE",
"417 703 CURVE SMOOTH"
);
}
);
width = 685;
}
);
leftKerningGroup = A;
note = Atilde;
rightKerningGroup = A;
unicode = 00C3;
},
{
glyphname = AE;
lastChange = "2015-10-24 18:33:42 +0000";
layers = (
{
layerId = "139F617A-DF90-4219-9825-66026F124FCC";
name = Light;
paths = (
{
closed = 1;
nodes = (
"790 0 LINE",
"790 64 LINE",
"491 64 LINE",
"491 290 LINE",
"754 290 LINE",
"754 354 LINE",
"491 354 LINE",
"491 579 LINE",
"790 579 LINE",
"790 644 LINE",
"295 644 LINE",
"50 0 LINE",
"138 0 LINE",
"206 178 LINE",
"409 178 LINE",
"409 0 LINE"
);
},
{
closed = 1;
nodes = (
"231 242 LINE",
"358 579 LINE",
"409 579 LINE",
"409 242 LINE"
);
}
);
width = 840;
}
);
leftKerningGroup = A;
note = AE;
rightKerningGroup = E;
unicode = 00C6;
},
{
glyphname = AEacute;
lastChange = "2015-10-24 18:33:41 +0000";
layers = (
{
layerId = "139F617A-DF90-4219-9825-66026F124FCC";
name = Light;
paths = (
{
closed = 1;
nodes = (
"790 0 LINE",
"790 64 LINE",
"491 64 LINE",
"491 290 LINE",
"754 290 LINE",
"754 354 LINE",
"491 354 LINE",
"491 579 LINE",
"790 579 LINE",
"790 644 LINE",
"295 644 LINE",
"50 0 LINE",
"138 0 LINE",
"206 178 LINE",
"409 178 LINE",
"409 0 LINE"
);
},
{
closed = 1;
nodes = (
"231 242 LINE",
"358 579 LINE",
"409 579 LINE",
"409 242 LINE"
);
},
{
closed = 1;
nodes = (
"498 688 LINE",
"577 856 LINE",
"503 856 LINE",
"432 688 LINE"
);
}
);
width = 840;
}
);
leftKerningGroup = A;
note = AEacute;
rightKerningGroup = E;
unicode = 01FC;
},
{
glyphname = B;
lastChange = "2015-10-24 18:33:42 +0000";
layers = (
{
layerId = "139F617A-DF90-4219-9825-66026F124FCC";
name = Light;
paths = (
{
closed = 1;
nodes = (
"577 273 OFFCURVE",
"536 316 OFFCURVE",
"471 332 CURVE",
"521 356 OFFCURVE",
"552 403 OFFCURVE",
"552 474 CURVE SMOOTH",
"552 582 OFFCURVE",
"495 644 OFFCURVE",
"368 644 CURVE SMOOTH",
"70 644 LINE",
"70 0 LINE",
"384 0 LINE SMOOTH",
"511 0 OFFCURVE",
"577 59 OFFCURVE",
"577 184 CURVE SMOOTH"
);
},
{
closed = 1;
nodes = (
"475 405 OFFCURVE",
"444 362 OFFCURVE",
"363 362 CURVE SMOOTH",
"152 362 LINE",
"152 581 LINE",
"348 581 LINE SMOOTH",
"448 581 OFFCURVE",
"475 542 OFFCURVE",
"475 468 CURVE SMOOTH"
);
},
{
closed = 1;
nodes = (
"152 62 LINE",
"152 300 LINE",
"357 300 LINE SMOOTH",
"462 300 OFFCURVE",
"495 261 OFFCURVE",
"495 187 CURVE SMOOTH",
"495 96 OFFCURVE",
"456 62 OFFCURVE",
"370 62 CURVE SMOOTH"
);
}
);
width = 627;
}
);
note = B;
unicode = 0042;
},
{
glyphname = C;
lastChange = "2015-10-24 18:33:41 +0000";
layers = (
{
layerId = "139F617A-DF90-4219-9825-66026F124FCC";
name = Light;
paths = (
{
closed = 1;
nodes = (
"204 60 OFFCURVE",
"132 149 OFFCURVE",
"132 308 CURVE SMOOTH",
"132 480 OFFCURVE",
"191 584 OFFCURVE",
"365 584 CURVE SMOOTH",
"431 584 OFFCURVE",
"492 572 OFFCURVE",
"545 552 CURVE",
"545 624 LINE",
"492 643 OFFCURVE",
"432 654 OFFCURVE",
"358 654 CURVE SMOOTH",
"141 654 OFFCURVE",
"50 518 OFFCURVE",
"50 308 CURVE SMOOTH",
"50 116 OFFCURVE",
"151 -10 OFFCURVE",
"359 -10 CURVE SMOOTH",
"433 -10 OFFCURVE",
"493 0 OFFCURVE",
"545 16 CURVE",
"545 89 LINE",
"492 69 OFFCURVE",
"427 60 OFFCURVE",
"367 60 CURVE SMOOTH"
);
}
);
width = 595;
}
);
leftKerningGroup = C;
note = C;
rightKerningGroup = C;
unicode = 0043;
},
{
glyphname = Cacute;
lastChange = "2015-10-24 18:33:42 +0000";
layers = (
{
layerId = "139F617A-DF90-4219-9825-66026F124FCC";
name = Light;
paths = (
{
closed = 1;
nodes = (
"204 60 OFFCURVE",
"132 149 OFFCURVE",
"132 308 CURVE SMOOTH",
"132 480 OFFCURVE",
"191 584 OFFCURVE",
"365 584 CURVE SMOOTH",
"431 584 OFFCURVE",
"492 572 OFFCURVE",
"545 552 CURVE",
"545 624 LINE",
"492 643 OFFCURVE",
"432 654 OFFCURVE",
"358 654 CURVE SMOOTH",
"141 654 OFFCURVE",
"50 518 OFFCURVE",
"50 308 CURVE SMOOTH",
"50 116 OFFCURVE",
"151 -10 OFFCURVE",
"359 -10 CURVE SMOOTH",
"433 -10 OFFCURVE",
"493 0 OFFCURVE",
"545 16 CURVE",
"545 89 LINE",
"492 69 OFFCURVE",
"427 60 OFFCURVE",
"367 60 CURVE SMOOTH"
);
},
{
closed = 1;
nodes = (
"369 688 LINE",
"448 856 LINE",
"374 856 LINE",
"303 688 LINE"
);
}
);
width = 595;
}
);
leftKerningGroup = C;
note = Cacute;
rightKerningGroup = C;
unicode = 0106;
},
{
glyphname = Ccaron;
lastChange = "2015-10-24 18:33:41 +0000";
layers = (
{
layerId = "139F617A-DF90-4219-9825-66026F124FCC";
name = Light;
paths = (
{
closed = 1;
nodes = (
"204 60 OFFCURVE",
"132 149 OFFCURVE",
"132 308 CURVE SMOOTH",
"132 480 OFFCURVE",
"191 584 OFFCURVE",
"365 584 CURVE SMOOTH",
"431 584 OFFCURVE",
"492 572 OFFCURVE",
"545 552 CURVE",
"545 624 LINE",
"492 643 OFFCURVE",
"432 654 OFFCURVE",
"358 654 CURVE SMOOTH",
"141 654 OFFCURVE",
"50 518 OFFCURVE",
"50 308 CURVE SMOOTH",
"50 116 OFFCURVE",
"151 -10 OFFCURVE",
"359 -10 CURVE SMOOTH",
"433 -10 OFFCURVE",
"493 0 OFFCURVE",
"545 16 CURVE",
"545 89 LINE",
"492 69 OFFCURVE",
"427 60 OFFCURVE",
"367 60 CURVE SMOOTH"
);
},
{
closed = 1;
nodes = (
"505 836 LINE",
"434 836 LINE",
"357 734 LINE",
"280 836 LINE",
"209 836 LINE",
"324 688 LINE",
"390 688 LINE"
);
}
);
width = 595;
}
);
leftKerningGroup = C;
note = Ccaron;
rightKerningGroup = C;
unicode = 010C;
},
{
glyphname = Ccedilla;
lastChange = "2015-10-24 18:33:41 +0000";
layers = (
{
layerId = "139F617A-DF90-4219-9825-66026F124FCC";
name = Light;
paths = (
{
closed = 1;
nodes = (
"204 60 OFFCURVE",
"132 149 OFFCURVE",
"132 308 CURVE SMOOTH",
"132 480 OFFCURVE",
"191 584 OFFCURVE",
"365 584 CURVE SMOOTH",
"431 584 OFFCURVE",
"492 572 OFFCURVE",
"545 552 CURVE",
"545 624 LINE",
"492 643 OFFCURVE",
"432 654 OFFCURVE",
"358 654 CURVE SMOOTH",
"141 654 OFFCURVE",
"50 518 OFFCURVE",
"50 308 CURVE SMOOTH",
"50 116 OFFCURVE",
"151 -10 OFFCURVE",
"359 -10 CURVE SMOOTH",
"433 -10 OFFCURVE",
"493 0 OFFCURVE",
"545 16 CURVE",
"545 89 LINE",
"492 69 OFFCURVE",
"427 60 OFFCURVE",
"367 60 CURVE SMOOTH"
);
},
{
closed = 1;
nodes = (
"469 -81 OFFCURVE",
"431 -48 OFFCURVE",
"358 -48 CURVE",
"374 0 LINE",
"316 0 LINE",
"287 -91 LINE",
"324 -91 LINE SMOOTH",
"381 -91 OFFCURVE",
"409 -98 OFFCURVE",
"409 -137 CURVE SMOOTH",
"409 -178 OFFCURVE",
"381 -190 OFFCURVE",
"319 -190 CURVE SMOOTH",
"297 -190 OFFCURVE",
"274 -187 OFFCURVE",
"256 -182 CURVE",
"256 -232 LINE",
"271 -236 OFFCURVE",
"304 -240 OFFCURVE",
"326 -240 CURVE SMOOTH",
"425 -240 OFFCURVE",
"469 -203 OFFCURVE",
"469 -138 CURVE SMOOTH"
);
}
);
width = 595;
}
);
leftKerningGroup = C;
note = Ccedilla;
rightKerningGroup = C;
unicode = 00C7;
},
{
glyphname = Ccircumflex;
lastChange = "2015-10-24 18:33:42 +0000";
layers = (
{
layerId = "139F617A-DF90-4219-9825-66026F124FCC";
name = Light;
paths = (
{
closed = 1;
nodes = (
"204 60 OFFCURVE",
"132 149 OFFCURVE",
"132 308 CURVE SMOOTH",
"132 480 OFFCURVE",
"191 584 OFFCURVE",
"365 584 CURVE SMOOTH",
"431 584 OFFCURVE",
"492 572 OFFCURVE",
"545 552 CURVE",
"545 624 LINE",
"492 643 OFFCURVE",
"432 654 OFFCURVE",
"358 654 CURVE SMOOTH",
"141 654 OFFCURVE",
"50 518 OFFCURVE",
"50 308 CURVE SMOOTH",
"50 116 OFFCURVE",
"151 -10 OFFCURVE",
"359 -10 CURVE SMOOTH",
"433 -10 OFFCURVE",
"493 0 OFFCURVE",
"545 16 CURVE",
"545 89 LINE",
"492 69 OFFCURVE",
"427 60 OFFCURVE",
"367 60 CURVE SMOOTH"
);
},
{
closed = 1;
nodes = (
"364 836 LINE",
"298 836 LINE",
"183 688 LINE",
"254 688 LINE",
"331 790 LINE",
"408 688 LINE",
"479 688 LINE"
);
}
);
width = 595;
}
);
leftKerningGroup = C;
note = Ccircumflex;
rightKerningGroup = C;
unicode = 0108;
},
{
glyphname = Cdotaccent;
lastChange = "2015-10-24 18:33:41 +0000";
layers = (
{
layerId = "139F617A-DF90-4219-9825-66026F124FCC";
name = Light;
paths = (
{
closed = 1;
nodes = (
"204 60 OFFCURVE",
"132 149 OFFCURVE",
"132 308 CURVE SMOOTH",
"132 480 OFFCURVE",
"191 584 OFFCURVE",
"365 584 CURVE SMOOTH",
"431 584 OFFCURVE",
"492 572 OFFCURVE",
"545 552 CURVE",
"545 624 LINE",
"492 643 OFFCURVE",
"432 654 OFFCURVE",
"358 654 CURVE SMOOTH",
"141 654 OFFCURVE",
"50 518 OFFCURVE",
"50 308 CURVE SMOOTH",
"50 116 OFFCURVE",
"151 -10 OFFCURVE",
"359 -10 CURVE SMOOTH",
"433 -10 OFFCURVE",
"493 0 OFFCURVE",
"545 16 CURVE",
"545 89 LINE",
"492 69 OFFCURVE",
"427 60 OFFCURVE",
"367 60 CURVE SMOOTH"
);
},
{
closed = 1;
nodes = (
"392 710 LINE",
"392 787 LINE",
"312 787 LINE",
"312 710 LINE"
);
}
);
width = 595;
}
);
leftKerningGroup = C;
note = Cdotaccent;
rightKerningGroup = C;
unicode = 010A;
},
{
glyphname = D;
lastChange = "2015-10-24 18:33:42 +0000";
layers = (
{
layerId = "139F617A-DF90-4219-9825-66026F124FCC";
name = Light;
paths = (
{
closed = 1;
nodes = (
"592 550 OFFCURVE",
"509 644 OFFCURVE",
"322 644 CURVE SMOOTH",
"70 644 LINE",
"70 0 LINE",
"322 0 LINE SMOOTH",
"512 0 OFFCURVE",
"592 98 OFFCURVE",
"592 318 CURVE SMOOTH"
);
},
{
closed = 1;
nodes = (
"510 111 OFFCURVE",
"443 64 OFFCURVE",
"307 64 CURVE SMOOTH",
"152 64 LINE",
"152 579 LINE",
"307 579 LINE SMOOTH",
"453 579 OFFCURVE",
"510 522 OFFCURVE",
"510 318 CURVE SMOOTH"
);
}
);
width = 642;
}
);
note = D;
rightKerningGroup = D;
unicode = 0044;
},
{
glyphname = Eth;
lastChange = "2015-10-24 18:35:49 +0000";
layers = (
{
layerId = "139F617A-DF90-4219-9825-66026F124FCC";
name = Light;
paths = (
{
closed = 1;
nodes = (
"20 349 LINE",
"20 284 LINE",
"355 284 LINE",
"355 349 LINE"
);
},
{
closed = 1;
nodes = (
"614 550 OFFCURVE",
"531 644 OFFCURVE",
"344 644 CURVE SMOOTH",
"92 644 LINE",
"92 0 LINE",
"344 0 LINE SMOOTH",
"534 0 OFFCURVE",
"614 98 OFFCURVE",
"614 318 CURVE SMOOTH"
);
},
{
closed = 1;
nodes = (
"532 111 OFFCURVE",
"465 64 OFFCURVE",
"329 64 CURVE SMOOTH",
"174 64 LINE",
"174 579 LINE",
"329 579 LINE SMOOTH",
"475 579 OFFCURVE",
"532 522 OFFCURVE",
"532 318 CURVE SMOOTH"
);
}
);
width = 664;
}
);
note = Eth;
rightKerningGroup = D;
unicode = 00D0;
},
{
glyphname = Dcaron;
lastChange = "2015-10-24 18:33:42 +0000";
layers = (
{
layerId = "139F617A-DF90-4219-9825-66026F124FCC";
name = Light;
paths = (
{
closed = 1;
nodes = (
"592 550 OFFCURVE",
"509 644 OFFCURVE",
"322 644 CURVE SMOOTH",
"70 644 LINE",
"70 0 LINE",
"322 0 LINE SMOOTH",
"512 0 OFFCURVE",
"592 98 OFFCURVE",
"592 318 CURVE SMOOTH"
);
},
{
closed = 1;
nodes = (
"510 111 OFFCURVE",
"443 64 OFFCURVE",
"307 64 CURVE SMOOTH",
"152 64 LINE",
"152 579 LINE",
"307 579 LINE SMOOTH",
"453 579 OFFCURVE",
"510 522 OFFCURVE",
"510 318 CURVE SMOOTH"
);
},
{
closed = 1;
nodes = (
"446 836 LINE",
"375 836 LINE",
"298 734 LINE",
"221 836 LINE",
"150 836 LINE",
"265 688 LINE",
"331 688 LINE"
);
}
);
width = 642;
}
);
note = Dcaron;
rightKerningGroup = D;
unicode = 010E;
},
{
glyphname = Dcroat;
lastChange = "2015-10-24 18:33:42 +0000";
layers = (
{
layerId = "139F617A-DF90-4219-9825-66026F124FCC";
name = Light;
paths = (
{
closed = 1;
nodes = (
"20 349 LINE",
"20 284 LINE",
"355 284 LINE",
"355 349 LINE"
);
},
{
closed = 1;
nodes = (
"614 550 OFFCURVE",
"531 644 OFFCURVE",
"344 644 CURVE SMOOTH",
"92 644 LINE",
"92 0 LINE",
"344 0 LINE SMOOTH",
"534 0 OFFCURVE",
"614 98 OFFCURVE",
"614 318 CURVE SMOOTH"
);
},
{
closed = 1;
nodes = (
"532 111 OFFCURVE",
"465 64 OFFCURVE",
"329 64 CURVE SMOOTH",
"174 64 LINE",
"174 579 LINE",
"329 579 LINE SMOOTH",
"475 579 OFFCURVE",
"532 522 OFFCURVE",
"532 318 CURVE SMOOTH"
);
}
);
width = 664;
}
);
note = Dcroat;
rightKerningGroup = D;
unicode = 0110;
},
{
glyphname = Ddotbelow;
lastChange = "2015-10-24 18:33:41 +0000";
layers = (
{
layerId = "139F617A-DF90-4219-9825-66026F124FCC";
name = Light;
paths = (
{
closed = 1;
nodes = (
"592 550 OFFCURVE",
"509 644 OFFCURVE",
"322 644 CURVE SMOOTH",
"70 644 LINE",
"70 0 LINE",
"322 0 LINE SMOOTH",
"512 0 OFFCURVE",
"592 98 OFFCURVE",
"592 318 CURVE SMOOTH"
);
},
{
closed = 1;
nodes = (
"510 111 OFFCURVE",
"443 64 OFFCURVE",
"307 64 CURVE SMOOTH",
"152 64 LINE",
"152 579 LINE",
"307 579 LINE SMOOTH",
"453 579 OFFCURVE",
"510 522 OFFCURVE",
"510 318 CURVE SMOOTH"
);
},
{
closed = 1;
nodes = (
"357 -164 LINE",
"357 -87 LINE",
"277 -87 LINE",
"277 -164 LINE"
);
}
);
width = 642;
}
);
note = Ddotbelow;
rightKerningGroup = D;
unicode = 1E0C;
},
{
glyphname = Dlinebelow;
lastChange = "2015-10-24 18:33:41 +0000";
layers = (
{
layerId = "139F617A-DF90-4219-9825-66026F124FCC";
name = Light;
paths = (
{
closed = 1;
nodes = (
"592 550 OFFCURVE",
"509 644 OFFCURVE",
"322 644 CURVE SMOOTH",
"70 644 LINE",
"70 0 LINE",
"322 0 LINE SMOOTH",
"512 0 OFFCURVE",
"592 98 OFFCURVE",
"592 318 CURVE SMOOTH"
);
},
{
closed = 1;
nodes = (
"510 111 OFFCURVE",
"443 64 OFFCURVE",
"307 64 CURVE SMOOTH",
"152 64 LINE",
"152 579 LINE",
"307 579 LINE SMOOTH",
"453 579 OFFCURVE",
"510 522 OFFCURVE",
"510 318 CURVE SMOOTH"
);
},
{
closed = 1;
nodes = (
"140 -85 LINE",
"140 -144 LINE",
"428 -144 LINE",
"428 -85 LINE"
);
}
);
width = 642;
}
);
note = Dlinebelow;
rightKerningGroup = D;
unicode = 1E0E;
},
{
glyphname = E;
lastChange = "2015-11-24 10:21:41 +0000";
layers = (
{
layerId = "139F617A-DF90-4219-9825-66026F124FCC";
name = Light;
paths = (
{
closed = 1;
nodes = (
"505 0 LINE",
"505 64 LINE",
"152 64 LINE",
"152 290 LINE",
"469 290 LINE",
"469 354 LINE",
"152 354 LINE",
"152 579 LINE",
"505 579 LINE",
"505 644 LINE",
"70 644 LINE",
"70 0 LINE"
);
}
);
width = 555;
}
);
leftKerningGroup = E;
note = E;
rightKerningGroup = E;
unicode = 0045;
},
{
glyphname = Eacute;
lastChange = "2015-10-24 18:36:05 +0000";
layers = (
{
layerId = "139F617A-DF90-4219-9825-66026F124FCC";
name = Light;
paths = (
{
closed = 1;
nodes = (
"505 0 LINE",
"505 64 LINE",
"152 64 LINE",
"152 290 LINE",
"469 290 LINE",
"469 354 LINE",
"152 354 LINE",
"152 579 LINE",
"505 579 LINE",
"505 644 LINE",
"70 644 LINE",
"70 0 LINE"
);
},
{
closed = 1;
nodes = (
"305 688 LINE",
"384 856 LINE",
"310 856 LINE",
"239 688 LINE"
);
}
);
width = 555;
}
);
leftKerningGroup = E;
note = Eacute;
rightKerningGroup = E;
unicode = 00C9;
},
{
glyphname = Ebreve;
lastChange = "2015-10-24 18:33:41 +0000";
layers = (
{
layerId = "139F617A-DF90-4219-9825-66026F124FCC";
name = Light;
paths = (
{
closed = 1;
nodes = (
"505 0 LINE",
"505 64 LINE",
"152 64 LINE",
"152 290 LINE",
"469 290 LINE",
"469 354 LINE",
"152 354 LINE",
"152 579 LINE",
"505 579 LINE",
"505 644 LINE",
"70 644 LINE",
"70 0 LINE"
);
},
{
closed = 1;
nodes = (
"159 814 LINE",
"159 739 OFFCURVE",
"202 688 OFFCURVE",
"285 688 CURVE SMOOTH",
"369 688 OFFCURVE",
"413 739 OFFCURVE",
"413 814 CURVE",
"355 814 LINE",
"355 763 OFFCURVE",
"329 740 OFFCURVE",
"285 740 CURVE SMOOTH",
"243 740 OFFCURVE",
"217 763 OFFCURVE",
"217 814 CURVE"
);
}
);
width = 555;
}
);
leftKerningGroup = E;
note = Ebreve;
rightKerningGroup = E;
unicode = 0114;
},
{
glyphname = Ecaron;
lastChange = "2015-10-24 18:33:42 +0000";
layers = (
{
layerId = "139F617A-DF90-4219-9825-66026F124FCC";
name = Light;
paths = (
{
closed = 1;
nodes = (
"505 0 LINE",
"505 64 LINE",
"152 64 LINE",
"152 290 LINE",
"469 290 LINE",
"469 354 LINE",
"152 354 LINE",
"152 579 LINE",
"505 579 LINE",
"505 644 LINE",
"70 644 LINE",
"70 0 LINE"
);
},
{
closed = 1;
nodes = (
"435 836 LINE",
"364 836 LINE",
"287 734 LINE",
"210 836 LINE",
"139 836 LINE",
"254 688 LINE",
"320 688 LINE"
);
}
);
width = 555;
}
);
leftKerningGroup = E;
note = Ecaron;
rightKerningGroup = E;
unicode = 011A;
},
{
glyphname = Ecircumflex;
lastChange = "2015-10-24 18:33:41 +0000";
layers = (
{
layerId = "139F617A-DF90-4219-9825-66026F124FCC";
name = Light;
paths = (
{
closed = 1;
nodes = (
"505 0 LINE",
"505 64 LINE",
"152 64 LINE",
"152 290 LINE",
"469 290 LINE",
"469 354 LINE",
"152 354 LINE",
"152 579 LINE",
"505 579 LINE",
"505 644 LINE",
"70 644 LINE",
"70 0 LINE"
);
},
{
closed = 1;
nodes = (
"307 836 LINE",
"241 836 LINE",
"126 688 LINE",
"197 688 LINE",
"274 790 LINE",
"351 688 LINE",
"422 688 LINE"
);
}
);
width = 555;
}
);
leftKerningGroup = E;
note = Ecircumflex;
rightKerningGroup = E;
unicode = 00CA;
},
{
glyphname = Ecircumflexacute;
lastChange = "2015-10-24 18:33:41 +0000";
layers = (
{
layerId = "139F617A-DF90-4219-9825-66026F124FCC";
name = Light;
paths = (
{
closed = 1;
nodes = (
"505 0 LINE",
"505 64 LINE",
"152 64 LINE",
"152 290 LINE",
"469 290 LINE",
"469 354 LINE",
"152 354 LINE",
"152 579 LINE",
"505 579 LINE",
"505 644 LINE",
"70 644 LINE",
"70 0 LINE"
);
},
{
closed = 1;
nodes = (
"308 805 LINE",
"242 805 LINE",
"131 687 LINE",
"201 687 LINE",
"275 770 LINE",
"350 687 LINE",
"419 687 LINE"
);
},
{
closed = 1;
nodes = (
"414 796 LINE",
"482 921 LINE",
"417 921 LINE",
"355 796 LINE"
);
}
);
width = 555;
}
);
leftKerningGroup = E;
note = Ecircumflexacute;
rightKerningGroup = E;
unicode = 1EBE;
},
{
glyphname = Ecircumflexdotbelow;
lastChange = "2015-10-24 18:33:42 +0000";
layers = (
{
layerId = "139F617A-DF90-4219-9825-66026F124FCC";
name = Light;
paths = (
{
closed = 1;
nodes = (
"505 0 LINE",
"505 64 LINE",
"152 64 LINE",
"152 290 LINE",
"469 290 LINE",
"469 354 LINE",
"152 354 LINE",
"152 579 LINE",
"505 579 LINE",
"505 644 LINE",
"70 644 LINE",
"70 0 LINE"
);
},
{
closed = 1;
nodes = (
"303 836 LINE",
"237 836 LINE",
"122 688 LINE",
"193 688 LINE",
"270 790 LINE",
"347 688 LINE",
"418 688 LINE"
);
},
{
closed = 1;
nodes = (
"310 -164 LINE",
"310 -87 LINE",
"230 -87 LINE",
"230 -164 LINE"
);
}
);
width = 555;
}
);
leftKerningGroup = E;
note = Ecircumflexdotbelow;
rightKerningGroup = E;
unicode = 1EC6;
},
{
glyphname = Ecircumflexgrave;
lastChange = "2015-10-24 18:33:41 +0000";
layers = (
{
layerId = "139F617A-DF90-4219-9825-66026F124FCC";
name = Light;
paths = (
{
closed = 1;
nodes = (
"505 0 LINE",
"505 64 LINE",
"152 64 LINE",
"152 290 LINE",
"469 290 LINE",
"469 354 LINE",
"152 354 LINE",
"152 579 LINE",
"505 579 LINE",
"505 644 LINE",
"70 644 LINE",
"70 0 LINE"
);
},
{
closed = 1;
nodes = (
"149 687 LINE",
"218 687 LINE",
"293 770 LINE",
"367 687 LINE",
"437 687 LINE",
"326 805 LINE",
"260 805 LINE"
);
},
{
closed = 1;
nodes = (
"213 796 LINE",
"151 921 LINE",
"86 921 LINE",
"154 796 LINE"
);
}
);
width = 555;
}
);
leftKerningGroup = E;
note = Ecircumflexgrave;
rightKerningGroup = E;
unicode = 1EC0;
},
{
glyphname = Ecircumflexhookabove;
lastChange = "2015-11-24 10:21:29 +0000";
layers = (
{
layerId = "139F617A-DF90-4219-9825-66026F124FCC";
name = Light;
paths = (
{
closed = 1;
nodes = (
"505 0 LINE",
"505 64 LINE",
"152 64 LINE",
"152 290 LINE",
"469 290 LINE",
"469 354 LINE",
"152 354 LINE",
"152 579 LINE",
"505 579 LINE",
"505 644 LINE",
"70 644 LINE",
"70 0 LINE"
);
},
{
closed = 1;
nodes = (
"136 687 LINE",
"206 687 LINE",
"280 770 LINE",
"355 687 LINE",
"424 687 LINE",
"313 805 LINE",
"247 805 LINE"
);
},
{
closed = 1;
nodes = (
"508 931 OFFCURVE",
"472 959 OFFCURVE",
"412 959 CURVE SMOOTH",
"382 959 OFFCURVE",
"359 954 OFFCURVE",
"341 947 CURVE",
"341 904 LINE",
"357 911 OFFCURVE",
"375 916 OFFCURVE",
"398 916 CURVE SMOOTH",
"432 916 OFFCURVE",
"448 905 OFFCURVE",
"448 880 CURVE SMOOTH",
"448 854 OFFCURVE",
"435 841 OFFCURVE",
"368 838 CURVE",
"368 775 LINE",
"429 775 LINE",
"429 810 LINE",
"484 817 OFFCURVE",
"508 841 OFFCURVE",
"508 884 CURVE SMOOTH"
);
}
);
width = 555;
}
);
leftKerningGroup = E;
note = Ecircumflexhookabove;
rightKerningGroup = E;
unicode = 1EC2;
},
{
glyphname = Ecircumflextilde;
lastChange = "2015-10-24 18:33:42 +0000";
layers = (
{
layerId = "139F617A-DF90-4219-9825-66026F124FCC";
name = Light;
paths = (
{
closed = 1;
nodes = (
"505 0 LINE",
"505 64 LINE",
"152 64 LINE",
"152 290 LINE",
"469 290 LINE",
"469 354 LINE",
"152 354 LINE",
"152 579 LINE",
"505 579 LINE",
"505 644 LINE",
"70 644 LINE",
"70 0 LINE"
);
},
{
closed = 1;
nodes = (
"137 688 LINE",
"207 688 LINE",
"281 771 LINE",
"356 688 LINE",
"425 688 LINE",
"314 806 LINE",
"248 806 LINE"
);
},
{
closed = 1;
nodes = (
"383 808 OFFCURVE",
"411 819 OFFCURVE",
"423 835 CURVE",
"423 892 LINE",
"406 869 OFFCURVE",
"383 859 OFFCURVE",
"352 859 CURVE SMOOTH",
"307 859 OFFCURVE",
"270 894 OFFCURVE",
"219 894 CURVE SMOOTH",
"191 894 OFFCURVE",
"158 883 OFFCURVE",
"143 867 CURVE",
"143 811 LINE",
"163 835 OFFCURVE",
"190 843 OFFCURVE",
"219 843 CURVE SMOOTH",
"259 843 OFFCURVE",
"304 808 OFFCURVE",
"352 808 CURVE SMOOTH"
);
}
);
width = 555;
}
);
leftKerningGroup = E;
note = Ecircumflextilde;
rightKerningGroup = E;
unicode = 1EC4;
},
{
glyphname = Edieresis;
lastChange = "2015-10-24 18:33:41 +0000";
layers = (
{
layerId = "139F617A-DF90-4219-9825-66026F124FCC";
name = Light;
paths = (
{
closed = 1;
nodes = (
"505 0 LINE",
"505 64 LINE",
"152 64 LINE",
"152 290 LINE",
"469 290 LINE",
"469 354 LINE",
"152 354 LINE",
"152 579 LINE",
"505 579 LINE",
"505 644 LINE",
"70 644 LINE",
"70 0 LINE"
);
},
{
closed = 1;
nodes = (
"231 711 LINE",
"231 786 LINE",
"153 786 LINE",
"153 711 LINE"
);
},
{
closed = 1;
nodes = (
"407 711 LINE",
"407 786 LINE",
"329 786 LINE",
"329 711 LINE"
);
}
);
width = 555;
}
);
leftKerningGroup = E;
note = Edieresis;
rightKerningGroup = E;
unicode = 00CB;
},
{
glyphname = Edotaccent;
lastChange = "2015-10-24 18:33:42 +0000";
layers = (
{
layerId = "139F617A-DF90-4219-9825-66026F124FCC";
name = Light;
paths = (
{
closed = 1;
nodes = (
"505 0 LINE",
"505 64 LINE",
"152 64 LINE",
"152 290 LINE",
"469 290 LINE",
"469 354 LINE",
"152 354 LINE",
"152 579 LINE",
"505 579 LINE",
"505 644 LINE",
"70 644 LINE",
"70 0 LINE"
);
},
{
closed = 1;
nodes = (
"319 710 LINE",
"319 787 LINE",
"239 787 LINE",
"239 710 LINE"
);
}
);
width = 555;
}
);
leftKerningGroup = E;
note = Edotaccent;
rightKerningGroup = E;
unicode = 0116;
},
{
glyphname = Edotbelow;
lastChange = "2015-10-24 18:33:41 +0000";
layers = (
{
layerId = "139F617A-DF90-4219-9825-66026F124FCC";
name = Light;
paths = (
{
closed = 1;
nodes = (
"505 0 LINE",
"505 64 LINE",
"152 64 LINE",
"152 290 LINE",
"469 290 LINE",
"469 354 LINE",
"152 354 LINE",
"152 579 LINE",
"505 579 LINE",
"505 644 LINE",
"70 644 LINE",
"70 0 LINE"
);
},
{
closed = 1;
nodes = (
"316 -164 LINE",
"316 -87 LINE",
"236 -87 LINE",
"236 -164 LINE"
);
}
);
width = 555;
}
);
leftKerningGroup = E;
note = Edotbelow;
rightKerningGroup = E;
unicode = 1EB8;
},
{
glyphname = Egrave;
lastChange = "2015-10-24 18:33:41 +0000";
layers = (
{
layerId = "139F617A-DF90-4219-9825-66026F124FCC";
name = Light;
paths = (
{
closed = 1;
nodes = (
"505 0 LINE",
"505 64 LINE",
"152 64 LINE",
"152 290 LINE",
"469 290 LINE",
"469 354 LINE",
"152 354 LINE",
"152 579 LINE",
"505 579 LINE",
"505 644 LINE",
"70 644 LINE",
"70 0 LINE"
);
},
{
closed = 1;
nodes = (
"323 688 LINE",
"252 856 LINE",
"178 856 LINE",
"257 688 LINE"
);
}
);
width = 555;
}
);
leftKerningGroup = E;
note = Egrave;
rightKerningGroup = E;
unicode = 00C8;
},
{
glyphname = Ehookabove;
lastChange = "2015-10-24 18:33:41 +0000";
layers = (
{
layerId = "139F617A-DF90-4219-9825-66026F124FCC";
name = Light;
paths = (
{
closed = 1;
nodes = (
"505 0 LINE",
"505 64 LINE",
"152 64 LINE",
"152 290 LINE",
"469 290 LINE",
"469 354 LINE",
"152 354 LINE",
"152 579 LINE",
"505 579 LINE",
"505 644 LINE",
"70 644 LINE",
"70 0 LINE"
);
},
{
closed = 1;
nodes = (
"395 886 OFFCURVE",
"353 920 OFFCURVE",
"274 920 CURVE SMOOTH",
"245 920 OFFCURVE",
"209 915 OFFCURVE",
"189 907 CURVE",
"189 856 LINE",
"206 863 OFFCURVE",
"234 868 OFFCURVE",
"255 868 CURVE SMOOTH",
"308 868 OFFCURVE",
"333 856 OFFCURVE",
"333 823 CURVE SMOOTH",
"333 788 OFFCURVE",
"318 775 OFFCURVE",
"240 771 CURVE",
"240 688 LINE",
"306 688 LINE",
"306 736 LINE",
"373 745 OFFCURVE",
"395 775 OFFCURVE",
"395 829 CURVE SMOOTH"
);
}
);
width = 555;
}
);
leftKerningGroup = E;
note = Ehookabove;
rightKerningGroup = E;
unicode = 1EBA;
},
{
glyphname = Emacron;
lastChange = "2015-10-24 18:33:41 +0000";
layers = (
{
layerId = "139F617A-DF90-4219-9825-66026F124FCC";
name = Light;
paths = (
{
closed = 1;
nodes = (
"505 0 LINE",
"505 64 LINE",
"152 64 LINE",
"152 290 LINE",
"469 290 LINE",
"469 354 LINE",
"152 354 LINE",
"152 579 LINE",
"505 579 LINE",
"505 644 LINE",
"70 644 LINE",
"70 0 LINE"
);
},
{
closed = 1;
nodes = (
"130 779 LINE",
"130 720 LINE",
"418 720 LINE",
"418 779 LINE"
);
}
);
width = 555;
}
);
leftKerningGroup = E;
note = Emacron;
rightKerningGroup = E;
unicode = 0112;
},
{
glyphname = Eogonek;
lastChange = "2015-10-24 18:33:41 +0000";
layers = (
{
layerId = "139F617A-DF90-4219-9825-66026F124FCC";
name = Light;
paths = (
{
closed = 1;
nodes = (
"505 0 LINE",
"505 64 LINE",
"152 64 LINE",
"152 290 LINE",
"469 290 LINE",
"469 354 LINE",
"152 354 LINE",
"152 579 LINE",
"505 579 LINE",
"505 644 LINE",
"70 644 LINE",
"70 0 LINE"
);
},
{
closed = 1;
nodes = (
"396 -77 OFFCURVE",
"421 -35 OFFCURVE",
"468 0 CURVE",
"404 0 LINE",
"360 -30 OFFCURVE",
"329 -80 OFFCURVE",
"329 -132 CURVE SMOOTH",
"329 -195 OFFCURVE",
"374 -220 OFFCURVE",
"428 -220 CURVE SMOOTH",
"452 -220 OFFCURVE",
"480 -216 OFFCURVE",
"496 -208 CURVE",
"496 -152 LINE",
"484 -159 OFFCURVE",
"463 -163 OFFCURVE",
"446 -163 CURVE SMOOTH",
"413 -163 OFFCURVE",
"396 -154 OFFCURVE",
"396 -120 CURVE SMOOTH"
);
}
);
width = 555;
}
);
leftKerningGroup = E;
note = Eogonek;
rightKerningGroup = E;
unicode = 0118;
},
{
glyphname = Etilde;
lastChange = "2015-10-24 18:33:41 +0000";
layers = (
{
layerId = "139F617A-DF90-4219-9825-66026F124FCC";
name = Light;
paths = (
{
closed = 1;
nodes = (
"505 0 LINE",
"505 64 LINE",
"152 64 LINE",
"152 290 LINE",
"469 290 LINE",
"469 354 LINE",
"152 354 LINE",
"152 579 LINE",
"505 579 LINE",
"505 644 LINE",
"70 644 LINE",
"70 0 LINE"
);
},
{
closed = 1;
nodes = (
"386 708 OFFCURVE",
"416 720 OFFCURVE",
"429 738 CURVE",
"429 802 LINE",
"411 777 OFFCURVE",
"386 766 OFFCURVE",
"352 766 CURVE SMOOTH",
"303 766 OFFCURVE",
"263 804 OFFCURVE",
"208 804 CURVE SMOOTH",
"177 804 OFFCURVE",
"141 792 OFFCURVE",
"125 774 CURVE",
"125 711 LINE",
"147 737 OFFCURVE",
"176 746 OFFCURVE",
"208 746 CURVE SMOOTH",
"251 746 OFFCURVE",
"300 708 OFFCURVE",
"352 708 CURVE SMOOTH"
);
}
);
width = 555;
}
);
leftKerningGroup = E;
note = Etilde;
rightKerningGroup = E;
unicode = 1EBC;
},
{
glyphname = F;
lastChange = "2015-10-24 18:33:41 +0000";
layers = (
{
layerId = "139F617A-DF90-4219-9825-66026F124FCC";
name = Light;
paths = (
{
closed = 1;
nodes = (
"152 0 LINE",
"152 290 LINE",
"455 290 LINE",
"455 354 LINE",
"152 354 LINE",
"152 579 LINE",
"492 579 LINE",
"492 644 LINE",
"70 644 LINE",
"70 0 LINE"
);
}
);
width = 522;
}
);
note = F;
unicode = 0046;
},
{
glyphname = G;
lastChange = "2015-10-24 18:33:41 +0000";
layers = (
{
layerId = "139F617A-DF90-4219-9825-66026F124FCC";
name = Light;
paths = (
{
closed = 1;
nodes = (
"201 60 OFFCURVE",
"132 149 OFFCURVE",
"132 308 CURVE SMOOTH",
"132 480 OFFCURVE",
"191 584 OFFCURVE",
"365 584 CURVE SMOOTH",
"431 584 OFFCURVE",
"492 572 OFFCURVE",
"545 552 CURVE",
"545 624 LINE",
"492 643 OFFCURVE",
"432 654 OFFCURVE",
"358 654 CURVE SMOOTH",
"141 654 OFFCURVE",
"50 518 OFFCURVE",
"50 308 CURVE SMOOTH",
"50 116 OFFCURVE",
"151 -10 OFFCURVE",
"359 -10 CURVE SMOOTH",
"479 -10 OFFCURVE",
"550 16 OFFCURVE",
"589 41 CURVE",
"589 347 LINE",
"346 347 LINE",
"346 291 LINE",
"518 291 LINE",
"518 86 LINE",
"477 70 OFFCURVE",
"421 60 OFFCURVE",
"364 60 CURVE SMOOTH"
);
}
);
width = 639;
}
);
leftKerningGroup = G;
note = G;
unicode = 0047;
},
{
glyphname = Gbreve;
lastChange = "2015-10-24 18:33:41 +0000";
layers = (
{
layerId = "139F617A-DF90-4219-9825-66026F124FCC";
name = Light;
paths = (
{
closed = 1;
nodes = (
"201 60 OFFCURVE",
"132 149 OFFCURVE",
"132 308 CURVE SMOOTH",
"132 480 OFFCURVE",
"191 584 OFFCURVE",
"365 584 CURVE SMOOTH",
"431 584 OFFCURVE",
"492 572 OFFCURVE",
"545 552 CURVE",
"545 624 LINE",
"492 643 OFFCURVE",
"432 654 OFFCURVE",
"358 654 CURVE SMOOTH",
"141 654 OFFCURVE",
"50 518 OFFCURVE",
"50 308 CURVE SMOOTH",
"50 116 OFFCURVE",
"151 -10 OFFCURVE",
"359 -10 CURVE SMOOTH",
"479 -10 OFFCURVE",
"550 16 OFFCURVE",
"589 41 CURVE",
"589 347 LINE",
"346 347 LINE",
"346 291 LINE",
"518 291 LINE",
"518 86 LINE",
"477 70 OFFCURVE",
"421 60 OFFCURVE",
"364 60 CURVE SMOOTH"
);
},
{
closed = 1;
nodes = (
"223 814 LINE",
"223 739 OFFCURVE",
"266 688 OFFCURVE",
"349 688 CURVE SMOOTH",
"433 688 OFFCURVE",
"477 739 OFFCURVE",
"477 814 CURVE",
"419 814 LINE",
"419 763 OFFCURVE",
"393 740 OFFCURVE",
"349 740 CURVE SMOOTH",
"307 740 OFFCURVE",
"281 763 OFFCURVE",
"281 814 CURVE"
);
}
);
width = 639;
}
);
leftKerningGroup = G;
note = Gbreve;
unicode = 011E;
},
{
glyphname = Gcaron;
lastChange = "2015-10-24 18:33:42 +0000";
layers = (
{
layerId = "139F617A-DF90-4219-9825-66026F124FCC";
name = Light;
paths = (
{
closed = 1;
nodes = (
"201 60 OFFCURVE",
"132 149 OFFCURVE",
"132 308 CURVE SMOOTH",
"132 480 OFFCURVE",
"191 584 OFFCURVE",
"365 584 CURVE SMOOTH",
"431 584 OFFCURVE",
"492 572 OFFCURVE",
"545 552 CURVE",
"545 624 LINE",
"492 643 OFFCURVE",
"432 654 OFFCURVE",
"358 654 CURVE SMOOTH",
"141 654 OFFCURVE",
"50 518 OFFCURVE",
"50 308 CURVE SMOOTH",
"50 116 OFFCURVE",
"151 -10 OFFCURVE",
"359 -10 CURVE SMOOTH",
"479 -10 OFFCURVE",
"550 16 OFFCURVE",
"589 41 CURVE",
"589 347 LINE",
"346 347 LINE",
"346 291 LINE",
"518 291 LINE",
"518 86 LINE",
"477 70 OFFCURVE",
"421 60 OFFCURVE",
"364 60 CURVE SMOOTH"
);
},
{
closed = 1;
nodes = (
"498 835 LINE",
"427 835 LINE",
"350 733 LINE",
"273 835 LINE",
"202 835 LINE",
"317 687 LINE",
"383 687 LINE"
);
}
);
width = 639;
}
);
leftKerningGroup = G;
note = Gcaron;
unicode = 01E6;
},
{
glyphname = Gcircumflex;
lastChange = "2015-10-24 18:33:41 +0000";
layers = (
{
layerId = "139F617A-DF90-4219-9825-66026F124FCC";
name = Light;
paths = (
{
closed = 1;
nodes = (
"201 60 OFFCURVE",
"132 149 OFFCURVE",
"132 308 CURVE SMOOTH",
"132 480 OFFCURVE",
"191 584 OFFCURVE",
"365 584 CURVE SMOOTH",
"431 584 OFFCURVE",
"492 572 OFFCURVE",
"545 552 CURVE",
"545 624 LINE",
"492 643 OFFCURVE",
"432 654 OFFCURVE",
"358 654 CURVE SMOOTH",
"141 654 OFFCURVE",
"50 518 OFFCURVE",
"50 308 CURVE SMOOTH",
"50 116 OFFCURVE",
"151 -10 OFFCURVE",
"359 -10 CURVE SMOOTH",
"479 -10 OFFCURVE",
"550 16 OFFCURVE",
"589 41 CURVE",
"589 347 LINE",
"346 347 LINE",
"346 291 LINE",
"518 291 LINE",
"518 86 LINE",
"477 70 OFFCURVE",
"421 60 OFFCURVE",
"364 60 CURVE SMOOTH"
);
},
{
closed = 1;
nodes = (
"389 836 LINE",
"323 836 LINE",
"208 688 LINE",
"279 688 LINE",
"356 790 LINE",
"433 688 LINE",
"504 688 LINE"
);
}
);
width = 639;
}
);
leftKerningGroup = G;
note = Gcircumflex;
unicode = 011C;
},
{
glyphname = Gcommaaccent;
lastChange = "2015-10-24 18:33:41 +0000";
layers = (
{
layerId = "139F617A-DF90-4219-9825-66026F124FCC";
name = Light;
paths = (
{
closed = 1;
nodes = (
"201 60 OFFCURVE",
"132 149 OFFCURVE",
"132 308 CURVE SMOOTH",
"132 480 OFFCURVE",
"191 584 OFFCURVE",
"365 584 CURVE SMOOTH",
"431 584 OFFCURVE",
"492 572 OFFCURVE",
"545 552 CURVE",
"545 624 LINE",
"492 643 OFFCURVE",
"432 654 OFFCURVE",
"358 654 CURVE SMOOTH",
"141 654 OFFCURVE",
"50 518 OFFCURVE",
"50 308 CURVE SMOOTH",
"50 116 OFFCURVE",
"151 -10 OFFCURVE",
"359 -10 CURVE SMOOTH",
"479 -10 OFFCURVE",
"550 16 OFFCURVE",
"589 41 CURVE",
"589 347 LINE",
"346 347 LINE",
"346 291 LINE",
"518 291 LINE",
"518 86 LINE",
"477 70 OFFCURVE",
"421 60 OFFCURVE",
"364 60 CURVE SMOOTH"
);
},
{
closed = 1;
nodes = (
"366 -224 LINE",
"408 -47 LINE",
"334 -47 LINE",
"306 -224 LINE"
);
}
);
width = 639;
}
);
leftKerningGroup = G;
note = Gcommaaccent;
unicode = 0122;
},
{
glyphname = Gdotaccent;
lastChange = "2015-10-24 18:33:42 +0000";
layers = (
{
layerId = "139F617A-DF90-4219-9825-66026F124FCC";
name = Light;
paths = (
{
closed = 1;
nodes = (
"201 60 OFFCURVE",
"132 149 OFFCURVE",
"132 308 CURVE SMOOTH",
"132 480 OFFCURVE",
"191 584 OFFCURVE",
"365 584 CURVE SMOOTH",
"431 584 OFFCURVE",
"492 572 OFFCURVE",
"545 552 CURVE",
"545 624 LINE",
"492 643 OFFCURVE",
"432 654 OFFCURVE",
"358 654 CURVE SMOOTH",
"141 654 OFFCURVE",
"50 518 OFFCURVE",
"50 308 CURVE SMOOTH",
"50 116 OFFCURVE",
"151 -10 OFFCURVE",
"359 -10 CURVE SMOOTH",
"479 -10 OFFCURVE",
"550 16 OFFCURVE",
"589 41 CURVE",
"589 347 LINE",
"346 347 LINE",
"346 291 LINE",
"518 291 LINE",
"518 86 LINE",
"477 70 OFFCURVE",
"421 60 OFFCURVE",
"364 60 CURVE SMOOTH"
);
},
{
closed = 1;
nodes = (
"392 710 LINE",
"392 787 LINE",
"312 787 LINE",
"312 710 LINE"
);
}
);
width = 639;
}
);
leftKerningGroup = G;
note = Gdotaccent;
unicode = 0120;
},
{
glyphname = Gmacron;
lastChange = "2015-10-24 18:33:42 +0000";
layers = (
{
layerId = "139F617A-DF90-4219-9825-66026F124FCC";
name = Light;
paths = (
{
closed = 1;
nodes = (
"201 60 OFFCURVE",
"132 149 OFFCURVE",
"132 308 CURVE SMOOTH",
"132 480 OFFCURVE",
"191 584 OFFCURVE",
"365 584 CURVE SMOOTH",
"431 584 OFFCURVE",
"492 572 OFFCURVE",
"545 552 CURVE",
"545 624 LINE",
"492 643 OFFCURVE",
"432 654 OFFCURVE",
"358 654 CURVE SMOOTH",
"141 654 OFFCURVE",
"50 518 OFFCURVE",
"50 308 CURVE SMOOTH",
"50 116 OFFCURVE",
"151 -10 OFFCURVE",
"359 -10 CURVE SMOOTH",
"479 -10 OFFCURVE",
"550 16 OFFCURVE",
"589 41 CURVE",
"589 347 LINE",
"346 347 LINE",
"346 291 LINE",
"518 291 LINE",
"518 86 LINE",
"477 70 OFFCURVE",
"421 60 OFFCURVE",
"364 60 CURVE SMOOTH"
);
},
{
closed = 1;
nodes = (
"208 776 LINE",
"208 717 LINE",
"496 717 LINE",
"496 776 LINE"
);
}
);
width = 639;
}
);
leftKerningGroup = G;
note = Gmacron;
unicode = 1E20;
},
{
glyphname = H;
lastChange = "2015-10-24 18:33:42 +0000";
layers = (
{
layerId = "139F617A-DF90-4219-9825-66026F124FCC";
name = Light;
paths = (
{
closed = 1;
nodes = (
"574 0 LINE",
"574 644 LINE",
"492 644 LINE",
"492 354 LINE",
"152 354 LINE",
"152 644 LINE",
"70 644 LINE",
"70 0 LINE",
"152 0 LINE",
"152 290 LINE",
"492 290 LINE",
"492 0 LINE"
);
}
);
width = 644;
}
);
note = H;
unicode = 0048;
},
{
glyphname = Hbar;
lastChange = "2015-10-24 18:33:41 +0000";
layers = (
{
layerId = "139F617A-DF90-4219-9825-66026F124FCC";
name = Light;
paths = (
{
closed = 1;
nodes = (
"10 529 LINE",
"10 464 LINE",
"634 464 LINE",
"634 529 LINE"
);
},
{
closed = 1;
nodes = (
"574 0 LINE",
"574 644 LINE",
"492 644 LINE",
"492 354 LINE",
"152 354 LINE",
"152 644 LINE",
"70 644 LINE",
"70 0 LINE",
"152 0 LINE",
"152 290 LINE",
"492 290 LINE",
"492 0 LINE"
);
}
);
width = 644;
}
);
note = Hbar;
unicode = 0126;
},
{
glyphname = Hbrevebelow;
lastChange = "2015-11-24 10:22:02 +0000";
layers = (
{
layerId = "139F617A-DF90-4219-9825-66026F124FCC";
name = Light;
paths = (
{
closed = 1;
nodes = (
"574 0 LINE",
"574 644 LINE",
"492 644 LINE",
"492 354 LINE",
"152 354 LINE",
"152 644 LINE",
"70 644 LINE",
"70 0 LINE",
"152 0 LINE",
"152 290 LINE",
"492 290 LINE",
"492 0 LINE"
);
},
{
closed = 1;
nodes = (
"195 -70 LINE",
"195 -145 OFFCURVE",
"238 -196 OFFCURVE",
"321 -196 CURVE SMOOTH",
"405 -196 OFFCURVE",
"449 -145 OFFCURVE",
"449 -70 CURVE",
"391 -70 LINE",
"391 -121 OFFCURVE",
"365 -144 OFFCURVE",
"321 -144 CURVE SMOOTH",
"279 -144 OFFCURVE",
"253 -121 OFFCURVE",
"253 -70 CURVE"
);
}
);
width = 644;
}
);
note = Hbrevebelow;
unicode = 1E2A;
},
{
glyphname = Hcircumflex;
lastChange = "2015-11-24 10:22:04 +0000";
layers = (
{
layerId = "139F617A-DF90-4219-9825-66026F124FCC";
name = Light;
paths = (
{
closed = 1;
nodes = (
"574 0 LINE",
"574 644 LINE",
"492 644 LINE",
"492 354 LINE",
"152 354 LINE",
"152 644 LINE",
"70 644 LINE",
"70 0 LINE",
"152 0 LINE",
"152 290 LINE",
"492 290 LINE",
"492 0 LINE"
);
},
{
closed = 1;
nodes = (
"355 836 LINE",
"289 836 LINE",
"174 688 LINE",
"245 688 LINE",
"322 790 LINE",
"399 688 LINE",
"470 688 LINE"
);
}
);
width = 644;
}
);
note = Hcircumflex;
unicode = 0124;
},
{
glyphname = Hdotbelow;
lastChange = "2015-11-24 10:22:06 +0000";
layers = (
{
layerId = "139F617A-DF90-4219-9825-66026F124FCC";
name = Light;
paths = (
{
closed = 1;
nodes = (
"574 0 LINE",
"574 644 LINE",
"492 644 LINE",
"492 354 LINE",
"152 354 LINE",
"152 644 LINE",
"70 644 LINE",
"70 0 LINE",
"152 0 LINE",
"152 290 LINE",
"492 290 LINE",
"492 0 LINE"
);
},
{
closed = 1;
nodes = (
"363 -164 LINE",
"363 -87 LINE",
"283 -87 LINE",
"283 -164 LINE"
);
}
);
width = 644;
}
);
note = Hdotbelow;
unicode = 1E24;
},
{
glyphname = I;
lastChange = "2015-10-24 18:33:41 +0000";
layers = (
{
layerId = "139F617A-DF90-4219-9825-66026F124FCC";
name = Light;
paths = (
{
closed = 1;
nodes = (
"152 0 LINE",
"152 644 LINE",
"70 644 LINE",
"70 0 LINE"
);
}
);
width = 222;
}
);
note = I;
unicode = 0049;
},
{
glyphname = IJ;
lastChange = "2015-10-24 18:33:41 +0000";
layers = (
{
layerId = "139F617A-DF90-4219-9825-66026F124FCC";
name = Light;
paths = (
{
closed = 1;
nodes = (
"152 0 LINE",
"152 644 LINE",
"70 644 LINE",
"70 0 LINE"
);
},
{
closed = 1;
nodes = (
"563 644 LINE",
"481 644 LINE",
"481 183 LINE SMOOTH",
"481 97 OFFCURVE",
"450 59 OFFCURVE",
"356 59 CURVE SMOOTH",
"312 59 OFFCURVE",
"263 69 OFFCURVE",
"231 83 CURVE",
"231 13 LINE",
"266 -1 OFFCURVE",
"312 -10 OFFCURVE",
"366 -10 CURVE SMOOTH",
"499 -10 OFFCURVE",
"563 59 OFFCURVE",
"563 177 CURVE SMOOTH"
);
}
);
width = 628;
}
);
note = IJ;
unicode = 0132;
},
{
glyphname = Iacute;
lastChange = "2015-10-24 18:33:41 +0000";
layers = (
{
layerId = "139F617A-DF90-4219-9825-66026F124FCC";
name = Light;
paths = (
{
closed = 1;
nodes = (
"152 0 LINE",
"152 644 LINE",
"70 644 LINE",
"70 0 LINE"
);
},
{
closed = 1;
nodes = (
"136 688 LINE",
"215 856 LINE",
"141 856 LINE",
"70 688 LINE"
);
}
);
width = 222;
}
);
note = Iacute;
unicode = 00CD;
},
{
glyphname = Ibreve;
lastChange = "2015-10-24 18:33:42 +0000";
layers = (
{
layerId = "139F617A-DF90-4219-9825-66026F124FCC";
name = Light;
paths = (
{
closed = 1;
nodes = (
"152 0 LINE",
"152 644 LINE",
"70 644 LINE",
"70 0 LINE"
);
},
{
closed = 1;
nodes = (
"-16 821 LINE",
"-16 746 OFFCURVE",
"27 695 OFFCURVE",
"110 695 CURVE SMOOTH",
"194 695 OFFCURVE",
"238 746 OFFCURVE",
"238 821 CURVE",
"180 821 LINE",
"180 770 OFFCURVE",
"154 747 OFFCURVE",
"110 747 CURVE SMOOTH",
"68 747 OFFCURVE",
"42 770 OFFCURVE",
"42 821 CURVE"
);
}
);
width = 222;
}
);
note = Ibreve;
unicode = 012C;
},
{
glyphname = Icaron;
lastChange = "2015-11-24 10:22:27 +0000";
layers = (
{
layerId = "139F617A-DF90-4219-9825-66026F124FCC";
name = Light;
paths = (
{
closed = 1;
nodes = (
"152 0 LINE",
"152 644 LINE",
"70 644 LINE",
"70 0 LINE"
);
},
{
closed = 1;
nodes = (
"260 836 LINE",
"189 836 LINE",
"112 734 LINE",
"35 836 LINE",
"-36 836 LINE",
"79 688 LINE",
"145 688 LINE"
);
}
);
width = 222;
}
);
note = Icaron;
unicode = 01CF;
},
{
glyphname = Icircumflex;
lastChange = "2015-10-24 18:33:42 +0000";
layers = (
{
layerId = "139F617A-DF90-4219-9825-66026F124FCC";
name = Light;
paths = (
{
closed = 1;
nodes = (
"152 0 LINE",
"152 644 LINE",
"70 644 LINE",
"70 0 LINE"
);
},
{
closed = 1;
nodes = (
"144 836 LINE",
"78 836 LINE",
"-37 688 LINE",
"34 688 LINE",
"111 790 LINE",
"188 688 LINE",
"259 688 LINE"
);
}
);
width = 222;
}
);
note = Icircumflex;
unicode = 00CE;
},
{
glyphname = Idieresis;
lastChange = "2015-10-24 18:33:41 +0000";
layers = (
{
layerId = "139F617A-DF90-4219-9825-66026F124FCC";
name = Light;
paths = (
{
closed = 1;
nodes = (
"152 0 LINE",
"152 644 LINE",
"70 644 LINE",
"70 0 LINE"
);
},
{
closed = 1;
nodes = (
"62 713 LINE",
"62 788 LINE",
"-16 788 LINE",
"-16 713 LINE"
);
},
{
closed = 1;
nodes = (
"238 713 LINE",
"238 788 LINE",
"160 788 LINE",
"160 713 LINE"
);
}
);
width = 222;
}
);
note = Idieresis;
unicode = 00CF;
},
{
glyphname = Idotaccent;
lastChange = "2015-10-24 18:33:41 +0000";
layers = (
{
layerId = "139F617A-DF90-4219-9825-66026F124FCC";
name = Light;
paths = (
{
closed = 1;
nodes = (
"152 0 LINE",
"152 644 LINE",
"70 644 LINE",
"70 0 LINE"
);
},
{
closed = 1;
nodes = (
"151 712 LINE",
"151 789 LINE",
"71 789 LINE",
"71 712 LINE"
);
}
);
width = 222;
}
);
note = Idotaccent;
unicode = 0130;
},
{
glyphname = Idotbelow;
lastChange = "2015-10-24 18:33:42 +0000";
layers = (
{
layerId = "139F617A-DF90-4219-9825-66026F124FCC";
name = Light;
paths = (
{
closed = 1;
nodes = (
"152 0 LINE",
"152 644 LINE",
"70 644 LINE",
"70 0 LINE"
);
},
{
closed = 1;
nodes = (
"151 -164 LINE",
"151 -87 LINE",
"71 -87 LINE",
"71 -164 LINE"
);
}
);
width = 222;
}
);
note = Idotbelow;
unicode = 1ECA;
},
{
glyphname = Igrave;
lastChange = "2015-10-24 18:33:42 +0000";
layers = (
{
layerId = "139F617A-DF90-4219-9825-66026F124FCC";
name = Light;
paths = (
{
closed = 1;
nodes = (
"152 0 LINE",
"152 644 LINE",
"70 644 LINE",
"70 0 LINE"
);
},
{
closed = 1;
nodes = (
"146 688 LINE",
"75 856 LINE",
"1 856 LINE",
"80 688 LINE"
);
}
);
width = 222;
}
);
note = Igrave;
unicode = 00CC;
},
{
glyphname = Ihookabove;
lastChange = "2015-10-24 18:33:41 +0000";
layers = (
{
layerId = "139F617A-DF90-4219-9825-66026F124FCC";
name = Light;
paths = (
{
closed = 1;
nodes = (
"152 0 LINE",
"152 644 LINE",
"70 644 LINE",
"70 0 LINE"
);
},
{
closed = 1;
nodes = (
"232 886 OFFCURVE",
"190 920 OFFCURVE",
"111 920 CURVE SMOOTH",
"82 920 OFFCURVE",
"46 915 OFFCURVE",
"26 907 CURVE",
"26 856 LINE",
"43 863 OFFCURVE",
"71 868 OFFCURVE",
"92 868 CURVE SMOOTH",
"145 868 OFFCURVE",
"170 856 OFFCURVE",
"170 823 CURVE SMOOTH",
"170 788 OFFCURVE",
"155 775 OFFCURVE",
"77 771 CURVE",
"77 688 LINE",
"143 688 LINE",
"143 736 LINE",
"210 745 OFFCURVE",
"232 775 OFFCURVE",
"232 829 CURVE SMOOTH"
);
}
);
width = 222;
}
);
note = Ihookabove;
unicode = 1EC8;
},
{
glyphname = Imacron;
lastChange = "2015-10-24 18:33:41 +0000";
layers = (
{
layerId = "139F617A-DF90-4219-9825-66026F124FCC";
name = Light;
paths = (
{
closed = 1;
nodes = (
"152 0 LINE",
"152 644 LINE",
"70 644 LINE",
"70 0 LINE"
);
},
{
closed = 1;
nodes = (
"-33 779 LINE",
"-33 720 LINE",
"255 720 LINE",
"255 779 LINE"
);
}
);
width = 222;
}
);
note = Imacron;
unicode = 012A;
},
{
glyphname = Iogonek;
lastChange = "2015-10-24 18:33:41 +0000";
layers = (
{
layerId = "139F617A-DF90-4219-9825-66026F124FCC";
name = Light;
paths = (
{
closed = 1;
nodes = (
"152 0 LINE",
"152 644 LINE",
"70 644 LINE",
"70 0 LINE"
);
},
{
closed = 1;
nodes = (
"74 -77 OFFCURVE",
"99 -35 OFFCURVE",
"146 0 CURVE",
"82 0 LINE",
"38 -30 OFFCURVE",
"7 -80 OFFCURVE",
"7 -132 CURVE SMOOTH",
"7 -195 OFFCURVE",
"52 -220 OFFCURVE",
"106 -220 CURVE SMOOTH",
"130 -220 OFFCURVE",
"158 -216 OFFCURVE",
"174 -208 CURVE",
"174 -152 LINE",
"162 -159 OFFCURVE",
"141 -163 OFFCURVE",
"124 -163 CURVE SMOOTH",
"91 -163 OFFCURVE",
"74 -154 OFFCURVE",
"74 -120 CURVE SMOOTH"
);
}
);
width = 222;
}
);
note = Iogonek;
unicode = 012E;
},
{
glyphname = Itilde;
lastChange = "2015-10-24 18:33:42 +0000";
layers = (
{
layerId = "139F617A-DF90-4219-9825-66026F124FCC";
name = Light;
paths = (
{
closed = 1;
nodes = (
"152 0 LINE",
"152 644 LINE",
"70 644 LINE",
"70 0 LINE"
);
},
{
closed = 1;
nodes = (
"220 693 OFFCURVE",
"250 705 OFFCURVE",
"263 723 CURVE",
"263 787 LINE",
"245 762 OFFCURVE",
"220 751 OFFCURVE",
"186 751 CURVE SMOOTH",
"137 751 OFFCURVE",
"97 789 OFFCURVE",
"42 789 CURVE SMOOTH",
"11 789 OFFCURVE",
"-25 777 OFFCURVE",
"-41 759 CURVE",
"-41 696 LINE",
"-19 722 OFFCURVE",
"10 731 OFFCURVE",
"42 731 CURVE SMOOTH",
"85 731 OFFCURVE",
"134 693 OFFCURVE",
"186 693 CURVE SMOOTH"
);
}
);
width = 222;
}
);
note = Itilde;
unicode = 0128;
},
{
glyphname = J;
lastChange = "2015-10-24 18:33:41 +0000";
layers = (
{
layerId = "139F617A-DF90-4219-9825-66026F124FCC";
name = Light;
paths = (
{
closed = 1;
nodes = (
"362 644 LINE",
"280 644 LINE",
"280 183 LINE SMOOTH",
"280 97 OFFCURVE",
"249 59 OFFCURVE",
"155 59 CURVE SMOOTH",
"111 59 OFFCURVE",
"62 69 OFFCURVE",
"30 83 CURVE",
"30 13 LINE",
"65 -1 OFFCURVE",
"111 -10 OFFCURVE",
"165 -10 CURVE SMOOTH",
"298 -10 OFFCURVE",
"362 59 OFFCURVE",
"362 177 CURVE SMOOTH"
);
}
);
width = 427;
}
);
note = J;
unicode = 004A;
},
{
glyphname = Jcircumflex;
lastChange = "2015-10-24 18:33:41 +0000";
layers = (
{
layerId = "139F617A-DF90-4219-9825-66026F124FCC";
name = Light;
paths = (
{
closed = 1;
nodes = (
"362 644 LINE",
"280 644 LINE",
"280 183 LINE SMOOTH",
"280 97 OFFCURVE",
"249 59 OFFCURVE",
"155 59 CURVE SMOOTH",
"111 59 OFFCURVE",
"62 69 OFFCURVE",
"30 83 CURVE",
"30 13 LINE",
"65 -1 OFFCURVE",
"111 -10 OFFCURVE",
"165 -10 CURVE SMOOTH",
"298 -10 OFFCURVE",
"362 59 OFFCURVE",
"362 177 CURVE SMOOTH"
);
},
{
closed = 1;
nodes = (
"352 836 LINE",
"286 836 LINE",
"171 688 LINE",
"242 688 LINE",
"319 790 LINE",
"396 688 LINE",
"467 688 LINE"
);
}
);
width = 427;
}
);
note = Jcircumflex;
unicode = 0134;
},
{
glyphname = K;
lastChange = "2015-10-24 18:33:41 +0000";
layers = (
{
layerId = "139F617A-DF90-4219-9825-66026F124FCC";
name = Light;
paths = (
{
closed = 1;
nodes = (
"549 644 LINE",
"453 644 LINE",
"152 325 LINE",
"152 644 LINE",
"70 644 LINE",
"70 0 LINE",
"152 0 LINE",
"152 222 LINE",
"257 333 LINE",
"469 0 LINE",
"557 0 LINE",
"309 386 LINE"
);
}
);
width = 607;
}
);
leftKerningGroup = K;
note = K;
rightKerningGroup = K;
unicode = 004B;
},
{
glyphname = Kcommaaccent;
lastChange = "2015-10-24 18:33:42 +0000";
layers = (
{
layerId = "139F617A-DF90-4219-9825-66026F124FCC";
name = Light;
paths = (
{
closed = 1;
nodes = (
"549 644 LINE",
"453 644 LINE",
"152 325 LINE",
"152 644 LINE",
"70 644 LINE",
"70 0 LINE",
"152 0 LINE",
"152 222 LINE",
"257 333 LINE",
"469 0 LINE",
"557 0 LINE",
"309 386 LINE"
);
},
{
closed = 1;
nodes = (
"307 -214 LINE",
"349 -37 LINE",
"275 -37 LINE",
"247 -214 LINE"
);
}
);
width = 607;
}
);
leftKerningGroup = K;
note = Kcommaaccent;
rightKerningGroup = K;
unicode = 0136;
},
{
glyphname = L;
lastChange = "2015-10-24 18:33:42 +0000";
layers = (
{
layerId = "139F617A-DF90-4219-9825-66026F124FCC";
name = Light;
paths = (
{
closed = 1;
nodes = (
"152 644 LINE",
"70 644 LINE",
"70 0 LINE",
"495 0 LINE",
"495 64 LINE",
"152 64 LINE"
);
}
);
width = 525;
}
);
note = L;
rightKerningGroup = L;
unicode = 004C;
},
{
glyphname = Lacute;
lastChange = "2015-10-24 18:33:42 +0000";
layers = (
{
layerId = "139F617A-DF90-4219-9825-66026F124FCC";
name = Light;
paths = (
{
closed = 1;
nodes = (
"152 644 LINE",
"70 644 LINE",
"70 0 LINE",
"495 0 LINE",
"495 64 LINE",
"152 64 LINE"
);
},
{
closed = 1;
nodes = (
"136 688 LINE",
"215 856 LINE",
"141 856 LINE",
"70 688 LINE"
);
}
);
width = 525;
}
);
note = Lacute;
rightKerningGroup = L;
unicode = 0139;
},
{
glyphname = Lcaron;
lastChange = "2015-10-24 18:33:42 +0000";
layers = (
{
layerId = "139F617A-DF90-4219-9825-66026F124FCC";
name = Light;
paths = (
{
closed = 1;
nodes = (
"152 644 LINE",
"70 644 LINE",
"70 0 LINE",
"495 0 LINE",
"495 64 LINE",
"152 64 LINE"
);
},
{
closed = 1;
nodes = (
"361 568 LINE",
"403 745 LINE",
"329 745 LINE",
"301 568 LINE"
);
}
);
width = 525;
}
);
note = Lcaron;
rightKerningGroup = L;
unicode = 013D;
},
{
glyphname = Lcommaaccent;
lastChange = "2015-10-24 18:33:41 +0000";
layers = (
{
layerId = "139F617A-DF90-4219-9825-66026F124FCC";
name = Light;
paths = (
{
closed = 1;
nodes = (
"152 644 LINE",
"70 644 LINE",
"70 0 LINE",
"495 0 LINE",
"495 64 LINE",
"152 64 LINE"
);
},
{
closed = 1;
nodes = (
"281 -214 LINE",
"323 -37 LINE",
"249 -37 LINE",
"221 -214 LINE"
);
}
);
width = 525;
}
);
note = Lcommaaccent;
rightKerningGroup = L;
unicode = 013B;
},
{
glyphname = Ldot;
lastChange = "2015-10-24 18:33:42 +0000";
layers = (
{
layerId = "139F617A-DF90-4219-9825-66026F124FCC";
name = Light;
paths = (
{
closed = 1;
nodes = (
"152 644 LINE",
"70 644 LINE",
"70 0 LINE",
"495 0 LINE",
"495 64 LINE",
"152 64 LINE"
);
},
{
closed = 1;
nodes = (
"404 259 LINE",
"404 336 LINE",
"324 336 LINE",
"324 259 LINE"
);
}
);
width = 525;
}
);
note = Ldot;
rightKerningGroup = L;
unicode = 013F;
},
{
glyphname = Ldotbelow;
lastChange = "2015-11-24 10:22:55 +0000";
layers = (
{
layerId = "139F617A-DF90-4219-9825-66026F124FCC";
name = Light;
paths = (
{
closed = 1;
nodes = (
"152 644 LINE",
"70 644 LINE",
"70 0 LINE",
"495 0 LINE",
"495 64 LINE",
"152 64 LINE"
);
},
{
closed = 1;
nodes = (
"315 -164 LINE",
"315 -87 LINE",
"235 -87 LINE",
"235 -164 LINE"
);
}
);
width = 525;
}
);
note = Ldotbelow;
rightKerningGroup = L;
unicode = 1E36;
},
{
glyphname = Ldotbelowmacron;
lastChange = "2015-11-24 10:22:53 +0000";
layers = (
{
layerId = "139F617A-DF90-4219-9825-66026F124FCC";
name = Light;
paths = (
{
closed = 1;
nodes = (
"152 644 LINE",
"70 644 LINE",
"70 0 LINE",
"495 0 LINE",
"495 64 LINE",
"152 64 LINE"
);
},
{
closed = 1;
nodes = (
"315 -164 LINE",
"315 -87 LINE",
"235 -87 LINE",
"235 -164 LINE"
);
},
{
closed = 1;
nodes = (
"-30 776 LINE",
"-30 717 LINE",
"258 717 LINE",
"258 776 LINE"
);
}
);
width = 525;
}
);
note = Ldotbelowmacron;
rightKerningGroup = L;
unicode = 1E38;
},
{
glyphname = Llinebelow;
lastChange = "2015-10-24 18:33:42 +0000";
layers = (
{
layerId = "139F617A-DF90-4219-9825-66026F124FCC";
name = Light;
paths = (
{
closed = 1;
nodes = (
"152 644 LINE",
"70 644 LINE",
"70 0 LINE",
"495 0 LINE",
"495 64 LINE",
"152 64 LINE"
);
},
{
closed = 1;
nodes = (
"123 -73 LINE",
"123 -132 LINE",
"411 -132 LINE",
"411 -73 LINE"
);
}
);
width = 525;
}
);
note = Llinebelow;
rightKerningGroup = L;
unicode = 1E3A;
},
{
glyphname = Lslash;
lastChange = "2015-10-24 18:33:41 +0000";
layers = (
{
layerId = "139F617A-DF90-4219-9825-66026F124FCC";
name = Light;
paths = (
{
closed = 1;
nodes = (
"-30 305 LINE",
"-30 234 LINE",
"286 373 LINE",
"286 444 LINE"
);
},
{
closed = 1;
nodes = (
"152 644 LINE",
"70 644 LINE",
"70 0 LINE",
"495 0 LINE",
"495 64 LINE",
"152 64 LINE"
);
}
);
width = 525;
}
);
note = Lslash;
rightKerningGroup = L;
unicode = 0141;
},
{
glyphname = M;
lastChange = "2015-10-24 18:33:41 +0000";
layers = (
{
layerId = "139F617A-DF90-4219-9825-66026F124FCC";
name = Light;
paths = (
{
closed = 1;
nodes = (
"404 112 LINE",
"601 516 LINE",
"601 0 LINE",
"682 0 LINE",
"682 644 LINE",
"594 644 LINE",
"376 197 LINE",
"158 644 LINE",
"70 644 LINE",
"70 0 LINE",
"151 0 LINE",
"151 516 LINE",
"349 112 LINE"
);
}
);
width = 752;
}
);
note = M;
unicode = 004D;
},
{
glyphname = Mdotbelow;
lastChange = "2015-10-24 18:33:41 +0000";
layers = (
{
layerId = "139F617A-DF90-4219-9825-66026F124FCC";
name = Light;
paths = (
{
closed = 1;
nodes = (
"404 112 LINE",
"601 516 LINE",
"601 0 LINE",
"682 0 LINE",
"682 644 LINE",
"594 644 LINE",
"376 197 LINE",
"158 644 LINE",
"70 644 LINE",
"70 0 LINE",
"151 0 LINE",
"151 516 LINE",
"349 112 LINE"
);
},
{
closed = 1;
nodes = (
"416 -164 LINE",
"416 -87 LINE",
"336 -87 LINE",
"336 -164 LINE"
);
}
);
width = 752;
}
);
note = Mdotbelow;
unicode = 1E42;
},
{
glyphname = N;
lastChange = "2015-10-24 18:33:41 +0000";
layers = (
{
layerId = "139F617A-DF90-4219-9825-66026F124FCC";
name = Light;
paths = (
{
closed = 1;
nodes = (
"518 0 LINE",
"593 0 LINE",
"593 644 LINE",
"511 644 LINE",
"511 126 LINE",
"144 644 LINE",
"70 644 LINE",
"70 0 LINE",
"152 0 LINE",
"152 517 LINE"
);
}
);
width = 663;
}
);
note = N;
unicode = 004E;
},
{
glyphname = Nacute;
lastChange = "2015-10-24 18:33:41 +0000";
layers = (
{
layerId = "139F617A-DF90-4219-9825-66026F124FCC";
name = Light;
paths = (
{
closed = 1;
nodes = (
"518 0 LINE",
"593 0 LINE",
"593 644 LINE",
"511 644 LINE",
"511 126 LINE",
"144 644 LINE",
"70 644 LINE",
"70 0 LINE",
"152 0 LINE",
"152 517 LINE"
);
},
{
closed = 1;
nodes = (
"362 688 LINE",
"441 856 LINE",
"367 856 LINE",
"296 688 LINE"
);
}
);
width = 663;
}
);
note = Nacute;
unicode = 0143;
},
{
glyphname = Ncaron;
lastChange = "2015-10-24 18:33:41 +0000";
layers = (
{
layerId = "139F617A-DF90-4219-9825-66026F124FCC";
name = Light;
paths = (
{
closed = 1;
nodes = (
"518 0 LINE",
"593 0 LINE",
"593 644 LINE",
"511 644 LINE",
"511 126 LINE",
"144 644 LINE",
"70 644 LINE",
"70 0 LINE",
"152 0 LINE",
"152 517 LINE"
);
},
{
closed = 1;
nodes = (
"494 836 LINE",
"423 836 LINE",
"346 734 LINE",
"269 836 LINE",
"198 836 LINE",
"313 688 LINE",
"379 688 LINE"
);
}
);
width = 663;
}
);
note = Ncaron;
unicode = 0147;
},
{
glyphname = Ncommaaccent;
lastChange = "2015-10-24 18:33:41 +0000";
layers = (
{
layerId = "139F617A-DF90-4219-9825-66026F124FCC";
name = Light;
paths = (
{
closed = 1;
nodes = (
"518 0 LINE",
"593 0 LINE",
"593 644 LINE",
"511 644 LINE",
"511 126 LINE",
"144 644 LINE",
"70 644 LINE",
"70 0 LINE",
"152 0 LINE",
"152 517 LINE"
);
},
{
closed = 1;
nodes = (
"339 -214 LINE",
"381 -37 LINE",
"307 -37 LINE",
"279 -214 LINE"
);
}
);
width = 663;
}
);
note = Ncommaaccent;
unicode = 0145;
},
{
glyphname = Ndotaccent;
lastChange = "2015-10-24 18:33:42 +0000";
layers = (
{
layerId = "139F617A-DF90-4219-9825-66026F124FCC";
name = Light;
paths = (
{
closed = 1;
nodes = (
"518 0 LINE",
"593 0 LINE",
"593 644 LINE",
"511 644 LINE",
"511 126 LINE",
"144 644 LINE",
"70 644 LINE",
"70 0 LINE",
"152 0 LINE",
"152 517 LINE"
);
},
{
closed = 1;
nodes = (
"385 710 LINE",
"385 787 LINE",
"305 787 LINE",
"305 710 LINE"
);
}
);
width = 663;
}
);
note = Ndotaccent;
unicode = 1E44;
},
{
glyphname = Ndotbelow;
lastChange = "2015-10-24 18:33:41 +0000";
layers = (
{
layerId = "139F617A-DF90-4219-9825-66026F124FCC";
name = Light;
paths = (
{
closed = 1;
nodes = (
"518 0 LINE",
"593 0 LINE",
"593 644 LINE",
"511 644 LINE",
"511 126 LINE",
"144 644 LINE",
"70 644 LINE",
"70 0 LINE",
"152 0 LINE",
"152 517 LINE"
);
},
{
closed = 1;
nodes = (
"371 -164 LINE",
"371 -87 LINE",
"291 -87 LINE",
"291 -164 LINE"
);
}
);
width = 663;
}
);
note = Ndotbelow;
unicode = 1E46;
},
{
glyphname = Eng;
lastChange = "2015-10-24 18:33:41 +0000";
layers = (
{
layerId = "139F617A-DF90-4219-9825-66026F124FCC";
name = Light;
paths = (
{
closed = 1;
nodes = (
"511 644 LINE",
"511 126 LINE",
"144 644 LINE",
"70 644 LINE",
"70 0 LINE",
"152 0 LINE",
"152 517 LINE",
"511 10 LINE",
"511 -87 LINE SMOOTH",
"511 -143 OFFCURVE",
"492 -165 OFFCURVE",
"420 -165 CURVE SMOOTH",
"403 -165 OFFCURVE",
"381 -162 OFFCURVE",
"359 -155 CURVE",
"359 -220 LINE",
"384 -229 OFFCURVE",
"415 -234 OFFCURVE",
"448 -234 CURVE SMOOTH",
"542 -234 OFFCURVE",
"593 -180 OFFCURVE",
"593 -94 CURVE SMOOTH",
"593 644 LINE"
);
}
);
width = 663;
}
);
note = Eng;
unicode = 014A;
},
{
glyphname = Nlinebelow;
lastChange = "2015-10-24 18:33:42 +0000";
layers = (
{
layerId = "139F617A-DF90-4219-9825-66026F124FCC";
name = Light;
paths = (
{
closed = 1;
nodes = (
"518 0 LINE",
"593 0 LINE",
"593 644 LINE",
"511 644 LINE",
"511 126 LINE",
"144 644 LINE",
"70 644 LINE",
"70 0 LINE",
"152 0 LINE",
"152 517 LINE"
);
},
{
closed = 1;
nodes = (
"193 -71 LINE",
"193 -130 LINE",
"481 -130 LINE",
"481 -71 LINE"
);
}
);
width = 663;
}
);
note = Nlinebelow;
unicode = 1E48;
},
{
glyphname = Ntilde;
lastChange = "2015-10-24 18:33:41 +0000";
layers = (
{
layerId = "139F617A-DF90-4219-9825-66026F124FCC";
name = Light;
paths = (
{
closed = 1;
nodes = (
"518 0 LINE",
"593 0 LINE",
"593 644 LINE",
"511 644 LINE",
"511 126 LINE",
"144 644 LINE",
"70 644 LINE",
"70 0 LINE",
"152 0 LINE",
"152 517 LINE"
);
},
{
closed = 1;
nodes = (
"438 708 OFFCURVE",
"468 720 OFFCURVE",
"481 738 CURVE",
"481 802 LINE",
"463 777 OFFCURVE",
"438 766 OFFCURVE",
"404 766 CURVE SMOOTH",
"355 766 OFFCURVE",
"315 804 OFFCURVE",
"260 804 CURVE SMOOTH",
"229 804 OFFCURVE",
"193 792 OFFCURVE",
"177 774 CURVE",
"177 711 LINE",
"199 737 OFFCURVE",
"228 746 OFFCURVE",
"260 746 CURVE SMOOTH",
"303 746 OFFCURVE",
"352 708 OFFCURVE",
"404 708 CURVE SMOOTH"
);
}
);
width = 663;
}
);
note = Ntilde;
unicode = 00D1;
},
{
glyphname = O;
lastChange = "2015-10-24 18:33:42 +0000";
layers = (
{
layerId = "139F617A-DF90-4219-9825-66026F124FCC";
name = Light;
paths = (
{
closed = 1;
nodes = (
"644 553 OFFCURVE",
"549 654 OFFCURVE",
"347 654 CURVE SMOOTH",
"146 654 OFFCURVE",
"50 553 OFFCURVE",
"50 322 CURVE SMOOTH",
"50 91 OFFCURVE",
"146 -10 OFFCURVE",
"347 -10 CURVE SMOOTH",
"549 -10 OFFCURVE",
"644 91 OFFCURVE",
"644 322 CURVE SMOOTH"
);
},
{
closed = 1;
nodes = (
"562 128 OFFCURVE",
"493 60 OFFCURVE",
"347 60 CURVE SMOOTH",
"201 60 OFFCURVE",
"132 128 OFFCURVE",
"132 322 CURVE SMOOTH",
"132 516 OFFCURVE",
"201 584 OFFCURVE",
"347 584 CURVE SMOOTH",
"493 584 OFFCURVE",
"562 516 OFFCURVE",
"562 322 CURVE SMOOTH"
);
}
);
width = 694;
}
);
leftKerningGroup = O;
note = O;
rightKerningGroup = O;
unicode = 004F;
},
{
glyphname = Oacute;
lastChange = "2015-10-24 18:33:41 +0000";
layers = (
{
layerId = "139F617A-DF90-4219-9825-66026F124FCC";
name = Light;
paths = (
{
closed = 1;
nodes = (
"644 553 OFFCURVE",
"549 654 OFFCURVE",
"347 654 CURVE SMOOTH",
"146 654 OFFCURVE",
"50 553 OFFCURVE",
"50 322 CURVE SMOOTH",
"50 91 OFFCURVE",
"146 -10 OFFCURVE",
"347 -10 CURVE SMOOTH",
"549 -10 OFFCURVE",
"644 91 OFFCURVE",
"644 322 CURVE SMOOTH"
);
},
{
closed = 1;
nodes = (
"562 128 OFFCURVE",
"493 60 OFFCURVE",
"347 60 CURVE SMOOTH",
"201 60 OFFCURVE",
"132 128 OFFCURVE",
"132 322 CURVE SMOOTH",
"132 516 OFFCURVE",
"201 584 OFFCURVE",
"347 584 CURVE SMOOTH",
"493 584 OFFCURVE",
"562 516 OFFCURVE",
"562 322 CURVE SMOOTH"
);
},
{
closed = 1;
nodes = (
"378 688 LINE",
"457 856 LINE",
"383 856 LINE",
"312 688 LINE"
);
}
);
width = 694;
}
);
leftKerningGroup = O;
note = Oacute;
rightKerningGroup = O;
unicode = 00D3;
},
{
glyphname = Obreve;
lastChange = "2015-10-24 18:33:41 +0000";
layers = (
{
layerId = "139F617A-DF90-4219-9825-66026F124FCC";
name = Light;
paths = (
{
closed = 1;
nodes = (
"644 553 OFFCURVE",
"549 654 OFFCURVE",
"347 654 CURVE SMOOTH",
"146 654 OFFCURVE",
"50 553 OFFCURVE",
"50 322 CURVE SMOOTH",
"50 91 OFFCURVE",
"146 -10 OFFCURVE",
"347 -10 CURVE SMOOTH",
"549 -10 OFFCURVE",
"644 91 OFFCURVE",
"644 322 CURVE SMOOTH"
);
},
{
closed = 1;
nodes = (
"562 128 OFFCURVE",
"493 60 OFFCURVE",
"347 60 CURVE SMOOTH",
"201 60 OFFCURVE",
"132 128 OFFCURVE",
"132 322 CURVE SMOOTH",
"132 516 OFFCURVE",
"201 584 OFFCURVE",
"347 584 CURVE SMOOTH",
"493 584 OFFCURVE",
"562 516 OFFCURVE",
"562 322 CURVE SMOOTH"
);
},
{
closed = 1;
nodes = (
"220 814 LINE",
"220 739 OFFCURVE",
"263 688 OFFCURVE",
"346 688 CURVE SMOOTH",
"430 688 OFFCURVE",
"474 739 OFFCURVE",
"474 814 CURVE",
"416 814 LINE",
"416 763 OFFCURVE",
"390 740 OFFCURVE",
"346 740 CURVE SMOOTH",
"304 740 OFFCURVE",
"278 763 OFFCURVE",
"278 814 CURVE"
);
}
);
width = 694;
}
);
leftKerningGroup = O;
note = Obreve;
rightKerningGroup = O;
unicode = 014E;
},
{
glyphname = Ocaron;
lastChange = "2015-10-24 18:33:41 +0000";
layers = (
{
layerId = "139F617A-DF90-4219-9825-66026F124FCC";
name = Light;
paths = (
{
closed = 1;
nodes = (
"644 553 OFFCURVE",
"549 654 OFFCURVE",
"347 654 CURVE SMOOTH",
"146 654 OFFCURVE",
"50 553 OFFCURVE",
"50 322 CURVE SMOOTH",
"50 91 OFFCURVE",
"146 -10 OFFCURVE",
"347 -10 CURVE SMOOTH",
"549 -10 OFFCURVE",
"644 91 OFFCURVE",
"644 322 CURVE SMOOTH"
);
},
{
closed = 1;
nodes = (
"562 128 OFFCURVE",
"493 60 OFFCURVE",
"347 60 CURVE SMOOTH",
"201 60 OFFCURVE",
"132 128 OFFCURVE",
"132 322 CURVE SMOOTH",
"132 516 OFFCURVE",
"201 584 OFFCURVE",
"347 584 CURVE SMOOTH",
"493 584 OFFCURVE",
"562 516 OFFCURVE",
"562 322 CURVE SMOOTH"
);
},
{
closed = 1;
nodes = (
"495 836 LINE",
"424 836 LINE",
"347 734 LINE",
"270 836 LINE",
"199 836 LINE",
"314 688 LINE",
"380 688 LINE"
);
}
);
width = 694;
}
);
leftKerningGroup = O;
note = Ocaron;
rightKerningGroup = O;
unicode = 01D1;
},
{
glyphname = Ocircumflex;
lastChange = "2015-10-24 18:33:41 +0000";
layers = (
{
layerId = "139F617A-DF90-4219-9825-66026F124FCC";
name = Light;
paths = (
{
closed = 1;
nodes = (
"644 553 OFFCURVE",
"549 654 OFFCURVE",
"347 654 CURVE SMOOTH",
"146 654 OFFCURVE",
"50 553 OFFCURVE",
"50 322 CURVE SMOOTH",
"50 91 OFFCURVE",
"146 -10 OFFCURVE",
"347 -10 CURVE SMOOTH",
"549 -10 OFFCURVE",
"644 91 OFFCURVE",
"644 322 CURVE SMOOTH"
);
},
{
closed = 1;
nodes = (
"562 128 OFFCURVE",
"493 60 OFFCURVE",
"347 60 CURVE SMOOTH",
"201 60 OFFCURVE",
"132 128 OFFCURVE",
"132 322 CURVE SMOOTH",
"132 516 OFFCURVE",
"201 584 OFFCURVE",
"347 584 CURVE SMOOTH",
"493 584 OFFCURVE",
"562 516 OFFCURVE",
"562 322 CURVE SMOOTH"
);
},
{
closed = 1;
nodes = (
"380 836 LINE",
"314 836 LINE",
"199 688 LINE",
"270 688 LINE",
"347 790 LINE",
"424 688 LINE",
"495 688 LINE"
);
}
);
width = 694;
}
);
leftKerningGroup = O;
note = Ocircumflex;
rightKerningGroup = O;
unicode = 00D4;
},
{
glyphname = Ocircumflexacute;
lastChange = "2015-10-24 18:33:41 +0000";
layers = (
{
layerId = "139F617A-DF90-4219-9825-66026F124FCC";
name = Light;
paths = (
{
closed = 1;
nodes = (
"644 553 OFFCURVE",
"549 654 OFFCURVE",
"347 654 CURVE SMOOTH",
"146 654 OFFCURVE",
"50 553 OFFCURVE",
"50 322 CURVE SMOOTH",
"50 91 OFFCURVE",
"146 -10 OFFCURVE",
"347 -10 CURVE SMOOTH",
"549 -10 OFFCURVE",
"644 91 OFFCURVE",
"644 322 CURVE SMOOTH"
);
},
{
closed = 1;
nodes = (
"562 128 OFFCURVE",
"493 60 OFFCURVE",
"347 60 CURVE SMOOTH",
"201 60 OFFCURVE",
"132 128 OFFCURVE",
"132 322 CURVE SMOOTH",
"132 516 OFFCURVE",
"201 584 OFFCURVE",
"347 584 CURVE SMOOTH",
"493 584 OFFCURVE",
"562 516 OFFCURVE",
"562 322 CURVE SMOOTH"
);
},
{
closed = 1;
nodes = (
"384 806 LINE",
"318 806 LINE",
"207 688 LINE",
"277 688 LINE",
"351 771 LINE",
"426 688 LINE",
"495 688 LINE"
);
},
{
closed = 1;
nodes = (
"490 797 LINE",
"558 922 LINE",
"493 922 LINE",
"431 797 LINE"
);
}
);
width = 694;
}
);
leftKerningGroup = O;
note = Ocircumflexacute;
rightKerningGroup = O;
unicode = 1ED0;
},
{
glyphname = Ocircumflexdotbelow;
lastChange = "2015-10-24 18:33:42 +0000";
layers = (
{
layerId = "139F617A-DF90-4219-9825-66026F124FCC";
name = Light;
paths = (
{
closed = 1;
nodes = (
"644 553 OFFCURVE",
"549 654 OFFCURVE",
"347 654 CURVE SMOOTH",
"146 654 OFFCURVE",
"50 553 OFFCURVE",
"50 322 CURVE SMOOTH",
"50 91 OFFCURVE",
"146 -10 OFFCURVE",
"347 -10 CURVE SMOOTH",
"549 -10 OFFCURVE",
"644 91 OFFCURVE",
"644 322 CURVE SMOOTH"
);
},
{
closed = 1;
nodes = (
"562 128 OFFCURVE",
"493 60 OFFCURVE",
"347 60 CURVE SMOOTH",
"201 60 OFFCURVE",
"132 128 OFFCURVE",
"132 322 CURVE SMOOTH",
"132 516 OFFCURVE",
"201 584 OFFCURVE",
"347 584 CURVE SMOOTH",
"493 584 OFFCURVE",
"562 516 OFFCURVE",
"562 322 CURVE SMOOTH"
);
},
{
closed = 1;
nodes = (
"380 836 LINE",
"314 836 LINE",
"199 688 LINE",
"270 688 LINE",
"347 790 LINE",
"424 688 LINE",
"495 688 LINE"
);
},
{
closed = 1;
nodes = (
"387 -164 LINE",
"387 -87 LINE",
"307 -87 LINE",
"307 -164 LINE"
);
}
);
width = 694;
}
);
leftKerningGroup = O;
note = Ocircumflexdotbelow;
rightKerningGroup = O;
unicode = 1ED8;
},
{
glyphname = Ocircumflexgrave;
lastChange = "2015-10-24 18:33:42 +0000";
layers = (
{
layerId = "139F617A-DF90-4219-9825-66026F124FCC";
name = Light;
paths = (
{
closed = 1;
nodes = (
"644 553 OFFCURVE",
"549 654 OFFCURVE",
"347 654 CURVE SMOOTH",
"146 654 OFFCURVE",
"50 553 OFFCURVE",
"50 322 CURVE SMOOTH",
"50 91 OFFCURVE",
"146 -10 OFFCURVE",
"347 -10 CURVE SMOOTH",
"549 -10 OFFCURVE",
"644 91 OFFCURVE",
"644 322 CURVE SMOOTH"
);
},
{
closed = 1;
nodes = (
"562 128 OFFCURVE",
"493 60 OFFCURVE",
"347 60 CURVE SMOOTH",
"201 60 OFFCURVE",
"132 128 OFFCURVE",
"132 322 CURVE SMOOTH",
"132 516 OFFCURVE",
"201 584 OFFCURVE",
"347 584 CURVE SMOOTH",
"493 584 OFFCURVE",
"562 516 OFFCURVE",
"562 322 CURVE SMOOTH"
);
},
{
closed = 1;
nodes = (
"191 688 LINE",
"260 688 LINE",
"335 771 LINE",
"409 688 LINE",
"479 688 LINE",
"368 806 LINE",
"302 806 LINE"
);
},
{
closed = 1;
nodes = (
"255 797 LINE",
"193 922 LINE",
"128 922 LINE",
"196 797 LINE"
);
}
);
width = 694;
}
);
leftKerningGroup = O;
note = Ocircumflexgrave;
rightKerningGroup = O;
unicode = 1ED2;
},
{
glyphname = Ocircumflexhookabove;
lastChange = "2015-10-24 18:33:41 +0000";
layers = (
{
layerId = "139F617A-DF90-4219-9825-66026F124FCC";
name = Light;
paths = (
{
closed = 1;
nodes = (
"644 553 OFFCURVE",
"549 654 OFFCURVE",
"347 654 CURVE SMOOTH",
"146 654 OFFCURVE",
"50 553 OFFCURVE",
"50 322 CURVE SMOOTH",
"50 91 OFFCURVE",
"146 -10 OFFCURVE",
"347 -10 CURVE SMOOTH",
"549 -10 OFFCURVE",
"644 91 OFFCURVE",
"644 322 CURVE SMOOTH"
);
},
{
closed = 1;
nodes = (
"562 128 OFFCURVE",
"493 60 OFFCURVE",
"347 60 CURVE SMOOTH",
"201 60 OFFCURVE",
"132 128 OFFCURVE",
"132 322 CURVE SMOOTH",
"132 516 OFFCURVE",
"201 584 OFFCURVE",
"347 584 CURVE SMOOTH",
"493 584 OFFCURVE",
"562 516 OFFCURVE",
"562 322 CURVE SMOOTH"
);
},
{
closed = 1;
nodes = (
"202 688 LINE",
"272 688 LINE",
"346 771 LINE",
"421 688 LINE",
"490 688 LINE",
"379 806 LINE",
"313 806 LINE"
);
},
{
closed = 1;
nodes = (
"574 932 OFFCURVE",
"538 960 OFFCURVE",
"478 960 CURVE SMOOTH",
"448 960 OFFCURVE",
"425 955 OFFCURVE",
"407 948 CURVE",
"407 905 LINE",
"423 912 OFFCURVE",
"441 917 OFFCURVE",
"464 917 CURVE SMOOTH",
"498 917 OFFCURVE",
"514 906 OFFCURVE",
"514 881 CURVE SMOOTH",
"514 855 OFFCURVE",
"501 842 OFFCURVE",
"434 839 CURVE",
"434 776 LINE",
"495 776 LINE",
"495 811 LINE",
"550 818 OFFCURVE",
"574 842 OFFCURVE",
"574 885 CURVE SMOOTH"
);
}
);
width = 694;
}
);
leftKerningGroup = O;
note = Ocircumflexhookabove;
rightKerningGroup = O;
unicode = 1ED4;
},
{
glyphname = Ocircumflextilde;
lastChange = "2015-10-24 18:33:41 +0000";
layers = (
{
layerId = "139F617A-DF90-4219-9825-66026F124FCC";
name = Light;
paths = (
{
closed = 1;
nodes = (
"644 553 OFFCURVE",
"549 654 OFFCURVE",
"347 654 CURVE SMOOTH",
"146 654 OFFCURVE",
"50 553 OFFCURVE",
"50 322 CURVE SMOOTH",
"50 91 OFFCURVE",
"146 -10 OFFCURVE",
"347 -10 CURVE SMOOTH",
"549 -10 OFFCURVE",
"644 91 OFFCURVE",
"644 322 CURVE SMOOTH"
);
},
{
closed = 1;
nodes = (
"562 128 OFFCURVE",
"493 60 OFFCURVE",
"347 60 CURVE SMOOTH",
"201 60 OFFCURVE",
"132 128 OFFCURVE",
"132 322 CURVE SMOOTH",
"132 516 OFFCURVE",
"201 584 OFFCURVE",
"347 584 CURVE SMOOTH",
"493 584 OFFCURVE",
"562 516 OFFCURVE",
"562 322 CURVE SMOOTH"
);
},
{
closed = 1;
nodes = (
"290 736 OFFCURVE",
"252 766 OFFCURVE",
"252 828 CURVE",
"200 828 LINE",
"200 726 OFFCURVE",
"267 688 OFFCURVE",
"347 688 CURVE SMOOTH",
"427 688 OFFCURVE",
"494 726 OFFCURVE",
"494 828 CURVE",
"442 828 LINE",
"442 766 OFFCURVE",
"404 736 OFFCURVE",
"347 736 CURVE SMOOTH"
);
},
{
closed = 1;
nodes = (
"448 849 OFFCURVE",
"476 860 OFFCURVE",
"488 876 CURVE",
"488 933 LINE",
"471 910 OFFCURVE",
"448 900 OFFCURVE",
"417 900 CURVE SMOOTH",
"372 900 OFFCURVE",
"335 935 OFFCURVE",
"284 935 CURVE SMOOTH",
"256 935 OFFCURVE",
"223 924 OFFCURVE",
"208 908 CURVE",
"208 852 LINE",
"228 876 OFFCURVE",
"255 884 OFFCURVE",
"284 884 CURVE SMOOTH",
"324 884 OFFCURVE",
"369 849 OFFCURVE",
"417 849 CURVE SMOOTH"
);
}
);
width = 694;
}
);
leftKerningGroup = O;
note = Ocircumflextilde;
rightKerningGroup = O;
unicode = 1ED6;
},
{
glyphname = Odieresis;
lastChange = "2015-10-24 18:33:41 +0000";
layers = (
{
layerId = "139F617A-DF90-4219-9825-66026F124FCC";
name = Light;
paths = (
{
closed = 1;
nodes = (
"644 553 OFFCURVE",
"549 654 OFFCURVE",
"347 654 CURVE SMOOTH",
"146 654 OFFCURVE",
"50 553 OFFCURVE",
"50 322 CURVE SMOOTH",
"50 91 OFFCURVE",
"146 -10 OFFCURVE",
"347 -10 CURVE SMOOTH",
"549 -10 OFFCURVE",
"644 91 OFFCURVE",
"644 322 CURVE SMOOTH"
);
},
{
closed = 1;
nodes = (
"562 128 OFFCURVE",
"493 60 OFFCURVE",
"347 60 CURVE SMOOTH",
"201 60 OFFCURVE",
"132 128 OFFCURVE",
"132 322 CURVE SMOOTH",
"132 516 OFFCURVE",
"201 584 OFFCURVE",
"347 584 CURVE SMOOTH",
"493 584 OFFCURVE",
"562 516 OFFCURVE",
"562 322 CURVE SMOOTH"
);
},
{
closed = 1;
nodes = (
"298 711 LINE",
"298 786 LINE",
"220 786 LINE",
"220 711 LINE"
);
},
{
closed = 1;
nodes = (
"474 711 LINE",
"474 786 LINE",
"396 786 LINE",
"396 711 LINE"
);
}
);
width = 694;
}
);
leftKerningGroup = O;
note = Odieresis;
rightKerningGroup = O;
unicode = 00D6;
},
{
glyphname = Odotbelow;
lastChange = "2015-10-24 18:33:41 +0000";
layers = (
{
layerId = "139F617A-DF90-4219-9825-66026F124FCC";
name = Light;
paths = (
{
closed = 1;
nodes = (
"644 553 OFFCURVE",
"549 654 OFFCURVE",
"347 654 CURVE SMOOTH",
"146 654 OFFCURVE",
"50 553 OFFCURVE",
"50 322 CURVE SMOOTH",
"50 91 OFFCURVE",
"146 -10 OFFCURVE",
"347 -10 CURVE SMOOTH",
"549 -10 OFFCURVE",
"644 91 OFFCURVE",
"644 322 CURVE SMOOTH"
);
},
{
closed = 1;
nodes = (
"562 128 OFFCURVE",
"493 60 OFFCURVE",
"347 60 CURVE SMOOTH",
"201 60 OFFCURVE",
"132 128 OFFCURVE",
"132 322 CURVE SMOOTH",
"132 516 OFFCURVE",
"201 584 OFFCURVE",
"347 584 CURVE SMOOTH",
"493 584 OFFCURVE",
"562 516 OFFCURVE",
"562 322 CURVE SMOOTH"
);
},
{
closed = 1;
nodes = (
"387 -164 LINE",
"387 -87 LINE",
"307 -87 LINE",
"307 -164 LINE"
);
}
);
width = 694;
}
);
leftKerningGroup = O;
note = Odotbelow;
rightKerningGroup = O;
unicode = 1ECC;
},
{
glyphname = Ograve;
lastChange = "2015-10-24 18:33:41 +0000";
layers = (
{
layerId = "139F617A-DF90-4219-9825-66026F124FCC";
name = Light;
paths = (
{
closed = 1;
nodes = (
"644 553 OFFCURVE",
"549 654 OFFCURVE",
"347 654 CURVE SMOOTH",
"146 654 OFFCURVE",
"50 553 OFFCURVE",
"50 322 CURVE SMOOTH",
"50 91 OFFCURVE",
"146 -10 OFFCURVE",
"347 -10 CURVE SMOOTH",
"549 -10 OFFCURVE",
"644 91 OFFCURVE",
"644 322 CURVE SMOOTH"
);
},
{
closed = 1;
nodes = (
"562 128 OFFCURVE",
"493 60 OFFCURVE",
"347 60 CURVE SMOOTH",
"201 60 OFFCURVE",
"132 128 OFFCURVE",
"132 322 CURVE SMOOTH",
"132 516 OFFCURVE",
"201 584 OFFCURVE",
"347 584 CURVE SMOOTH",
"493 584 OFFCURVE",
"562 516 OFFCURVE",
"562 322 CURVE SMOOTH"
);
},
{
closed = 1;
nodes = (
"386 688 LINE",
"315 856 LINE",
"241 856 LINE",
"320 688 LINE"
);
}
);
width = 694;
}
);
leftKerningGroup = O;
note = Ograve;
rightKerningGroup = O;
unicode = 00D2;
},
{
glyphname = Ohookabove;
lastChange = "2015-10-24 18:33:41 +0000";
layers = (
{
layerId = "139F617A-DF90-4219-9825-66026F124FCC";
name = Light;
paths = (
{
closed = 1;
nodes = (
"644 553 OFFCURVE",
"549 654 OFFCURVE",
"347 654 CURVE SMOOTH",
"146 654 OFFCURVE",
"50 553 OFFCURVE",
"50 322 CURVE SMOOTH",
"50 91 OFFCURVE",
"146 -10 OFFCURVE",
"347 -10 CURVE SMOOTH",
"549 -10 OFFCURVE",
"644 91 OFFCURVE",
"644 322 CURVE SMOOTH"
);
},
{
closed = 1;
nodes = (
"562 128 OFFCURVE",
"493 60 OFFCURVE",
"347 60 CURVE SMOOTH",
"201 60 OFFCURVE",
"132 128 OFFCURVE",
"132 322 CURVE SMOOTH",
"132 516 OFFCURVE",
"201 584 OFFCURVE",
"347 584 CURVE SMOOTH",
"493 584 OFFCURVE",
"562 516 OFFCURVE",
"562 322 CURVE SMOOTH"
);
},
{
closed = 1;
nodes = (
"471 886 OFFCURVE",
"429 920 OFFCURVE",
"350 920 CURVE SMOOTH",
"321 920 OFFCURVE",
"285 915 OFFCURVE",
"265 907 CURVE",
"265 856 LINE",
"282 863 OFFCURVE",
"310 868 OFFCURVE",
"331 868 CURVE SMOOTH",
"384 868 OFFCURVE",
"409 856 OFFCURVE",
"409 823 CURVE SMOOTH",
"409 788 OFFCURVE",
"394 775 OFFCURVE",
"316 771 CURVE",
"316 688 LINE",
"382 688 LINE",
"382 736 LINE",
"449 745 OFFCURVE",
"471 775 OFFCURVE",
"471 829 CURVE SMOOTH"
);
}
);
width = 694;
}
);
leftKerningGroup = O;
note = Ohookabove;
rightKerningGroup = O;
unicode = 1ECE;
},
{
glyphname = Ohorn;
lastChange = "2015-10-24 18:33:42 +0000";
layers = (
{
layerId = "139F617A-DF90-4219-9825-66026F124FCC";
name = Light;
paths = (
{
closed = 1;
nodes = (
"644 399 OFFCURVE",
"633 461 OFFCURVE",
"612 510 CURVE",
"695 521 OFFCURVE",
"740 569 OFFCURVE",
"740 688 CURVE",
"669 688 LINE",
"669 600 OFFCURVE",
"648 575 OFFCURVE",
"572 574 CURVE",
"523 628 OFFCURVE",
"448 654 OFFCURVE",
"347 654 CURVE SMOOTH",
"146 654 OFFCURVE",
"50 553 OFFCURVE",
"50 322 CURVE SMOOTH",
"50 91 OFFCURVE",
"146 -10 OFFCURVE",
"347 -10 CURVE SMOOTH",
"549 -10 OFFCURVE",
"644 91 OFFCURVE",
"644 322 CURVE SMOOTH"
);
},
{
closed = 1;
nodes = (
"562 128 OFFCURVE",
"493 60 OFFCURVE",
"347 60 CURVE SMOOTH",
"201 60 OFFCURVE",
"132 128 OFFCURVE",
"132 322 CURVE SMOOTH",
"132 516 OFFCURVE",
"201 584 OFFCURVE",
"347 584 CURVE SMOOTH",
"493 584 OFFCURVE",
"562 516 OFFCURVE",
"562 322 CURVE SMOOTH"
);
}
);
width = 760;
}
);
leftKerningGroup = O;
note = Ohorn;
rightKerningGroup = O;
unicode = 01A0;
},
{
glyphname = Ohornacute;
lastChange = "2015-10-24 18:33:41 +0000";
layers = (
{
layerId = "139F617A-DF90-4219-9825-66026F124FCC";
name = Light;
paths = (
{
closed = 1;
nodes = (
"644 399 OFFCURVE",
"633 461 OFFCURVE",
"612 510 CURVE",
"695 521 OFFCURVE",
"740 569 OFFCURVE",
"740 688 CURVE",
"669 688 LINE",
"669 600 OFFCURVE",
"648 575 OFFCURVE",
"572 574 CURVE",
"523 628 OFFCURVE",
"448 654 OFFCURVE",
"347 654 CURVE SMOOTH",
"146 654 OFFCURVE",
"50 553 OFFCURVE",
"50 322 CURVE SMOOTH",
"50 91 OFFCURVE",
"146 -10 OFFCURVE",
"347 -10 CURVE SMOOTH",
"549 -10 OFFCURVE",
"644 91 OFFCURVE",
"644 322 CURVE SMOOTH"
);
},
{
closed = 1;
nodes = (
"562 128 OFFCURVE",
"493 60 OFFCURVE",
"347 60 CURVE SMOOTH",
"201 60 OFFCURVE",
"132 128 OFFCURVE",
"132 322 CURVE SMOOTH",
"132 516 OFFCURVE",
"201 584 OFFCURVE",
"347 584 CURVE SMOOTH",
"493 584 OFFCURVE",
"562 516 OFFCURVE",
"562 322 CURVE SMOOTH"
);
},
{
closed = 1;
nodes = (
"391 688 LINE",
"470 856 LINE",
"396 856 LINE",
"325 688 LINE"
);
}
);
width = 760;
}
);
leftKerningGroup = O;
note = Ohornacute;
rightKerningGroup = O;
unicode = 1EDA;
},
{
glyphname = Ohorndotbelow;
lastChange = "2015-10-24 18:33:42 +0000";
layers = (
{
layerId = "139F617A-DF90-4219-9825-66026F124FCC";
name = Light;
paths = (
{
closed = 1;
nodes = (
"644 399 OFFCURVE",
"633 461 OFFCURVE",
"612 510 CURVE",
"695 521 OFFCURVE",
"740 569 OFFCURVE",
"740 688 CURVE",
"669 688 LINE",
"669 600 OFFCURVE",
"648 575 OFFCURVE",
"572 574 CURVE",
"523 628 OFFCURVE",
"448 654 OFFCURVE",
"347 654 CURVE SMOOTH",
"146 654 OFFCURVE",
"50 553 OFFCURVE",
"50 322 CURVE SMOOTH",
"50 91 OFFCURVE",
"146 -10 OFFCURVE",
"347 -10 CURVE SMOOTH",
"549 -10 OFFCURVE",
"644 91 OFFCURVE",
"644 322 CURVE SMOOTH"
);
},
{
closed = 1;
nodes = (
"562 128 OFFCURVE",
"493 60 OFFCURVE",
"347 60 CURVE SMOOTH",
"201 60 OFFCURVE",
"132 128 OFFCURVE",
"132 322 CURVE SMOOTH",
"132 516 OFFCURVE",
"201 584 OFFCURVE",
"347 584 CURVE SMOOTH",
"493 584 OFFCURVE",
"562 516 OFFCURVE",
"562 322 CURVE SMOOTH"
);
},
{
closed = 1;
nodes = (
"391 -164 LINE",
"391 -87 LINE",
"311 -87 LINE",
"311 -164 LINE"
);
}
);
width = 760;
}
);
leftKerningGroup = O;
note = Ohorndotbelow;
rightKerningGroup = O;
unicode = 1EE2;
},
{
glyphname = Ohorngrave;
lastChange = "2015-10-24 18:33:42 +0000";
layers = (
{
layerId = "139F617A-DF90-4219-9825-66026F124FCC";
name = Light;
paths = (
{
closed = 1;
nodes = (
"644 399 OFFCURVE",
"633 461 OFFCURVE",
"612 510 CURVE",
"695 521 OFFCURVE",
"740 569 OFFCURVE",
"740 688 CURVE",
"669 688 LINE",
"669 600 OFFCURVE",
"648 575 OFFCURVE",
"572 574 CURVE",
"523 628 OFFCURVE",
"448 654 OFFCURVE",
"347 654 CURVE SMOOTH",
"146 654 OFFCURVE",
"50 553 OFFCURVE",
"50 322 CURVE SMOOTH",
"50 91 OFFCURVE",
"146 -10 OFFCURVE",
"347 -10 CURVE SMOOTH",
"549 -10 OFFCURVE",
"644 91 OFFCURVE",
"644 322 CURVE SMOOTH"
);
},
{
closed = 1;
nodes = (
"562 128 OFFCURVE",
"493 60 OFFCURVE",
"347 60 CURVE SMOOTH",
"201 60 OFFCURVE",
"132 128 OFFCURVE",
"132 322 CURVE SMOOTH",
"132 516 OFFCURVE",
"201 584 OFFCURVE",
"347 584 CURVE SMOOTH",
"493 584 OFFCURVE",
"562 516 OFFCURVE",
"562 322 CURVE SMOOTH"
);
},
{
closed = 1;
nodes = (
"397 688 LINE",
"326 856 LINE",
"252 856 LINE",
"331 688 LINE"
);
}
);
width = 760;
}
);
leftKerningGroup = O;
note = Ohorngrave;
rightKerningGroup = O;
unicode = 1EDC;
},
{
glyphname = Ohornhookabove;
lastChange = "2015-10-24 18:33:41 +0000";
layers = (
{
layerId = "139F617A-DF90-4219-9825-66026F124FCC";
name = Light;
paths = (
{
closed = 1;
nodes = (
"644 399 OFFCURVE",
"633 461 OFFCURVE",
"612 510 CURVE",
"695 521 OFFCURVE",
"740 569 OFFCURVE",
"740 688 CURVE",
"669 688 LINE",
"669 600 OFFCURVE",
"648 575 OFFCURVE",
"572 574 CURVE",
"523 628 OFFCURVE",
"448 654 OFFCURVE",
"347 654 CURVE SMOOTH",
"146 654 OFFCURVE",
"50 553 OFFCURVE",
"50 322 CURVE SMOOTH",
"50 91 OFFCURVE",
"146 -10 OFFCURVE",
"347 -10 CURVE SMOOTH",
"549 -10 OFFCURVE",
"644 91 OFFCURVE",
"644 322 CURVE SMOOTH"
);
},
{
closed = 1;
nodes = (
"562 128 OFFCURVE",
"493 60 OFFCURVE",
"347 60 CURVE SMOOTH",
"201 60 OFFCURVE",
"132 128 OFFCURVE",
"132 322 CURVE SMOOTH",
"132 516 OFFCURVE",
"201 584 OFFCURVE",
"347 584 CURVE SMOOTH",
"493 584 OFFCURVE",
"562 516 OFFCURVE",
"562 322 CURVE SMOOTH"
);
},
{
closed = 1;
nodes = (
"477 886 OFFCURVE",
"435 920 OFFCURVE",
"356 920 CURVE SMOOTH",
"327 920 OFFCURVE",
"291 915 OFFCURVE",
"271 907 CURVE",
"271 856 LINE",
"288 863 OFFCURVE",
"316 868 OFFCURVE",
"337 868 CURVE SMOOTH",
"390 868 OFFCURVE",
"415 856 OFFCURVE",
"415 823 CURVE SMOOTH",
"415 788 OFFCURVE",
"400 775 OFFCURVE",
"322 771 CURVE",
"322 688 LINE",
"388 688 LINE",
"388 736 LINE",
"455 745 OFFCURVE",
"477 775 OFFCURVE",
"477 829 CURVE SMOOTH"
);
}
);
width = 760;
}
);
leftKerningGroup = O;
note = Ohornhookabove;
rightKerningGroup = O;
unicode = 1EDE;
},
{
glyphname = Ohorntilde;
lastChange = "2015-10-24 18:33:42 +0000";
layers = (
{
layerId = "139F617A-DF90-4219-9825-66026F124FCC";
name = Light;
paths = (
{
closed = 1;
nodes = (
"644 399 OFFCURVE",
"633 461 OFFCURVE",
"612 510 CURVE",
"695 521 OFFCURVE",
"740 569 OFFCURVE",
"740 688 CURVE",
"669 688 LINE",
"669 600 OFFCURVE",
"648 575 OFFCURVE",
"572 574 CURVE",
"523 628 OFFCURVE",
"448 654 OFFCURVE",
"347 654 CURVE SMOOTH",
"146 654 OFFCURVE",
"50 553 OFFCURVE",
"50 322 CURVE SMOOTH",
"50 91 OFFCURVE",
"146 -10 OFFCURVE",
"347 -10 CURVE SMOOTH",
"549 -10 OFFCURVE",
"644 91 OFFCURVE",
"644 322 CURVE SMOOTH"
);
},
{
closed = 1;
nodes = (
"562 128 OFFCURVE",
"493 60 OFFCURVE",
"347 60 CURVE SMOOTH",
"201 60 OFFCURVE",
"132 128 OFFCURVE",
"132 322 CURVE SMOOTH",
"132 516 OFFCURVE",
"201 584 OFFCURVE",
"347 584 CURVE SMOOTH",
"493 584 OFFCURVE",
"562 516 OFFCURVE",
"562 322 CURVE SMOOTH"
);
},
{
closed = 1;
nodes = (
"472 707 OFFCURVE",
"502 719 OFFCURVE",
"515 737 CURVE",
"515 801 LINE",
"497 776 OFFCURVE",
"472 765 OFFCURVE",
"438 765 CURVE SMOOTH",
"389 765 OFFCURVE",
"349 803 OFFCURVE",
"294 803 CURVE SMOOTH",
"263 803 OFFCURVE",
"227 791 OFFCURVE",
"211 773 CURVE",
"211 710 LINE",
"233 736 OFFCURVE",
"262 745 OFFCURVE",
"294 745 CURVE SMOOTH",
"337 745 OFFCURVE",
"386 707 OFFCURVE",
"438 707 CURVE SMOOTH"
);
}
);
width = 760;
}
);
leftKerningGroup = O;
note = Ohorntilde;
rightKerningGroup = O;
unicode = 1EE0;
},
{
glyphname = Ohungarumlaut;
lastChange = "2015-10-24 18:33:41 +0000";
layers = (
{
layerId = "139F617A-DF90-4219-9825-66026F124FCC";
name = Light;
paths = (
{
closed = 1;
nodes = (
"644 553 OFFCURVE",
"549 654 OFFCURVE",
"347 654 CURVE SMOOTH",
"146 654 OFFCURVE",
"50 553 OFFCURVE",
"50 322 CURVE SMOOTH",
"50 91 OFFCURVE",
"146 -10 OFFCURVE",
"347 -10 CURVE SMOOTH",
"549 -10 OFFCURVE",
"644 91 OFFCURVE",
"644 322 CURVE SMOOTH"
);
},
{
closed = 1;
nodes = (
"562 128 OFFCURVE",
"493 60 OFFCURVE",
"347 60 CURVE SMOOTH",
"201 60 OFFCURVE",
"132 128 OFFCURVE",
"132 322 CURVE SMOOTH",
"132 516 OFFCURVE",
"201 584 OFFCURVE",
"347 584 CURVE SMOOTH",
"493 584 OFFCURVE",
"562 516 OFFCURVE",
"562 322 CURVE SMOOTH"
);
},
{
closed = 1;
nodes = (
"256 688 LINE",
"337 840 LINE",
"259 840 LINE",
"188 688 LINE"
);
},
{
closed = 1;
nodes = (
"462 688 LINE",
"543 840 LINE",
"465 840 LINE",
"394 688 LINE"
);
}
);
width = 694;
}
);
leftKerningGroup = O;
note = Ohungarumlaut;
rightKerningGroup = O;
unicode = 0150;
},
{
glyphname = Omacron;
lastChange = "2015-10-24 18:33:42 +0000";
layers = (
{
layerId = "139F617A-DF90-4219-9825-66026F124FCC";
name = Light;
paths = (
{
closed = 1;
nodes = (
"644 553 OFFCURVE",
"549 654 OFFCURVE",
"347 654 CURVE SMOOTH",
"146 654 OFFCURVE",
"50 553 OFFCURVE",
"50 322 CURVE SMOOTH",
"50 91 OFFCURVE",
"146 -10 OFFCURVE",
"347 -10 CURVE SMOOTH",
"549 -10 OFFCURVE",
"644 91 OFFCURVE",
"644 322 CURVE SMOOTH"
);
},
{
closed = 1;
nodes = (
"562 128 OFFCURVE",
"493 60 OFFCURVE",
"347 60 CURVE SMOOTH",
"201 60 OFFCURVE",
"132 128 OFFCURVE",
"132 322 CURVE SMOOTH",
"132 516 OFFCURVE",
"201 584 OFFCURVE",
"347 584 CURVE SMOOTH",
"493 584 OFFCURVE",
"562 516 OFFCURVE",
"562 322 CURVE SMOOTH"
);
},
{
closed = 1;
nodes = (
"203 779 LINE",
"203 720 LINE",
"491 720 LINE",
"491 779 LINE"
);
}
);
width = 694;
}
);
leftKerningGroup = O;
note = Omacron;
rightKerningGroup = O;
unicode = 014C;
},
{
glyphname = Oslash;
lastChange = "2015-10-24 18:33:42 +0000";
layers = (
{
layerId = "139F617A-DF90-4219-9825-66026F124FCC";
name = Light;
paths = (
{
closed = 1;
nodes = (
"241 -53 LINE",
"259 -2 LINE",
"286 -7 OFFCURVE",
"315 -10 OFFCURVE",
"347 -10 CURVE SMOOTH",
"549 -10 OFFCURVE",
"644 91 OFFCURVE",
"644 322 CURVE SMOOTH",
"644 488 OFFCURVE",
"594 587 OFFCURVE",
"491 629 CURVE",
"515 693 LINE",
"443 693 LINE",
"426 647 LINE",
"402 651 OFFCURVE",
"375 654 OFFCURVE",
"347 654 CURVE SMOOTH",
"146 654 OFFCURVE",
"50 553 OFFCURVE",
"50 322 CURVE SMOOTH",
"50 160 OFFCURVE",
"97 61 OFFCURVE",
"195 17 CURVE",
"169 -53 LINE"
);
},
{
closed = 1;
nodes = (
"562 128 OFFCURVE",
"493 60 OFFCURVE",
"347 60 CURVE SMOOTH",
"324 60 OFFCURVE",
"303 62 OFFCURVE",
"284 65 CURVE",
"466 560 LINE",
"530 526 OFFCURVE",
"562 452 OFFCURVE",
"562 322 CURVE SMOOTH"
);
},
{
closed = 1;
nodes = (
"132 516 OFFCURVE",
"201 584 OFFCURVE",
"347 584 CURVE SMOOTH",
"366 584 OFFCURVE",
"384 582 OFFCURVE",
"401 580 CURVE",
"221 88 LINE",
"161 123 OFFCURVE",
"132 196 OFFCURVE",
"132 322 CURVE SMOOTH"
);
}
);
width = 694;
}
);
leftKerningGroup = O;
note = Oslash;
rightKerningGroup = O;
unicode = 00D8;
},
{
glyphname = Oslashacute;
lastChange = "2015-10-24 18:33:41 +0000";
layers = (
{
layerId = "139F617A-DF90-4219-9825-66026F124FCC";
name = Light;
paths = (
{
closed = 1;
nodes = (
"241 -53 LINE",
"259 -2 LINE",
"286 -7 OFFCURVE",
"315 -10 OFFCURVE",
"347 -10 CURVE SMOOTH",
"549 -10 OFFCURVE",
"644 91 OFFCURVE",
"644 322 CURVE SMOOTH",
"644 488 OFFCURVE",
"594 587 OFFCURVE",
"491 629 CURVE",
"515 693 LINE",
"443 693 LINE",
"426 647 LINE",
"402 651 OFFCURVE",
"375 654 OFFCURVE",
"347 654 CURVE SMOOTH",
"146 654 OFFCURVE",
"50 553 OFFCURVE",
"50 322 CURVE SMOOTH",
"50 160 OFFCURVE",
"97 61 OFFCURVE",
"195 17 CURVE",
"169 -53 LINE"
);
},
{
closed = 1;
nodes = (
"562 128 OFFCURVE",
"493 60 OFFCURVE",
"347 60 CURVE SMOOTH",
"324 60 OFFCURVE",
"303 62 OFFCURVE",
"284 65 CURVE",
"466 560 LINE",
"530 526 OFFCURVE",
"562 452 OFFCURVE",
"562 322 CURVE SMOOTH"
);
},
{
closed = 1;
nodes = (
"132 516 OFFCURVE",
"201 584 OFFCURVE",
"347 584 CURVE SMOOTH",
"366 584 OFFCURVE",
"384 582 OFFCURVE",
"401 580 CURVE",
"221 88 LINE",
"161 123 OFFCURVE",
"132 196 OFFCURVE",
"132 322 CURVE SMOOTH"
);
},
{
closed = 1;
nodes = (
"367 688 LINE",
"446 856 LINE",
"372 856 LINE",
"301 688 LINE"
);
}
);
width = 694;
}
);
leftKerningGroup = O;
note = Oslashacute;
rightKerningGroup = O;
unicode = 01FE;
},
{
glyphname = Otilde;
lastChange = "2015-10-24 18:33:41 +0000";
layers = (
{
layerId = "139F617A-DF90-4219-9825-66026F124FCC";
name = Light;
paths = (
{
closed = 1;
nodes = (
"644 553 OFFCURVE",
"549 654 OFFCURVE",
"347 654 CURVE SMOOTH",
"146 654 OFFCURVE",
"50 553 OFFCURVE",
"50 322 CURVE SMOOTH",
"50 91 OFFCURVE",
"146 -10 OFFCURVE",
"347 -10 CURVE SMOOTH",
"549 -10 OFFCURVE",
"644 91 OFFCURVE",
"644 322 CURVE SMOOTH"
);
},
{
closed = 1;
nodes = (
"562 128 OFFCURVE",
"493 60 OFFCURVE",
"347 60 CURVE SMOOTH",
"201 60 OFFCURVE",
"132 128 OFFCURVE",
"132 322 CURVE SMOOTH",
"132 516 OFFCURVE",
"201 584 OFFCURVE",
"347 584 CURVE SMOOTH",
"493 584 OFFCURVE",
"562 516 OFFCURVE",
"562 322 CURVE SMOOTH"
);
},
{
closed = 1;
nodes = (
"456 713 OFFCURVE",
"486 725 OFFCURVE",
"499 743 CURVE",
"499 807 LINE",
"481 782 OFFCURVE",
"456 771 OFFCURVE",
"422 771 CURVE SMOOTH",
"373 771 OFFCURVE",
"333 809 OFFCURVE",
"278 809 CURVE SMOOTH",
"247 809 OFFCURVE",
"211 797 OFFCURVE",
"195 779 CURVE",
"195 716 LINE",
"217 742 OFFCURVE",
"246 751 OFFCURVE",
"278 751 CURVE SMOOTH",
"321 751 OFFCURVE",
"370 713 OFFCURVE",
"422 713 CURVE SMOOTH"
);
}
);
width = 694;
}
);
leftKerningGroup = O;
note = Otilde;
rightKerningGroup = O;
unicode = 00D5;
},
{
glyphname = OE;
lastChange = "2015-10-24 18:33:41 +0000";
layers = (
{
layerId = "139F617A-DF90-4219-9825-66026F124FCC";
name = Light;
paths = (
{
closed = 1;
nodes = (
"997 0 LINE",
"997 64 LINE",
"644 64 LINE",
"644 290 LINE",
"961 290 LINE",
"961 354 LINE",
"644 354 LINE",
"644 579 LINE",
"997 579 LINE",
"997 644 LINE",
"562 644 LINE",
"562 0 LINE"
);
},
{
closed = 1;
nodes = (
"644 553 OFFCURVE",
"549 654 OFFCURVE",
"347 654 CURVE SMOOTH",
"146 654 OFFCURVE",
"50 553 OFFCURVE",
"50 322 CURVE SMOOTH",
"50 91 OFFCURVE",
"146 -10 OFFCURVE",
"347 -10 CURVE SMOOTH",
"549 -10 OFFCURVE",
"644 91 OFFCURVE",
"644 322 CURVE SMOOTH"
);
},
{
closed = 1;
nodes = (
"562 128 OFFCURVE",
"493 60 OFFCURVE",
"347 60 CURVE SMOOTH",
"201 60 OFFCURVE",
"132 128 OFFCURVE",
"132 322 CURVE SMOOTH",
"132 516 OFFCURVE",
"201 584 OFFCURVE",
"347 584 CURVE SMOOTH",
"493 584 OFFCURVE",
"562 516 OFFCURVE",
"562 322 CURVE SMOOTH"
);
}
);
width = 1047;
}
);
leftKerningGroup = O;
note = OE;
rightKerningGroup = E;
unicode = 0152;
},
{
glyphname = P;
lastChange = "2015-10-24 18:33:42 +0000";
layers = (
{
layerId = "139F617A-DF90-4219-9825-66026F124FCC";
name = Light;
paths = (
{
closed = 1;
nodes = (
"552 558 OFFCURVE",
"486 644 OFFCURVE",
"342 644 CURVE SMOOTH",
"70 644 LINE",
"70 0 LINE",
"152 0 LINE",
"152 233 LINE",
"338 233 LINE SMOOTH",
"470 233 OFFCURVE",
"552 311 OFFCURVE",
"552 436 CURVE SMOOTH"
);
},
{
closed = 1;
nodes = (
"152 297 LINE",
"152 579 LINE",
"330 579 LINE SMOOTH",
"424 579 OFFCURVE",
"470 527 OFFCURVE",
"470 436 CURVE SMOOTH",
"470 351 OFFCURVE",
"421 297 OFFCURVE",
"325 297 CURVE SMOOTH"
);
}
);
width = 582;
}
);
note = P;
unicode = 0050;
},
{
glyphname = Thorn;
lastChange = "2015-11-24 10:23:27 +0000";
layers = (
{
layerId = "139F617A-DF90-4219-9825-66026F124FCC";
name = Light;
paths = (
{
closed = 1;
nodes = (
"552 442 OFFCURVE",
"486 526 OFFCURVE",
"342 526 CURVE SMOOTH",
"152 526 LINE",
"152 644 LINE",
"70 644 LINE",
"70 0 LINE",
"152 0 LINE",
"152 115 LINE",
"338 115 LINE SMOOTH",
"470 115 OFFCURVE",
"552 195 OFFCURVE",
"552 320 CURVE SMOOTH"
);
},
{
closed = 1;
nodes = (
"152 179 LINE",
"152 461 LINE",
"330 461 LINE SMOOTH",
"424 461 OFFCURVE",
"470 411 OFFCURVE",
"470 320 CURVE SMOOTH",
"470 235 OFFCURVE",
"421 179 OFFCURVE",
"325 179 CURVE SMOOTH"
);
}
);
width = 582;
}
);
note = Thorn;
unicode = 00DE;
},
{
glyphname = Q;
lastChange = "2015-10-24 18:33:41 +0000";
layers = (
{
layerId = "139F617A-DF90-4219-9825-66026F124FCC";
name = Light;
paths = (
{
closed = 1;
nodes = (
"644 553 OFFCURVE",
"549 654 OFFCURVE",
"347 654 CURVE SMOOTH",
"146 654 OFFCURVE",
"50 553 OFFCURVE",
"50 322 CURVE SMOOTH",
"50 108 OFFCURVE",
"132 6 OFFCURVE",
"303 -8 CURVE",
"305 -111 OFFCURVE",
"346 -172 OFFCURVE",
"441 -172 CURVE SMOOTH",
"471 -172 OFFCURVE",
"506 -167 OFFCURVE",
"528 -161 CURVE",
"528 -92 LINE",
"507 -98 OFFCURVE",
"478 -102 OFFCURVE",
"457 -102 CURVE SMOOTH",
"401 -102 OFFCURVE",
"384 -79 OFFCURVE",
"383 -9 CURVE",
"560 3 OFFCURVE",
"644 105 OFFCURVE",
"644 322 CURVE SMOOTH"
);
},
{
closed = 1;
nodes = (
"562 128 OFFCURVE",
"493 60 OFFCURVE",
"347 60 CURVE SMOOTH",
"201 60 OFFCURVE",
"132 128 OFFCURVE",
"132 322 CURVE SMOOTH",
"132 516 OFFCURVE",
"201 584 OFFCURVE",
"347 584 CURVE SMOOTH",
"493 584 OFFCURVE",
"562 516 OFFCURVE",
"562 322 CURVE SMOOTH"
);
}
);
width = 694;
}
);
leftKerningGroup = O;
note = Q;
rightKerningGroup = O;
unicode = 0051;
},
{
glyphname = R;
lastChange = "2015-10-24 18:33:42 +0000";
layers = (
{
layerId = "139F617A-DF90-4219-9825-66026F124FCC";
name = Light;
paths = (
{
closed = 1;
nodes = (
"552 566 OFFCURVE",
"492 644 OFFCURVE",
"353 644 CURVE SMOOTH",
"70 644 LINE",
"70 0 LINE",
"152 0 LINE",
"152 243 LINE",
"288 243 LINE SMOOTH",
"350 243 OFFCURVE",
"367 227 OFFCURVE",
"385 187 CURVE SMOOTH",
"467 0 LINE",
"551 0 LINE",
"467 194 LINE SMOOTH",
"452 228 OFFCURVE",
"442 247 OFFCURVE",
"415 263 CURVE",
"505 284 OFFCURVE",
"552 349 OFFCURVE",
"552 444 CURVE SMOOTH"
);
},
{
closed = 1;
nodes = (
"152 307 LINE",
"152 579 LINE",
"341 579 LINE SMOOTH",
"427 579 OFFCURVE",
"470 533 OFFCURVE",
"470 444 CURVE SMOOTH",
"470 348 OFFCURVE",
"417 307 OFFCURVE",
"330 307 CURVE SMOOTH"
);
}
);
width = 602;
}
);
note = R;
rightKerningGroup = R;
unicode = 0052;
},
{
glyphname = Racute;
lastChange = "2015-10-24 18:33:42 +0000";
layers = (
{
layerId = "139F617A-DF90-4219-9825-66026F124FCC";
name = Light;
paths = (
{
closed = 1;
nodes = (
"552 566 OFFCURVE",
"492 644 OFFCURVE",
"353 644 CURVE SMOOTH",
"70 644 LINE",
"70 0 LINE",
"152 0 LINE",
"152 243 LINE",
"288 243 LINE SMOOTH",
"350 243 OFFCURVE",
"367 227 OFFCURVE",
"385 187 CURVE SMOOTH",
"467 0 LINE",
"551 0 LINE",
"467 194 LINE SMOOTH",
"452 228 OFFCURVE",
"442 247 OFFCURVE",
"415 263 CURVE",
"505 284 OFFCURVE",
"552 349 OFFCURVE",
"552 444 CURVE SMOOTH"
);
},
{
closed = 1;
nodes = (
"152 307 LINE",
"152 579 LINE",
"341 579 LINE SMOOTH",
"427 579 OFFCURVE",
"470 533 OFFCURVE",
"470 444 CURVE SMOOTH",
"470 348 OFFCURVE",
"417 307 OFFCURVE",
"330 307 CURVE SMOOTH"
);
},
{
closed = 1;
nodes = (
"311 688 LINE",
"390 856 LINE",
"316 856 LINE",
"245 688 LINE"
);
}
);
width = 602;
}
);
note = Racute;
rightKerningGroup = R;
unicode = 0154;
},
{
glyphname = Rcaron;
lastChange = "2015-10-24 18:33:41 +0000";
layers = (
{
layerId = "139F617A-DF90-4219-9825-66026F124FCC";
name = Light;
paths = (
{
closed = 1;
nodes = (
"552 566 OFFCURVE",
"492 644 OFFCURVE",
"353 644 CURVE SMOOTH",
"70 644 LINE",
"70 0 LINE",
"152 0 LINE",
"152 243 LINE",
"288 243 LINE SMOOTH",
"350 243 OFFCURVE",
"367 227 OFFCURVE",
"385 187 CURVE SMOOTH",
"467 0 LINE",
"551 0 LINE",
"467 194 LINE SMOOTH",
"452 228 OFFCURVE",
"442 247 OFFCURVE",
"415 263 CURVE",
"505 284 OFFCURVE",
"552 349 OFFCURVE",
"552 444 CURVE SMOOTH"
);
},
{
closed = 1;
nodes = (
"152 307 LINE",
"152 579 LINE",
"341 579 LINE SMOOTH",
"427 579 OFFCURVE",
"470 533 OFFCURVE",
"470 444 CURVE SMOOTH",
"470 348 OFFCURVE",
"417 307 OFFCURVE",
"330 307 CURVE SMOOTH"
);
},
{
closed = 1;
nodes = (
"437 836 LINE",
"366 836 LINE",
"289 734 LINE",
"212 836 LINE",
"141 836 LINE",
"256 688 LINE",
"322 688 LINE"
);
}
);
width = 602;
}
);
note = Rcaron;
rightKerningGroup = R;
unicode = 0158;
},
{
glyphname = Rcommaaccent;
lastChange = "2015-10-24 18:33:41 +0000";
layers = (
{
layerId = "139F617A-DF90-4219-9825-66026F124FCC";
name = Light;
paths = (
{
closed = 1;
nodes = (
"552 566 OFFCURVE",
"492 644 OFFCURVE",
"353 644 CURVE SMOOTH",
"70 644 LINE",
"70 0 LINE",
"152 0 LINE",
"152 243 LINE",
"288 243 LINE SMOOTH",
"350 243 OFFCURVE",
"367 227 OFFCURVE",
"385 187 CURVE SMOOTH",
"467 0 LINE",
"551 0 LINE",
"467 194 LINE SMOOTH",
"452 228 OFFCURVE",
"442 247 OFFCURVE",
"415 263 CURVE",
"505 284 OFFCURVE",
"552 349 OFFCURVE",
"552 444 CURVE SMOOTH"
);
},
{
closed = 1;
nodes = (
"152 307 LINE",
"152 579 LINE",
"341 579 LINE SMOOTH",
"427 579 OFFCURVE",
"470 533 OFFCURVE",
"470 444 CURVE SMOOTH",
"470 348 OFFCURVE",
"417 307 OFFCURVE",
"330 307 CURVE SMOOTH"
);
},
{
closed = 1;
nodes = (
"281 -214 LINE",
"323 -37 LINE",
"249 -37 LINE",
"221 -214 LINE"
);
}
);
width = 602;
}
);
note = Rcommaaccent;
rightKerningGroup = R;
unicode = 0156;
},
{
glyphname = Rdotbelow;
lastChange = "2015-11-24 10:23:36 +0000";
layers = (
{
layerId = "139F617A-DF90-4219-9825-66026F124FCC";
name = Light;
paths = (
{
closed = 1;
nodes = (
"552 566 OFFCURVE",
"492 644 OFFCURVE",
"353 644 CURVE SMOOTH",
"70 644 LINE",
"70 0 LINE",
"152 0 LINE",
"152 243 LINE",
"288 243 LINE SMOOTH",
"350 243 OFFCURVE",
"367 227 OFFCURVE",
"385 187 CURVE SMOOTH",
"467 0 LINE",
"551 0 LINE",
"467 194 LINE SMOOTH",
"452 228 OFFCURVE",
"442 247 OFFCURVE",
"415 263 CURVE",
"505 284 OFFCURVE",
"552 349 OFFCURVE",
"552 444 CURVE SMOOTH"
);
},
{
closed = 1;
nodes = (
"152 307 LINE",
"152 579 LINE",
"341 579 LINE SMOOTH",
"427 579 OFFCURVE",
"470 533 OFFCURVE",
"470 444 CURVE SMOOTH",
"470 348 OFFCURVE",
"417 307 OFFCURVE",
"330 307 CURVE SMOOTH"
);
},
{
closed = 1;
nodes = (
"331 -164 LINE",
"331 -87 LINE",
"251 -87 LINE",
"251 -164 LINE"
);
}
);
width = 602;
}
);
note = Rdotbelow;
rightKerningGroup = R;
unicode = 1E5A;
},
{
glyphname = Rdotbelowmacron;
lastChange = "2015-10-24 18:33:42 +0000";
layers = (
{
layerId = "139F617A-DF90-4219-9825-66026F124FCC";
name = Light;
paths = (
{
closed = 1;
nodes = (
"552 566 OFFCURVE",
"492 644 OFFCURVE",
"353 644 CURVE SMOOTH",
"70 644 LINE",
"70 0 LINE",
"152 0 LINE",
"152 243 LINE",
"288 243 LINE SMOOTH",
"350 243 OFFCURVE",
"367 227 OFFCURVE",
"385 187 CURVE SMOOTH",
"467 0 LINE",
"551 0 LINE",
"467 194 LINE SMOOTH",
"452 228 OFFCURVE",
"442 247 OFFCURVE",
"415 263 CURVE",
"505 284 OFFCURVE",
"552 349 OFFCURVE",
"552 444 CURVE SMOOTH"
);
},
{
closed = 1;
nodes = (
"152 307 LINE",
"152 579 LINE",
"341 579 LINE SMOOTH",
"427 579 OFFCURVE",
"470 533 OFFCURVE",
"470 444 CURVE SMOOTH",
"470 348 OFFCURVE",
"417 307 OFFCURVE",
"330 307 CURVE SMOOTH"
);
},
{
closed = 1;
nodes = (
"149 776 LINE",
"149 717 LINE",
"437 717 LINE",
"437 776 LINE"
);
},
{
closed = 1;
nodes = (
"331 -164 LINE",
"331 -87 LINE",
"251 -87 LINE",
"251 -164 LINE"
);
}
);
width = 602;
}
);
note = Rdotbelowmacron;
rightKerningGroup = R;
unicode = 1E5C;
},
{
glyphname = Rlinebelow;
lastChange = "2015-10-24 18:33:42 +0000";
layers = (
{
layerId = "139F617A-DF90-4219-9825-66026F124FCC";
name = Light;
paths = (
{
closed = 1;
nodes = (
"552 566 OFFCURVE",
"492 644 OFFCURVE",
"353 644 CURVE SMOOTH",
"70 644 LINE",
"70 0 LINE",
"152 0 LINE",
"152 243 LINE",
"288 243 LINE SMOOTH",
"350 243 OFFCURVE",
"367 227 OFFCURVE",
"385 187 CURVE SMOOTH",
"467 0 LINE",
"551 0 LINE",
"467 194 LINE SMOOTH",
"452 228 OFFCURVE",
"442 247 OFFCURVE",
"415 263 CURVE",
"505 284 OFFCURVE",
"552 349 OFFCURVE",
"552 444 CURVE SMOOTH"
);
},
{
closed = 1;
nodes = (
"152 307 LINE",
"152 579 LINE",
"341 579 LINE SMOOTH",
"427 579 OFFCURVE",
"470 533 OFFCURVE",
"470 444 CURVE SMOOTH",
"470 348 OFFCURVE",
"417 307 OFFCURVE",
"330 307 CURVE SMOOTH"
);
},
{
closed = 1;
nodes = (
"147 -71 LINE",
"147 -130 LINE",
"435 -130 LINE",
"435 -71 LINE"
);
}
);
width = 602;
}
);
note = Rlinebelow;
rightKerningGroup = R;
unicode = 1E5E;
},
{
glyphname = S;
lastChange = "2015-10-24 18:33:41 +0000";
layers = (
{
layerId = "139F617A-DF90-4219-9825-66026F124FCC";
name = Light;
paths = (
{
closed = 1;
nodes = (
"506 260 OFFCURVE",
"460 320 OFFCURVE",
"303 358 CURVE SMOOTH",
"171 390 OFFCURVE",
"132 411 OFFCURVE",
"132 477 CURVE SMOOTH",
"132 555 OFFCURVE",
"193 584 OFFCURVE",
"302 584 CURVE SMOOTH",
"362 584 OFFCURVE",
"419 574 OFFCURVE",
"467 557 CURVE",
"467 629 LINE",
"432 641 OFFCURVE",
"363 654 OFFCURVE",
"289 654 CURVE SMOOTH",
"128 654 OFFCURVE",
"50 586 OFFCURVE",
"50 477 CURVE SMOOTH",
"50 383 OFFCURVE",
"100 333 OFFCURVE",
"242 298 CURVE SMOOTH",
"376 266 OFFCURVE",
"424 243 OFFCURVE",
"424 168 CURVE SMOOTH",
"424 86 OFFCURVE",
"366 60 OFFCURVE",
"252 60 CURVE SMOOTH",
"185 60 OFFCURVE",
"121 72 OFFCURVE",
"65 93 CURVE",
"65 20 LINE",
"114 0 OFFCURVE",
"179 -10 OFFCURVE",
"259 -10 CURVE SMOOTH",
"423 -10 OFFCURVE",
"506 54 OFFCURVE",
"506 168 CURVE SMOOTH"
);
}
);
width = 556;
}
);
leftKerningGroup = S;
note = S;
rightKerningGroup = S;
unicode = 0053;
},
{
glyphname = Sacute;
lastChange = "2015-10-24 18:33:41 +0000";
layers = (
{
layerId = "139F617A-DF90-4219-9825-66026F124FCC";
name = Light;
paths = (
{
closed = 1;
nodes = (
"506 260 OFFCURVE",
"460 320 OFFCURVE",
"303 358 CURVE SMOOTH",
"171 390 OFFCURVE",
"132 411 OFFCURVE",
"132 477 CURVE SMOOTH",
"132 555 OFFCURVE",
"193 584 OFFCURVE",
"302 584 CURVE SMOOTH",
"362 584 OFFCURVE",
"419 574 OFFCURVE",
"467 557 CURVE",
"467 629 LINE",
"432 641 OFFCURVE",
"363 654 OFFCURVE",
"289 654 CURVE SMOOTH",
"128 654 OFFCURVE",
"50 586 OFFCURVE",
"50 477 CURVE SMOOTH",
"50 383 OFFCURVE",
"100 333 OFFCURVE",
"242 298 CURVE SMOOTH",
"376 266 OFFCURVE",
"424 243 OFFCURVE",
"424 168 CURVE SMOOTH",
"424 86 OFFCURVE",
"366 60 OFFCURVE",
"252 60 CURVE SMOOTH",
"185 60 OFFCURVE",
"121 72 OFFCURVE",
"65 93 CURVE",
"65 20 LINE",
"114 0 OFFCURVE",
"179 -10 OFFCURVE",
"259 -10 CURVE SMOOTH",
"423 -10 OFFCURVE",
"506 54 OFFCURVE",
"506 168 CURVE SMOOTH"
);
},
{
closed = 1;
nodes = (
"289 688 LINE",
"368 856 LINE",
"294 856 LINE",
"223 688 LINE"
);
}
);
width = 556;
}
);
leftKerningGroup = S;
note = Sacute;
rightKerningGroup = S;
unicode = 015A;
},
{
glyphname = Scaron;
lastChange = "2015-10-24 18:33:41 +0000";
layers = (
{
layerId = "139F617A-DF90-4219-9825-66026F124FCC";
name = Light;
paths = (
{
closed = 1;
nodes = (
"506 260 OFFCURVE",
"460 320 OFFCURVE",
"303 358 CURVE SMOOTH",
"171 390 OFFCURVE",
"132 411 OFFCURVE",
"132 477 CURVE SMOOTH",
"132 555 OFFCURVE",
"193 584 OFFCURVE",
"302 584 CURVE SMOOTH",
"362 584 OFFCURVE",
"419 574 OFFCURVE",
"467 557 CURVE",
"467 629 LINE",
"432 641 OFFCURVE",
"363 654 OFFCURVE",
"289 654 CURVE SMOOTH",
"128 654 OFFCURVE",
"50 586 OFFCURVE",
"50 477 CURVE SMOOTH",
"50 383 OFFCURVE",
"100 333 OFFCURVE",
"242 298 CURVE SMOOTH",
"376 266 OFFCURVE",
"424 243 OFFCURVE",
"424 168 CURVE SMOOTH",
"424 86 OFFCURVE",
"366 60 OFFCURVE",
"252 60 CURVE SMOOTH",
"185 60 OFFCURVE",
"121 72 OFFCURVE",
"65 93 CURVE",
"65 20 LINE",
"114 0 OFFCURVE",
"179 -10 OFFCURVE",
"259 -10 CURVE SMOOTH",
"423 -10 OFFCURVE",
"506 54 OFFCURVE",
"506 168 CURVE SMOOTH"
);
},
{
closed = 1;
nodes = (
"444 836 LINE",
"373 836 LINE",
"296 734 LINE",
"219 836 LINE",
"148 836 LINE",
"263 688 LINE",
"329 688 LINE"
);
}
);
width = 556;
}
);
leftKerningGroup = S;
note = Scaron;
rightKerningGroup = S;
unicode = 0160;
},
{
glyphname = Scedilla;
lastChange = "2015-10-24 18:33:42 +0000";
layers = (
{
layerId = "139F617A-DF90-4219-9825-66026F124FCC";
name = Light;
paths = (
{
closed = 1;
nodes = (
"506 260 OFFCURVE",
"460 320 OFFCURVE",
"303 358 CURVE SMOOTH",
"171 390 OFFCURVE",
"132 411 OFFCURVE",
"132 477 CURVE SMOOTH",
"132 555 OFFCURVE",
"193 584 OFFCURVE",
"302 584 CURVE SMOOTH",
"362 584 OFFCURVE",
"419 574 OFFCURVE",
"467 557 CURVE",
"467 629 LINE",
"432 641 OFFCURVE",
"363 654 OFFCURVE",
"289 654 CURVE SMOOTH",
"128 654 OFFCURVE",
"50 586 OFFCURVE",
"50 477 CURVE SMOOTH",
"50 383 OFFCURVE",
"100 333 OFFCURVE",
"242 298 CURVE SMOOTH",
"376 266 OFFCURVE",
"424 243 OFFCURVE",
"424 168 CURVE SMOOTH",
"424 86 OFFCURVE",
"366 60 OFFCURVE",
"252 60 CURVE SMOOTH",
"185 60 OFFCURVE",
"121 72 OFFCURVE",
"65 93 CURVE",
"65 20 LINE",
"114 0 OFFCURVE",
"179 -10 OFFCURVE",
"259 -10 CURVE SMOOTH",
"423 -10 OFFCURVE",
"506 54 OFFCURVE",
"506 168 CURVE SMOOTH"
);
},
{
closed = 1;
nodes = (
"385 -81 OFFCURVE",
"347 -48 OFFCURVE",
"274 -48 CURVE",
"290 0 LINE",
"232 0 LINE",
"203 -91 LINE",
"240 -91 LINE SMOOTH",
"297 -91 OFFCURVE",
"325 -98 OFFCURVE",
"325 -137 CURVE SMOOTH",
"325 -178 OFFCURVE",
"297 -190 OFFCURVE",
"235 -190 CURVE SMOOTH",
"213 -190 OFFCURVE",
"190 -187 OFFCURVE",
"172 -182 CURVE",
"172 -232 LINE",
"187 -236 OFFCURVE",
"220 -240 OFFCURVE",
"242 -240 CURVE SMOOTH",
"341 -240 OFFCURVE",
"385 -203 OFFCURVE",
"385 -138 CURVE SMOOTH"
);
}
);
width = 556;
}
);
leftKerningGroup = S;
note = Scedilla;
rightKerningGroup = S;
unicode = 015E;
},
{
glyphname = Scircumflex;
lastChange = "2015-10-24 18:33:42 +0000";
layers = (
{
layerId = "139F617A-DF90-4219-9825-66026F124FCC";
name = Light;
paths = (
{
closed = 1;
nodes = (
"506 260 OFFCURVE",
"460 320 OFFCURVE",
"303 358 CURVE SMOOTH",
"171 390 OFFCURVE",
"132 411 OFFCURVE",
"132 477 CURVE SMOOTH",
"132 555 OFFCURVE",
"193 584 OFFCURVE",
"302 584 CURVE SMOOTH",
"362 584 OFFCURVE",
"419 574 OFFCURVE",
"467 557 CURVE",
"467 629 LINE",
"432 641 OFFCURVE",
"363 654 OFFCURVE",
"289 654 CURVE SMOOTH",
"128 654 OFFCURVE",
"50 586 OFFCURVE",
"50 477 CURVE SMOOTH",
"50 383 OFFCURVE",
"100 333 OFFCURVE",
"242 298 CURVE SMOOTH",
"376 266 OFFCURVE",
"424 243 OFFCURVE",
"424 168 CURVE SMOOTH",
"424 86 OFFCURVE",
"366 60 OFFCURVE",
"252 60 CURVE SMOOTH",
"185 60 OFFCURVE",
"121 72 OFFCURVE",
"65 93 CURVE",
"65 20 LINE",
"114 0 OFFCURVE",
"179 -10 OFFCURVE",
"259 -10 CURVE SMOOTH",
"423 -10 OFFCURVE",
"506 54 OFFCURVE",
"506 168 CURVE SMOOTH"
);
},
{
closed = 1;
nodes = (
"314 836 LINE",
"248 836 LINE",
"133 688 LINE",
"204 688 LINE",
"281 790 LINE",
"358 688 LINE",
"429 688 LINE"
);
}
);
width = 556;
}
);
leftKerningGroup = S;
note = Scircumflex;
rightKerningGroup = S;
unicode = 015C;
},
{
glyphname = Scommaaccent;
lastChange = "2015-10-24 18:33:42 +0000";
layers = (
{
layerId = "139F617A-DF90-4219-9825-66026F124FCC";
name = Light;
paths = (
{
closed = 1;
nodes = (
"506 260 OFFCURVE",
"460 320 OFFCURVE",
"303 358 CURVE SMOOTH",
"171 390 OFFCURVE",
"132 411 OFFCURVE",
"132 477 CURVE SMOOTH",
"132 555 OFFCURVE",
"193 584 OFFCURVE",
"302 584 CURVE SMOOTH",
"362 584 OFFCURVE",
"419 574 OFFCURVE",
"467 557 CURVE",
"467 629 LINE",
"432 641 OFFCURVE",
"363 654 OFFCURVE",
"289 654 CURVE SMOOTH",
"128 654 OFFCURVE",
"50 586 OFFCURVE",
"50 477 CURVE SMOOTH",
"50 383 OFFCURVE",
"100 333 OFFCURVE",
"242 298 CURVE SMOOTH",
"376 266 OFFCURVE",
"424 243 OFFCURVE",
"424 168 CURVE SMOOTH",
"424 86 OFFCURVE",
"366 60 OFFCURVE",
"252 60 CURVE SMOOTH",
"185 60 OFFCURVE",
"121 72 OFFCURVE",
"65 93 CURVE",
"65 20 LINE",
"114 0 OFFCURVE",
"179 -10 OFFCURVE",
"259 -10 CURVE SMOOTH",
"423 -10 OFFCURVE",
"506 54 OFFCURVE",
"506 168 CURVE SMOOTH"
);
},
{
closed = 1;
nodes = (
"268 -218 LINE",
"307 -52 LINE",
"232 -52 LINE",
"205 -218 LINE"
);
}
);
width = 556;
}
);
leftKerningGroup = S;
note = Scommaaccent;
rightKerningGroup = S;
unicode = 0218;
},
{
glyphname = Sdotaccent;
lastChange = "2015-10-24 18:33:41 +0000";
layers = (
{
layerId = "139F617A-DF90-4219-9825-66026F124FCC";
name = Light;
paths = (
{
closed = 1;
nodes = (
"506 260 OFFCURVE",
"460 320 OFFCURVE",
"303 358 CURVE SMOOTH",
"171 390 OFFCURVE",
"132 411 OFFCURVE",
"132 477 CURVE SMOOTH",
"132 555 OFFCURVE",
"193 584 OFFCURVE",
"302 584 CURVE SMOOTH",
"362 584 OFFCURVE",
"419 574 OFFCURVE",
"467 557 CURVE",
"467 629 LINE",
"432 641 OFFCURVE",
"363 654 OFFCURVE",
"289 654 CURVE SMOOTH",
"128 654 OFFCURVE",
"50 586 OFFCURVE",
"50 477 CURVE SMOOTH",
"50 383 OFFCURVE",
"100 333 OFFCURVE",
"242 298 CURVE SMOOTH",
"376 266 OFFCURVE",
"424 243 OFFCURVE",
"424 168 CURVE SMOOTH",
"424 86 OFFCURVE",
"366 60 OFFCURVE",
"252 60 CURVE SMOOTH",
"185 60 OFFCURVE",
"121 72 OFFCURVE",
"65 93 CURVE",
"65 20 LINE",
"114 0 OFFCURVE",
"179 -10 OFFCURVE",
"259 -10 CURVE SMOOTH",
"423 -10 OFFCURVE",
"506 54 OFFCURVE",
"506 168 CURVE SMOOTH"
);
},
{
closed = 1;
nodes = (
"320 710 LINE",
"320 787 LINE",
"240 787 LINE",
"240 710 LINE"
);
}
);
width = 556;
}
);
leftKerningGroup = S;
note = Sdotaccent;
rightKerningGroup = S;
unicode = 1E60;
},
{
glyphname = Sdotbelow;
lastChange = "2015-10-24 18:33:42 +0000";
layers = (
{
layerId = "139F617A-DF90-4219-9825-66026F124FCC";
name = Light;
paths = (
{
closed = 1;
nodes = (
"506 260 OFFCURVE",
"460 320 OFFCURVE",
"303 358 CURVE SMOOTH",
"171 390 OFFCURVE",
"132 411 OFFCURVE",
"132 477 CURVE SMOOTH",
"132 555 OFFCURVE",
"193 584 OFFCURVE",
"302 584 CURVE SMOOTH",
"362 584 OFFCURVE",
"419 574 OFFCURVE",
"467 557 CURVE",
"467 629 LINE",
"432 641 OFFCURVE",
"363 654 OFFCURVE",
"289 654 CURVE SMOOTH",
"128 654 OFFCURVE",
"50 586 OFFCURVE",
"50 477 CURVE SMOOTH",
"50 383 OFFCURVE",
"100 333 OFFCURVE",
"242 298 CURVE SMOOTH",
"376 266 OFFCURVE",
"424 243 OFFCURVE",
"424 168 CURVE SMOOTH",
"424 86 OFFCURVE",
"366 60 OFFCURVE",
"252 60 CURVE SMOOTH",
"185 60 OFFCURVE",
"121 72 OFFCURVE",
"65 93 CURVE",
"65 20 LINE",
"114 0 OFFCURVE",
"179 -10 OFFCURVE",
"259 -10 CURVE SMOOTH",
"423 -10 OFFCURVE",
"506 54 OFFCURVE",
"506 168 CURVE SMOOTH"
);
},
{
closed = 1;
nodes = (
"304 -164 LINE",
"304 -87 LINE",
"224 -87 LINE",
"224 -164 LINE"
);
}
);
width = 556;
}
);
leftKerningGroup = S;
note = Sdotbelow;
rightKerningGroup = S;
unicode = 1E62;
},
{
glyphname = Germandbls;
lastChange = "2015-10-24 18:33:41 +0000";
layers = (
{
layerId = "139F617A-DF90-4219-9825-66026F124FCC";
name = Light;
paths = (
{
closed = 1;
nodes = (
"320 60 OFFCURVE",
"271 66 OFFCURVE",
"234 82 CURVE",
"234 12 LINE",
"274 -3 OFFCURVE",
"325 -10 OFFCURVE",
"378 -10 CURVE SMOOTH",
"502 -10 OFFCURVE",
"573 63 OFFCURVE",
"573 181 CURVE SMOOTH",
"573 280 OFFCURVE",
"513 343 OFFCURVE",
"408 343 CURVE SMOOTH",
"361 343 LINE",
"544 455 LINE",
"544 566 OFFCURVE",
"475 654 OFFCURVE",
"309 654 CURVE SMOOTH",
"153 654 OFFCURVE",
"65 576 OFFCURVE",
"65 435 CURVE SMOOTH",
"65 0 LINE",
"147 0 LINE",
"147 436 LINE SMOOTH",
"147 538 OFFCURVE",
"197 584 OFFCURVE",
"309 584 CURVE SMOOTH",
"423 584 OFFCURVE",
"466 540 OFFCURVE",
"466 480 CURVE",
"274 360 LINE",
"274 283 LINE",
"372 283 LINE SMOOTH",
"457 283 OFFCURVE",
"491 256 OFFCURVE",
"491 182 CURVE SMOOTH",
"491 100 OFFCURVE",
"451 60 OFFCURVE",
"365 60 CURVE SMOOTH"
);
}
);
width = 623;
}
);
note = uni1E9E;
unicode = 1E9E;
},
{
glyphname = Schwa;
lastChange = "2015-10-24 18:33:42 +0000";
layers = (
{
layerId = "139F617A-DF90-4219-9825-66026F124FCC";
name = Light;
paths = (
{
closed = 1;
nodes = (
"50 359 LINE",
"50 253 LINE SMOOTH",
"50 100 OFFCURVE",
"135 -10 OFFCURVE",
"321 -10 CURVE SMOOTH",
"534 -10 OFFCURVE",
"620 114 OFFCURVE",
"620 315 CURVE SMOOTH",
"620 541 OFFCURVE",
"518 654 OFFCURVE",
"290 654 CURVE SMOOTH",
"219 654 OFFCURVE",
"145 639 OFFCURVE",
"90 617 CURVE",
"90 551 LINE",
"144 574 OFFCURVE",
"214 588 OFFCURVE",
"272 588 CURVE SMOOTH",
"468 588 OFFCURVE",
"538 517 OFFCURVE",
"545 359 CURVE"
);
},
{
closed = 1;
nodes = (
"195 56 OFFCURVE",
"123 119 OFFCURVE",
"123 240 CURVE SMOOTH",
"123 300 LINE",
"545 300 LINE",
"545 138 OFFCURVE",
"476 56 OFFCURVE",
"321 56 CURVE SMOOTH"
);
}
);
width = 670;
}
);
note = uni018F;
unicode = 018F;
},
{
glyphname = T;
lastChange = "2015-10-24 18:33:42 +0000";
layers = (
{
layerId = "139F617A-DF90-4219-9825-66026F124FCC";
name = Light;
paths = (
{
closed = 1;
nodes = (
"540 579 LINE",
"540 644 LINE",
"30 644 LINE",
"30 579 LINE",
"244 579 LINE",
"244 0 LINE",
"326 0 LINE",
"326 579 LINE"
);
}
);
width = 570;
}
);
leftKerningGroup = T;
note = T;
rightKerningGroup = T;
unicode = 0054;
},
{
glyphname = Tbar;
lastChange = "2015-10-24 18:33:41 +0000";
layers = (
{
layerId = "139F617A-DF90-4219-9825-66026F124FCC";
name = Light;
paths = (
{
closed = 1;
nodes = (
"89 382 LINE",
"89 320 LINE",
"451 320 LINE",
"451 382 LINE"
);
},
{
closed = 1;
nodes = (
"540 579 LINE",
"540 644 LINE",
"30 644 LINE",
"30 579 LINE",
"244 579 LINE",
"244 0 LINE",
"326 0 LINE",
"326 579 LINE"
);
}
);
width = 570;
}
);
leftKerningGroup = T;
note = Tbar;
rightKerningGroup = T;
unicode = 0166;
},
{
glyphname = Tcaron;
lastChange = "2015-10-24 18:33:41 +0000";
layers = (
{
layerId = "139F617A-DF90-4219-9825-66026F124FCC";
name = Light;
paths = (
{
closed = 1;
nodes = (
"540 579 LINE",
"540 644 LINE",
"30 644 LINE",
"30 579 LINE",
"244 579 LINE",
"244 0 LINE",
"326 0 LINE",
"326 579 LINE"
);
},
{
closed = 1;
nodes = (
"433 836 LINE",
"362 836 LINE",
"285 734 LINE",
"208 836 LINE",
"137 836 LINE",
"252 688 LINE",
"318 688 LINE"
);
}
);
width = 570;
}
);
leftKerningGroup = T;
note = Tcaron;
rightKerningGroup = T;
unicode = 0164;
},
{
glyphname = Tcedilla;
lastChange = "2015-10-24 18:33:41 +0000";
layers = (
{
layerId = "139F617A-DF90-4219-9825-66026F124FCC";
name = Light;
paths = (
{
closed = 1;
nodes = (
"540 579 LINE",
"540 644 LINE",
"30 644 LINE",
"30 579 LINE",
"244 579 LINE",
"244 0 LINE",
"326 0 LINE",
"326 579 LINE"
);
},
{
closed = 1;
nodes = (
"408 -81 OFFCURVE",
"370 -48 OFFCURVE",
"297 -48 CURVE",
"313 0 LINE",
"255 0 LINE",
"226 -91 LINE",
"263 -91 LINE SMOOTH",
"320 -91 OFFCURVE",
"348 -98 OFFCURVE",
"348 -137 CURVE SMOOTH",
"348 -178 OFFCURVE",
"320 -190 OFFCURVE",
"258 -190 CURVE SMOOTH",
"236 -190 OFFCURVE",
"213 -187 OFFCURVE",
"195 -182 CURVE",
"195 -232 LINE",
"210 -236 OFFCURVE",
"243 -240 OFFCURVE",
"265 -240 CURVE SMOOTH",
"364 -240 OFFCURVE",
"408 -203 OFFCURVE",
"408 -138 CURVE SMOOTH"
);
}
);
width = 570;
}
);
leftKerningGroup = T;
note = Tcedilla;
rightKerningGroup = T;
unicode = 0162;
},
{
glyphname = Tcommaaccent;
lastChange = "2015-10-24 18:33:42 +0000";
layers = (
{
layerId = "139F617A-DF90-4219-9825-66026F124FCC";
name = Light;
paths = (
{
closed = 1;
nodes = (
"540 579 LINE",
"540 644 LINE",
"30 644 LINE",
"30 579 LINE",
"244 579 LINE",
"244 0 LINE",
"326 0 LINE",
"326 579 LINE"
);
},
{
closed = 1;
nodes = (
"282 -219 LINE",
"324 -42 LINE",
"250 -42 LINE",
"222 -219 LINE"
);
}
);
width = 570;
}
);
leftKerningGroup = T;
note = Tcommaaccent;
rightKerningGroup = T;
unicode = 021A;
},
{
glyphname = Tdotbelow;
lastChange = "2015-10-24 18:33:41 +0000";
layers = (
{
layerId = "139F617A-DF90-4219-9825-66026F124FCC";
name = Light;
paths = (
{
closed = 1;
nodes = (
"540 579 LINE",
"540 644 LINE",
"30 644 LINE",
"30 579 LINE",
"244 579 LINE",
"244 0 LINE",
"326 0 LINE",
"326 579 LINE"
);
},
{
closed = 1;
nodes = (
"325 -159 LINE",
"325 -82 LINE",
"245 -82 LINE",
"245 -159 LINE"
);
}
);
width = 570;
}
);
leftKerningGroup = T;
note = Tdotbelow;
rightKerningGroup = T;
unicode = 1E6C;
},
{
glyphname = Tlinebelow;
lastChange = "2015-10-24 18:33:41 +0000";
layers = (
{
layerId = "139F617A-DF90-4219-9825-66026F124FCC";
name = Light;
paths = (
{
closed = 1;
nodes = (
"540 579 LINE",
"540 644 LINE",
"30 644 LINE",
"30 579 LINE",
"244 579 LINE",
"244 0 LINE",
"326 0 LINE",
"326 579 LINE"
);
},
{
closed = 1;
nodes = (
"141 -66 LINE",
"141 -125 LINE",
"429 -125 LINE",
"429 -66 LINE"
);
}
);
width = 570;
}
);
leftKerningGroup = T;
note = Tlinebelow;
rightKerningGroup = T;
unicode = 1E6E;
},
{
glyphname = U;
lastChange = "2015-10-24 18:33:41 +0000";
layers = (
{
layerId = "139F617A-DF90-4219-9825-66026F124FCC";
name = Light;
paths = (
{
closed = 1;
nodes = (
"216 60 OFFCURVE",
"147 117 OFFCURVE",
"147 235 CURVE SMOOTH",
"147 644 LINE",
"65 644 LINE",
"65 236 LINE SMOOTH",
"65 76 OFFCURVE",
"160 -10 OFFCURVE",
"336 -10 CURVE SMOOTH",
"511 -10 OFFCURVE",
"606 76 OFFCURVE",
"606 236 CURVE SMOOTH",
"606 644 LINE",
"524 644 LINE",
"524 235 LINE SMOOTH",
"524 117 OFFCURVE",
"455 60 OFFCURVE",
"336 60 CURVE SMOOTH"
);
}
);
width = 671;
}
);
leftKerningGroup = U;
note = U;
rightKerningGroup = U;
unicode = 0055;
},
{
glyphname = Uacute;
lastChange = "2015-10-24 18:33:41 +0000";
layers = (
{
layerId = "139F617A-DF90-4219-9825-66026F124FCC";
name = Light;
paths = (
{
closed = 1;
nodes = (
"216 60 OFFCURVE",
"147 117 OFFCURVE",
"147 235 CURVE SMOOTH",
"147 644 LINE",
"65 644 LINE",
"65 236 LINE SMOOTH",
"65 76 OFFCURVE",
"160 -10 OFFCURVE",
"336 -10 CURVE SMOOTH",
"511 -10 OFFCURVE",
"606 76 OFFCURVE",
"606 236 CURVE SMOOTH",
"606 644 LINE",
"524 644 LINE",
"524 235 LINE SMOOTH",
"524 117 OFFCURVE",
"455 60 OFFCURVE",
"336 60 CURVE SMOOTH"
);
},
{
closed = 1;
nodes = (
"361 688 LINE",
"440 856 LINE",
"366 856 LINE",
"295 688 LINE"
);
}
);
width = 671;
}
);
leftKerningGroup = U;
note = Uacute;
rightKerningGroup = U;
unicode = 00DA;
},
{
glyphname = Ubreve;
lastChange = "2015-10-24 18:33:41 +0000";
layers = (
{
layerId = "139F617A-DF90-4219-9825-66026F124FCC";
name = Light;
paths = (
{
closed = 1;
nodes = (
"216 60 OFFCURVE",
"147 117 OFFCURVE",
"147 235 CURVE SMOOTH",
"147 644 LINE",
"65 644 LINE",
"65 236 LINE SMOOTH",
"65 76 OFFCURVE",
"160 -10 OFFCURVE",
"336 -10 CURVE SMOOTH",
"511 -10 OFFCURVE",
"606 76 OFFCURVE",
"606 236 CURVE SMOOTH",
"606 644 LINE",
"524 644 LINE",
"524 235 LINE SMOOTH",
"524 117 OFFCURVE",
"455 60 OFFCURVE",
"336 60 CURVE SMOOTH"
);
},
{
closed = 1;
nodes = (
"189 814 LINE",
"189 739 OFFCURVE",
"232 688 OFFCURVE",
"315 688 CURVE SMOOTH",
"399 688 OFFCURVE",
"443 739 OFFCURVE",
"443 814 CURVE",
"385 814 LINE",
"385 763 OFFCURVE",
"359 740 OFFCURVE",
"315 740 CURVE SMOOTH",
"273 740 OFFCURVE",
"247 763 OFFCURVE",
"247 814 CURVE"
);
}
);
width = 671;
}
);
leftKerningGroup = U;
note = Ubreve;
rightKerningGroup = U;
unicode = 016C;
},
{
glyphname = Ucaron;
lastChange = "2015-10-24 18:33:42 +0000";
layers = (
{
layerId = "139F617A-DF90-4219-9825-66026F124FCC";
name = Light;
paths = (
{
closed = 1;
nodes = (
"216 60 OFFCURVE",
"147 117 OFFCURVE",
"147 235 CURVE SMOOTH",
"147 644 LINE",
"65 644 LINE",
"65 236 LINE SMOOTH",
"65 76 OFFCURVE",
"160 -10 OFFCURVE",
"336 -10 CURVE SMOOTH",
"511 -10 OFFCURVE",
"606 76 OFFCURVE",
"606 236 CURVE SMOOTH",
"606 644 LINE",
"524 644 LINE",
"524 235 LINE SMOOTH",
"524 117 OFFCURVE",
"455 60 OFFCURVE",
"336 60 CURVE SMOOTH"
);
},
{
closed = 1;
nodes = (
"483 836 LINE",
"412 836 LINE",
"335 734 LINE",
"258 836 LINE",
"187 836 LINE",
"302 688 LINE",
"368 688 LINE"
);
}
);
width = 671;
}
);
leftKerningGroup = U;
note = Ucaron;
rightKerningGroup = U;
unicode = 01D3;
},
{
glyphname = Ucircumflex;
lastChange = "2015-10-24 18:33:41 +0000";
layers = (
{
layerId = "139F617A-DF90-4219-9825-66026F124FCC";
name = Light;
paths = (
{
closed = 1;
nodes = (
"216 60 OFFCURVE",
"147 117 OFFCURVE",
"147 235 CURVE SMOOTH",
"147 644 LINE",
"65 644 LINE",
"65 236 LINE SMOOTH",
"65 76 OFFCURVE",
"160 -10 OFFCURVE",
"336 -10 CURVE SMOOTH",
"511 -10 OFFCURVE",
"606 76 OFFCURVE",
"606 236 CURVE SMOOTH",
"606 644 LINE",
"524 644 LINE",
"524 235 LINE SMOOTH",
"524 117 OFFCURVE",
"455 60 OFFCURVE",
"336 60 CURVE SMOOTH"
);
},
{
closed = 1;
nodes = (
"368 836 LINE",
"302 836 LINE",
"187 688 LINE",
"258 688 LINE",
"335 790 LINE",
"412 688 LINE",
"483 688 LINE"
);
}
);
width = 671;
}
);
leftKerningGroup = U;
note = Ucircumflex;
rightKerningGroup = U;
unicode = 00DB;
},
{
glyphname = Udieresis;
lastChange = "2015-10-24 18:33:41 +0000";
layers = (
{
layerId = "139F617A-DF90-4219-9825-66026F124FCC";
name = Light;
paths = (
{
closed = 1;
nodes = (
"216 60 OFFCURVE",
"147 117 OFFCURVE",
"147 235 CURVE SMOOTH",
"147 644 LINE",
"65 644 LINE",
"65 236 LINE SMOOTH",
"65 76 OFFCURVE",
"160 -10 OFFCURVE",
"336 -10 CURVE SMOOTH",
"511 -10 OFFCURVE",
"606 76 OFFCURVE",
"606 236 CURVE SMOOTH",
"606 644 LINE",
"524 644 LINE",
"524 235 LINE SMOOTH",
"524 117 OFFCURVE",
"455 60 OFFCURVE",
"336 60 CURVE SMOOTH"
);
},
{
closed = 1;
nodes = (
"274 711 LINE",
"274 786 LINE",
"196 786 LINE",
"196 711 LINE"
);
},
{
closed = 1;
nodes = (
"450 711 LINE",
"450 786 LINE",
"372 786 LINE",
"372 711 LINE"
);
}
);
width = 671;
}
);
leftKerningGroup = U;
note = Udieresis;
rightKerningGroup = U;
unicode = 00DC;
},
{
glyphname = Udieresisacute;
lastChange = "2015-10-24 18:33:41 +0000";
layers = (
{
layerId = "139F617A-DF90-4219-9825-66026F124FCC";
name = Light;
paths = (
{
closed = 1;
nodes = (
"216 60 OFFCURVE",
"147 117 OFFCURVE",
"147 235 CURVE SMOOTH",
"147 644 LINE",
"65 644 LINE",
"65 236 LINE SMOOTH",
"65 76 OFFCURVE",
"160 -10 OFFCURVE",
"336 -10 CURVE SMOOTH",
"511 -10 OFFCURVE",
"606 76 OFFCURVE",
"606 236 CURVE SMOOTH",
"606 644 LINE",
"524 644 LINE",
"524 235 LINE SMOOTH",
"524 117 OFFCURVE",
"455 60 OFFCURVE",
"336 60 CURVE SMOOTH"
);
},
{
closed = 1;
nodes = (
"277 688 LINE",
"277 763 LINE",
"199 763 LINE",
"199 688 LINE"
);
},
{
closed = 1;
nodes = (
"473 688 LINE",
"473 763 LINE",
"395 763 LINE",
"395 688 LINE"
);
},
{
closed = 1;
nodes = (
"363 771 LINE",
"431 896 LINE",
"366 896 LINE",
"304 771 LINE"
);
}
);
width = 671;
}
);
leftKerningGroup = U;
note = Udieresisacute;
rightKerningGroup = U;
unicode = 01D7;
},
{
glyphname = Udieresiscaron;
lastChange = "2015-10-24 18:33:41 +0000";
layers = (
{
layerId = "139F617A-DF90-4219-9825-66026F124FCC";
name = Light;
paths = (
{
closed = 1;
nodes = (
"216 60 OFFCURVE",
"147 117 OFFCURVE",
"147 235 CURVE SMOOTH",
"147 644 LINE",
"65 644 LINE",
"65 236 LINE SMOOTH",
"65 76 OFFCURVE",
"160 -10 OFFCURVE",
"336 -10 CURVE SMOOTH",
"511 -10 OFFCURVE",
"606 76 OFFCURVE",
"606 236 CURVE SMOOTH",
"606 644 LINE",
"524 644 LINE",
"524 235 LINE SMOOTH",
"524 117 OFFCURVE",
"455 60 OFFCURVE",
"336 60 CURVE SMOOTH"
);
},
{
closed = 1;
nodes = (
"468 688 LINE",
"468 763 LINE",
"390 763 LINE",
"390 688 LINE"
);
},
{
closed = 1;
nodes = (
"272 688 LINE",
"272 763 LINE",
"194 763 LINE",
"194 688 LINE"
);
},
{
closed = 1;
nodes = (
"302 771 LINE",
"368 771 LINE",
"479 889 LINE",
"410 889 LINE",
"335 806 LINE",
"261 889 LINE",
"191 889 LINE"
);
}
);
width = 671;
}
);
leftKerningGroup = U;
note = Udieresiscaron;
rightKerningGroup = U;
unicode = 01D9;
},
{
glyphname = Udieresisgrave;
lastChange = "2015-10-24 18:33:42 +0000";
layers = (
{
layerId = "139F617A-DF90-4219-9825-66026F124FCC";
name = Light;
paths = (
{
closed = 1;
nodes = (
"216 60 OFFCURVE",
"147 117 OFFCURVE",
"147 235 CURVE SMOOTH",
"147 644 LINE",
"65 644 LINE",
"65 236 LINE SMOOTH",
"65 76 OFFCURVE",
"160 -10 OFFCURVE",
"336 -10 CURVE SMOOTH",
"511 -10 OFFCURVE",
"606 76 OFFCURVE",
"606 236 CURVE SMOOTH",
"606 644 LINE",
"524 644 LINE",
"524 235 LINE SMOOTH",
"524 117 OFFCURVE",
"455 60 OFFCURVE",
"336 60 CURVE SMOOTH"
);
},
{
closed = 1;
nodes = (
"472 688 LINE",
"472 763 LINE",
"394 763 LINE",
"394 688 LINE"
);
},
{
closed = 1;
nodes = (
"276 688 LINE",
"276 763 LINE",
"198 763 LINE",
"198 688 LINE"
);
},
{
closed = 1;
nodes = (
"367 771 LINE",
"305 896 LINE",
"240 896 LINE",
"308 771 LINE"
);
}
);
width = 671;
}
);
leftKerningGroup = U;
note = Udieresisgrave;
rightKerningGroup = U;
unicode = 01DB;
},
{
glyphname = Udieresismacron;
lastChange = "2015-11-24 10:23:57 +0000";
layers = (
{
layerId = "139F617A-DF90-4219-9825-66026F124FCC";
name = Light;
paths = (
{
closed = 1;
nodes = (
"216 60 OFFCURVE",
"147 117 OFFCURVE",
"147 235 CURVE SMOOTH",
"147 644 LINE",
"65 644 LINE",
"65 236 LINE SMOOTH",
"65 76 OFFCURVE",
"160 -10 OFFCURVE",
"336 -10 CURVE SMOOTH",
"511 -10 OFFCURVE",
"606 76 OFFCURVE",
"606 236 CURVE SMOOTH",
"606 644 LINE",
"524 644 LINE",
"524 235 LINE SMOOTH",
"524 117 OFFCURVE",
"455 60 OFFCURVE",
"336 60 CURVE SMOOTH"
);
},
{
closed = 1;
nodes = (
"192 885 LINE",
"192 826 LINE",
"480 826 LINE",
"480 885 LINE"
);
},
{
closed = 1;
nodes = (
"286 705 LINE",
"286 780 LINE",
"208 780 LINE",
"208 705 LINE"
);
},
{
closed = 1;
nodes = (
"462 705 LINE",
"462 780 LINE",
"384 780 LINE",
"384 705 LINE"
);
}
);
width = 671;
}
);
leftKerningGroup = U;
note = Udieresismacron;
rightKerningGroup = U;
unicode = 01D5;
},
{
glyphname = Udotbelow;
lastChange = "2015-10-24 18:33:42 +0000";
layers = (
{
layerId = "139F617A-DF90-4219-9825-66026F124FCC";
name = Light;
paths = (
{
closed = 1;
nodes = (
"216 60 OFFCURVE",
"147 117 OFFCURVE",
"147 235 CURVE SMOOTH",
"147 644 LINE",
"65 644 LINE",
"65 236 LINE SMOOTH",
"65 76 OFFCURVE",
"160 -10 OFFCURVE",
"336 -10 CURVE SMOOTH",
"511 -10 OFFCURVE",
"606 76 OFFCURVE",
"606 236 CURVE SMOOTH",
"606 644 LINE",
"524 644 LINE",
"524 235 LINE SMOOTH",
"524 117 OFFCURVE",
"455 60 OFFCURVE",
"336 60 CURVE SMOOTH"
);
},
{
closed = 1;
nodes = (
"375 -164 LINE",
"375 -87 LINE",
"295 -87 LINE",
"295 -164 LINE"
);
}
);
width = 671;
}
);
leftKerningGroup = U;
note = Udotbelow;
rightKerningGroup = U;
unicode = 1EE4;
},
{
glyphname = Ugrave;
lastChange = "2015-10-24 18:33:41 +0000";
layers = (
{
layerId = "139F617A-DF90-4219-9825-66026F124FCC";
name = Light;
paths = (
{
closed = 1;
nodes = (
"216 60 OFFCURVE",
"147 117 OFFCURVE",
"147 235 CURVE SMOOTH",
"147 644 LINE",
"65 644 LINE",
"65 236 LINE SMOOTH",
"65 76 OFFCURVE",
"160 -10 OFFCURVE",
"336 -10 CURVE SMOOTH",
"511 -10 OFFCURVE",
"606 76 OFFCURVE",
"606 236 CURVE SMOOTH",
"606 644 LINE",
"524 644 LINE",
"524 235 LINE SMOOTH",
"524 117 OFFCURVE",
"455 60 OFFCURVE",
"336 60 CURVE SMOOTH"
);
},
{
closed = 1;
nodes = (
"385 688 LINE",
"314 856 LINE",
"240 856 LINE",
"319 688 LINE"
);
}
);
width = 671;
}
);
leftKerningGroup = U;
note = Ugrave;
rightKerningGroup = U;
unicode = 00D9;
},
{
glyphname = Uhookabove;
lastChange = "2015-10-24 18:33:42 +0000";
layers = (
{
layerId = "139F617A-DF90-4219-9825-66026F124FCC";
name = Light;
paths = (
{
closed = 1;
nodes = (
"216 60 OFFCURVE",
"147 117 OFFCURVE",
"147 235 CURVE SMOOTH",
"147 644 LINE",
"65 644 LINE",
"65 236 LINE SMOOTH",
"65 76 OFFCURVE",
"160 -10 OFFCURVE",
"336 -10 CURVE SMOOTH",
"511 -10 OFFCURVE",
"606 76 OFFCURVE",
"606 236 CURVE SMOOTH",
"606 644 LINE",
"524 644 LINE",
"524 235 LINE SMOOTH",
"524 117 OFFCURVE",
"455 60 OFFCURVE",
"336 60 CURVE SMOOTH"
);
},
{
closed = 1;
nodes = (
"454 886 OFFCURVE",
"412 920 OFFCURVE",
"333 920 CURVE SMOOTH",
"304 920 OFFCURVE",
"268 915 OFFCURVE",
"248 907 CURVE",
"248 856 LINE",
"265 863 OFFCURVE",
"293 868 OFFCURVE",
"314 868 CURVE SMOOTH",
"367 868 OFFCURVE",
"392 856 OFFCURVE",
"392 823 CURVE SMOOTH",
"392 788 OFFCURVE",
"377 775 OFFCURVE",
"299 771 CURVE",
"299 688 LINE",
"365 688 LINE",
"365 736 LINE",
"432 745 OFFCURVE",
"454 775 OFFCURVE",
"454 829 CURVE SMOOTH"
);
}
);
width = 671;
}
);
leftKerningGroup = U;
note = Uhookabove;
rightKerningGroup = U;
unicode = 1EE6;
},
{
glyphname = Uhorn;
lastChange = "2015-10-24 18:33:41 +0000";
layers = (
{
layerId = "139F617A-DF90-4219-9825-66026F124FCC";
name = Light;
paths = (
{
closed = 1;
nodes = (
"216 60 OFFCURVE",
"147 117 OFFCURVE",
"147 235 CURVE SMOOTH",
"147 644 LINE",
"65 644 LINE",
"65 236 LINE SMOOTH",
"65 76 OFFCURVE",
"160 -10 OFFCURVE",
"336 -10 CURVE SMOOTH",
"511 -10 OFFCURVE",
"606 76 OFFCURVE",
"606 236 CURVE SMOOTH",
"606 505 LINE",
"719 506 OFFCURVE",
"775 552 OFFCURVE",
"775 688 CURVE",
"704 688 LINE",
"704 598 OFFCURVE",
"683 570 OFFCURVE",
"606 569 CURVE",
"606 644 LINE",
"524 644 LINE",
"524 235 LINE SMOOTH",
"524 117 OFFCURVE",
"455 60 OFFCURVE",
"336 60 CURVE SMOOTH"
);
}
);
width = 805;
}
);
leftKerningGroup = U;
note = Uhorn;
rightKerningGroup = U;
unicode = 01AF;
},
{
glyphname = Uhornacute;
lastChange = "2015-10-24 18:33:41 +0000";
layers = (
{
layerId = "139F617A-DF90-4219-9825-66026F124FCC";
name = Light;
paths = (
{
closed = 1;
nodes = (
"216 60 OFFCURVE",
"147 117 OFFCURVE",
"147 235 CURVE SMOOTH",
"147 644 LINE",
"65 644 LINE",
"65 236 LINE SMOOTH",
"65 76 OFFCURVE",
"160 -10 OFFCURVE",
"336 -10 CURVE SMOOTH",
"511 -10 OFFCURVE",
"606 76 OFFCURVE",
"606 236 CURVE SMOOTH",
"606 505 LINE",
"719 506 OFFCURVE",
"775 552 OFFCURVE",
"775 688 CURVE",
"704 688 LINE",
"704 598 OFFCURVE",
"683 570 OFFCURVE",
"606 569 CURVE",
"606 644 LINE",
"524 644 LINE",
"524 235 LINE SMOOTH",
"524 117 OFFCURVE",
"455 60 OFFCURVE",
"336 60 CURVE SMOOTH"
);
},
{
closed = 1;
nodes = (
"376 688 LINE",
"455 856 LINE",
"381 856 LINE",
"310 688 LINE"
);
}
);
width = 805;
}
);
leftKerningGroup = U;
note = Uhornacute;
rightKerningGroup = U;
unicode = 1EE8;
},
{
glyphname = Uhorndotbelow;
lastChange = "2015-10-24 18:33:42 +0000";
layers = (
{
layerId = "139F617A-DF90-4219-9825-66026F124FCC";
name = Light;
paths = (
{
closed = 1;
nodes = (
"216 60 OFFCURVE",
"147 117 OFFCURVE",
"147 235 CURVE SMOOTH",
"147 644 LINE",
"65 644 LINE",
"65 236 LINE SMOOTH",
"65 76 OFFCURVE",
"160 -10 OFFCURVE",
"336 -10 CURVE SMOOTH",
"511 -10 OFFCURVE",
"606 76 OFFCURVE",
"606 236 CURVE SMOOTH",
"606 505 LINE",
"719 506 OFFCURVE",
"775 552 OFFCURVE",
"775 688 CURVE",
"704 688 LINE",
"704 598 OFFCURVE",
"683 570 OFFCURVE",
"606 569 CURVE",
"606 644 LINE",
"524 644 LINE",
"524 235 LINE SMOOTH",
"524 117 OFFCURVE",
"455 60 OFFCURVE",
"336 60 CURVE SMOOTH"
);
},
{
closed = 1;
nodes = (
"373 -164 LINE",
"373 -87 LINE",
"293 -87 LINE",
"293 -164 LINE"
);
}
);
width = 805;
}
);
leftKerningGroup = U;
note = Uhorndotbelow;
rightKerningGroup = U;
unicode = 1EF0;
},
{
glyphname = Uhorngrave;
lastChange = "2015-10-24 18:33:41 +0000";
layers = (
{
layerId = "139F617A-DF90-4219-9825-66026F124FCC";
name = Light;
paths = (
{
closed = 1;
nodes = (
"216 60 OFFCURVE",
"147 117 OFFCURVE",
"147 235 CURVE SMOOTH",
"147 644 LINE",
"65 644 LINE",
"65 236 LINE SMOOTH",
"65 76 OFFCURVE",
"160 -10 OFFCURVE",
"336 -10 CURVE SMOOTH",
"511 -10 OFFCURVE",
"606 76 OFFCURVE",
"606 236 CURVE SMOOTH",
"606 505 LINE",
"719 506 OFFCURVE",
"775 552 OFFCURVE",
"775 688 CURVE",
"704 688 LINE",
"704 598 OFFCURVE",
"683 570 OFFCURVE",
"606 569 CURVE",
"606 644 LINE",
"524 644 LINE",
"524 235 LINE SMOOTH",
"524 117 OFFCURVE",
"455 60 OFFCURVE",
"336 60 CURVE SMOOTH"
);
},
{
closed = 1;
nodes = (
"378 688 LINE",
"307 856 LINE",
"233 856 LINE",
"312 688 LINE"
);
}
);
width = 805;
}
);
leftKerningGroup = U;
note = Uhorngrave;
rightKerningGroup = U;
unicode = 1EEA;
},
{
glyphname = Uhornhookabove;
lastChange = "2015-10-24 18:33:42 +0000";
layers = (
{
layerId = "139F617A-DF90-4219-9825-66026F124FCC";
name = Light;
paths = (
{
closed = 1;
nodes = (
"216 60 OFFCURVE",
"147 117 OFFCURVE",
"147 235 CURVE SMOOTH",
"147 644 LINE",
"65 644 LINE",
"65 236 LINE SMOOTH",
"65 76 OFFCURVE",
"160 -10 OFFCURVE",
"336 -10 CURVE SMOOTH",
"511 -10 OFFCURVE",
"606 76 OFFCURVE",
"606 236 CURVE SMOOTH",
"606 505 LINE",
"719 506 OFFCURVE",
"775 552 OFFCURVE",
"775 688 CURVE",
"704 688 LINE",
"704 598 OFFCURVE",
"683 570 OFFCURVE",
"606 569 CURVE",
"606 644 LINE",
"524 644 LINE",
"524 235 LINE SMOOTH",
"524 117 OFFCURVE",
"455 60 OFFCURVE",
"336 60 CURVE SMOOTH"
);
},
{
closed = 1;
nodes = (
"463 886 OFFCURVE",
"421 920 OFFCURVE",
"342 920 CURVE SMOOTH",
"313 920 OFFCURVE",
"277 915 OFFCURVE",
"257 907 CURVE",
"257 856 LINE",
"274 863 OFFCURVE",
"302 868 OFFCURVE",
"323 868 CURVE SMOOTH",
"376 868 OFFCURVE",
"401 856 OFFCURVE",
"401 823 CURVE SMOOTH",
"401 788 OFFCURVE",
"386 775 OFFCURVE",
"308 771 CURVE",
"308 688 LINE",
"374 688 LINE",
"374 736 LINE",
"441 745 OFFCURVE",
"463 775 OFFCURVE",
"463 829 CURVE SMOOTH"
);
}
);
width = 805;
}
);
leftKerningGroup = U;
note = Uhornhookabove;
rightKerningGroup = U;
unicode = 1EEC;
},
{
glyphname = Uhorntilde;
lastChange = "2015-10-24 18:33:41 +0000";
layers = (
{
layerId = "139F617A-DF90-4219-9825-66026F124FCC";
name = Light;
paths = (
{
closed = 1;
nodes = (
"216 60 OFFCURVE",
"147 117 OFFCURVE",
"147 235 CURVE SMOOTH",
"147 644 LINE",
"65 644 LINE",
"65 236 LINE SMOOTH",
"65 76 OFFCURVE",
"160 -10 OFFCURVE",
"336 -10 CURVE SMOOTH",
"511 -10 OFFCURVE",
"606 76 OFFCURVE",
"606 236 CURVE SMOOTH",
"606 505 LINE",
"719 506 OFFCURVE",
"775 552 OFFCURVE",
"775 688 CURVE",
"704 688 LINE",
"704 598 OFFCURVE",
"683 570 OFFCURVE",
"606 569 CURVE",
"606 644 LINE",
"524 644 LINE",
"524 235 LINE SMOOTH",
"524 117 OFFCURVE",
"455 60 OFFCURVE",
"336 60 CURVE SMOOTH"
);
},
{
closed = 1;
nodes = (
"443 707 OFFCURVE",
"473 719 OFFCURVE",
"486 737 CURVE",
"486 801 LINE",
"468 776 OFFCURVE",
"443 765 OFFCURVE",
"409 765 CURVE SMOOTH",
"360 765 OFFCURVE",
"320 803 OFFCURVE",
"265 803 CURVE SMOOTH",
"234 803 OFFCURVE",
"198 791 OFFCURVE",
"182 773 CURVE",
"182 710 LINE",
"204 736 OFFCURVE",
"233 745 OFFCURVE",
"265 745 CURVE SMOOTH",
"308 745 OFFCURVE",
"357 707 OFFCURVE",
"409 707 CURVE SMOOTH"
);
}
);
width = 805;
}
);
leftKerningGroup = U;
note = Uhorntilde;
rightKerningGroup = U;
unicode = 1EEE;
},
{
glyphname = Uhungarumlaut;
lastChange = "2015-10-24 18:33:41 +0000";
layers = (
{
layerId = "139F617A-DF90-4219-9825-66026F124FCC";
name = Light;
paths = (
{
closed = 1;
nodes = (
"216 60 OFFCURVE",
"147 117 OFFCURVE",
"147 235 CURVE SMOOTH",
"147 644 LINE",
"65 644 LINE",
"65 236 LINE SMOOTH",
"65 76 OFFCURVE",
"160 -10 OFFCURVE",
"336 -10 CURVE SMOOTH",
"511 -10 OFFCURVE",
"606 76 OFFCURVE",
"606 236 CURVE SMOOTH",
"606 644 LINE",
"524 644 LINE",
"524 235 LINE SMOOTH",
"524 117 OFFCURVE",
"455 60 OFFCURVE",
"336 60 CURVE SMOOTH"
);
},
{
closed = 1;
nodes = (
"228 688 LINE",
"309 840 LINE",
"231 840 LINE",
"160 688 LINE"
);
},
{
closed = 1;
nodes = (
"434 688 LINE",
"515 840 LINE",
"437 840 LINE",
"366 688 LINE"
);
}
);
width = 671;
}
);
leftKerningGroup = U;
note = Uhungarumlaut;
rightKerningGroup = U;
unicode = 0170;
},
{
glyphname = Umacron;
lastChange = "2015-10-24 18:33:42 +0000";
layers = (
{
layerId = "139F617A-DF90-4219-9825-66026F124FCC";
name = Light;
paths = (
{
closed = 1;
nodes = (
"216 60 OFFCURVE",
"147 117 OFFCURVE",
"147 235 CURVE SMOOTH",
"147 644 LINE",
"65 644 LINE",
"65 236 LINE SMOOTH",
"65 76 OFFCURVE",
"160 -10 OFFCURVE",
"336 -10 CURVE SMOOTH",
"511 -10 OFFCURVE",
"606 76 OFFCURVE",
"606 236 CURVE SMOOTH",
"606 644 LINE",
"524 644 LINE",
"524 235 LINE SMOOTH",
"524 117 OFFCURVE",
"455 60 OFFCURVE",
"336 60 CURVE SMOOTH"
);
},
{
closed = 1;
nodes = (
"180 779 LINE",
"180 720 LINE",
"468 720 LINE",
"468 779 LINE"
);
}
);
width = 671;
}
);
leftKerningGroup = U;
note = Umacron;
rightKerningGroup = U;
unicode = 016A;
},
{
glyphname = Uogonek;
lastChange = "2015-10-24 18:33:42 +0000";
layers = (
{
layerId = "139F617A-DF90-4219-9825-66026F124FCC";
name = Light;
paths = (
{
closed = 1;
nodes = (
"216 60 OFFCURVE",
"147 117 OFFCURVE",
"147 235 CURVE SMOOTH",
"147 644 LINE",
"65 644 LINE",
"65 236 LINE SMOOTH",
"65 76 OFFCURVE",
"160 -10 OFFCURVE",
"336 -10 CURVE SMOOTH",
"511 -10 OFFCURVE",
"606 76 OFFCURVE",
"606 236 CURVE SMOOTH",
"606 644 LINE",
"524 644 LINE",
"524 235 LINE SMOOTH",
"524 117 OFFCURVE",
"455 60 OFFCURVE",
"336 60 CURVE SMOOTH"
);
},
{
closed = 1;
nodes = (
"313 -77 OFFCURVE",
"338 -35 OFFCURVE",
"385 0 CURVE",
"321 0 LINE",
"277 -30 OFFCURVE",
"246 -80 OFFCURVE",
"246 -132 CURVE SMOOTH",
"246 -195 OFFCURVE",
"291 -220 OFFCURVE",
"345 -220 CURVE SMOOTH",
"369 -220 OFFCURVE",
"397 -216 OFFCURVE",
"413 -208 CURVE",
"413 -152 LINE",
"401 -159 OFFCURVE",
"380 -163 OFFCURVE",
"363 -163 CURVE SMOOTH",
"330 -163 OFFCURVE",
"313 -154 OFFCURVE",
"313 -120 CURVE SMOOTH"
);
}
);
width = 671;
}
);
leftKerningGroup = U;
note = Uogonek;
rightKerningGroup = U;
unicode = 0172;
},
{
glyphname = Uring;
lastChange = "2015-10-24 18:33:42 +0000";
layers = (
{
layerId = "139F617A-DF90-4219-9825-66026F124FCC";
name = Light;
paths = (
{
closed = 1;
nodes = (
"216 60 OFFCURVE",
"147 117 OFFCURVE",
"147 235 CURVE SMOOTH",
"147 644 LINE",
"65 644 LINE",
"65 236 LINE SMOOTH",
"65 76 OFFCURVE",
"160 -10 OFFCURVE",
"336 -10 CURVE SMOOTH",
"511 -10 OFFCURVE",
"606 76 OFFCURVE",
"606 236 CURVE SMOOTH",
"606 644 LINE",
"524 644 LINE",
"524 235 LINE SMOOTH",
"524 117 OFFCURVE",
"455 60 OFFCURVE",
"336 60 CURVE SMOOTH"
);
},
{
closed = 1;
nodes = (
"214 735 OFFCURVE",
"259 688 OFFCURVE",
"323 688 CURVE SMOOTH",
"389 688 OFFCURVE",
"434 735 OFFCURVE",
"434 795 CURVE SMOOTH",
"434 855 OFFCURVE",
"389 903 OFFCURVE",
"323 903 CURVE SMOOTH",
"259 903 OFFCURVE",
"214 855 OFFCURVE",
"214 795 CURVE SMOOTH"
);
},
{
closed = 1;
nodes = (
"262 829 OFFCURVE",
"288 856 OFFCURVE",
"323 856 CURVE SMOOTH",
"360 856 OFFCURVE",
"385 829 OFFCURVE",
"385 795 CURVE SMOOTH",
"385 761 OFFCURVE",
"360 734 OFFCURVE",
"323 734 CURVE SMOOTH",
"288 734 OFFCURVE",
"262 761 OFFCURVE",
"262 795 CURVE SMOOTH"
);
}
);
width = 671;
}
);
leftKerningGroup = U;
note = Uring;
rightKerningGroup = U;
unicode = 016E;
},
{
glyphname = Utilde;
lastChange = "2015-10-24 18:33:42 +0000";
layers = (
{
layerId = "139F617A-DF90-4219-9825-66026F124FCC";
name = Light;
paths = (
{
closed = 1;
nodes = (
"216 60 OFFCURVE",
"147 117 OFFCURVE",
"147 235 CURVE SMOOTH",
"147 644 LINE",
"65 644 LINE",
"65 236 LINE SMOOTH",
"65 76 OFFCURVE",
"160 -10 OFFCURVE",
"336 -10 CURVE SMOOTH",
"511 -10 OFFCURVE",
"606 76 OFFCURVE",
"606 236 CURVE SMOOTH",
"606 644 LINE",
"524 644 LINE",
"524 235 LINE SMOOTH",
"524 117 OFFCURVE",
"455 60 OFFCURVE",
"336 60 CURVE SMOOTH"
);
},
{
closed = 1;
nodes = (
"433 708 OFFCURVE",
"463 720 OFFCURVE",
"476 738 CURVE",
"476 802 LINE",
"458 777 OFFCURVE",
"433 766 OFFCURVE",
"399 766 CURVE SMOOTH",
"350 766 OFFCURVE",
"310 804 OFFCURVE",
"255 804 CURVE SMOOTH",
"224 804 OFFCURVE",
"188 792 OFFCURVE",
"172 774 CURVE",
"172 711 LINE",
"194 737 OFFCURVE",
"223 746 OFFCURVE",
"255 746 CURVE SMOOTH",
"298 746 OFFCURVE",
"347 708 OFFCURVE",
"399 708 CURVE SMOOTH"
);
}
);
width = 671;
}
);
leftKerningGroup = U;
note = Utilde;
rightKerningGroup = U;
unicode = 0168;
},
{
glyphname = V;
lastChange = "2015-10-24 18:33:42 +0000";
layers = (
{
layerId = "139F617A-DF90-4219-9825-66026F124FCC";
name = Light;
paths = (
{
closed = 1;
nodes = (
"342 83 LINE",
"135 644 LINE",
"50 644 LINE",
"295 0 LINE",
"391 0 LINE",
"635 644 LINE",
"550 644 LINE"
);
}
);
width = 685;
}
);
note = V;
unicode = 0056;
},
{
glyphname = W;
lastChange = "2015-10-24 18:33:41 +0000";
layers = (
{
layerId = "139F617A-DF90-4219-9825-66026F124FCC";
name = Light;
paths = (
{
closed = 1;
nodes = (
"575 0 LINE",
"662 0 LINE",
"811 644 LINE",
"731 644 LINE",
"608 114 LINE",
"458 644 LINE",
"391 644 LINE",
"391 573 LINE",
"252 114 LINE",
"131 644 LINE",
"50 644 LINE",
"200 0 LINE",
"288 0 LINE",
"435 490 LINE"
);
}
);
width = 861;
}
);
leftKerningGroup = W;
note = W;
rightKerningGroup = W;
unicode = 0057;
},
{
glyphname = Wacute;
lastChange = "2015-10-24 18:33:42 +0000";
layers = (
{
layerId = "139F617A-DF90-4219-9825-66026F124FCC";
name = Light;
paths = (
{
closed = 1;
nodes = (
"575 0 LINE",
"662 0 LINE",
"811 644 LINE",
"731 644 LINE",
"608 114 LINE",
"458 644 LINE",
"391 644 LINE",
"391 573 LINE",
"252 114 LINE",
"131 644 LINE",
"50 644 LINE",
"200 0 LINE",
"288 0 LINE",
"435 490 LINE"
);
},
{
closed = 1;
nodes = (
"465 688 LINE",
"544 856 LINE",
"470 856 LINE",
"399 688 LINE"
);
}
);
width = 861;
}
);
leftKerningGroup = W;
note = Wacute;
rightKerningGroup = W;
unicode = 1E82;
},
{
glyphname = Wcircumflex;
lastChange = "2015-10-24 18:33:41 +0000";
layers = (
{
layerId = "139F617A-DF90-4219-9825-66026F124FCC";
name = Light;
paths = (
{
closed = 1;
nodes = (
"575 0 LINE",
"662 0 LINE",
"811 644 LINE",
"731 644 LINE",
"608 114 LINE",
"458 644 LINE",
"391 644 LINE",
"391 573 LINE",
"252 114 LINE",
"131 644 LINE",
"50 644 LINE",
"200 0 LINE",
"288 0 LINE",
"435 490 LINE"
);
},
{
closed = 1;
nodes = (
"468 836 LINE",
"402 836 LINE",
"287 688 LINE",
"358 688 LINE",
"435 790 LINE",
"512 688 LINE",
"583 688 LINE"
);
}
);
width = 861;
}
);
leftKerningGroup = W;
note = Wcircumflex;
rightKerningGroup = W;
unicode = 0174;
},
{
glyphname = Wdieresis;
lastChange = "2015-10-24 18:33:42 +0000";
layers = (
{
layerId = "139F617A-DF90-4219-9825-66026F124FCC";
name = Light;
paths = (
{
closed = 1;
nodes = (
"575 0 LINE",
"662 0 LINE",
"811 644 LINE",
"731 644 LINE",
"608 114 LINE",
"458 644 LINE",
"391 644 LINE",
"391 573 LINE",
"252 114 LINE",
"131 644 LINE",
"50 644 LINE",
"200 0 LINE",
"288 0 LINE",
"435 490 LINE"
);
},
{
closed = 1;
nodes = (
"386 708 LINE",
"386 783 LINE",
"308 783 LINE",
"308 708 LINE"
);
},
{
closed = 1;
nodes = (
"562 708 LINE",
"562 783 LINE",
"484 783 LINE",
"484 708 LINE"
);
}
);
width = 861;
}
);
leftKerningGroup = W;
note = Wdieresis;
rightKerningGroup = W;
unicode = 1E84;
},
{
glyphname = Wgrave;
lastChange = "2015-10-24 18:33:41 +0000";
layers = (
{
layerId = "139F617A-DF90-4219-9825-66026F124FCC";
name = Light;
paths = (
{
closed = 1;
nodes = (
"575 0 LINE",
"662 0 LINE",
"811 644 LINE",
"731 644 LINE",
"608 114 LINE",
"458 644 LINE",
"391 644 LINE",
"391 573 LINE",
"252 114 LINE",
"131 644 LINE",
"50 644 LINE",
"200 0 LINE",
"288 0 LINE",
"435 490 LINE"
);
},
{
closed = 1;
nodes = (
"460 688 LINE",
"389 856 LINE",
"315 856 LINE",
"394 688 LINE"
);
}
);
width = 861;
}
);
leftKerningGroup = W;
note = Wgrave;
rightKerningGroup = W;
unicode = 1E80;
},
{
glyphname = X;
lastChange = "2015-10-24 18:33:41 +0000";
layers = (
{
layerId = "139F617A-DF90-4219-9825-66026F124FCC";
name = Light;
paths = (
{
closed = 1;
nodes = (
"602 0 LINE",
"375 320 LINE",
"599 644 LINE",
"505 644 LINE",
"326 381 LINE",
"147 644 LINE",
"53 644 LINE",
"277 320 LINE",
"50 0 LINE",
"145 0 LINE",
"326 257 LINE",
"507 0 LINE"
);
}
);
width = 652;
}
);
note = X;
unicode = 0058;
},
{
glyphname = Y;
lastChange = "2015-10-24 18:33:41 +0000";
layers = (
{
layerId = "139F617A-DF90-4219-9825-66026F124FCC";
name = Light;
paths = (
{
closed = 1;
nodes = (
"362 0 LINE",
"362 240 LINE",
"592 644 LINE",
"507 644 LINE",
"321 310 LINE",
"135 644 LINE",
"50 644 LINE",
"280 240 LINE",
"280 0 LINE"
);
}
);
width = 642;
}
);
leftKerningGroup = Y;
note = Y;
rightKerningGroup = Y;
unicode = 0059;
},
{
glyphname = Yacute;
lastChange = "2015-10-24 18:33:41 +0000";
layers = (
{
layerId = "139F617A-DF90-4219-9825-66026F124FCC";
name = Light;
paths = (
{
closed = 1;
nodes = (
"362 0 LINE",
"362 240 LINE",
"592 644 LINE",
"507 644 LINE",
"321 310 LINE",
"135 644 LINE",
"50 644 LINE",
"280 240 LINE",
"280 0 LINE"
);
},
{
closed = 1;
nodes = (
"342 688 LINE",
"421 856 LINE",
"347 856 LINE",
"276 688 LINE"
);
}
);
width = 642;
}
);
leftKerningGroup = Y;
note = Yacute;
rightKerningGroup = Y;
unicode = 00DD;
},
{
glyphname = Ycircumflex;
lastChange = "2015-10-24 18:33:42 +0000";
layers = (
{
layerId = "139F617A-DF90-4219-9825-66026F124FCC";
name = Light;
paths = (
{
closed = 1;
nodes = (
"362 0 LINE",
"362 240 LINE",
"592 644 LINE",
"507 644 LINE",
"321 310 LINE",
"135 644 LINE",
"50 644 LINE",
"280 240 LINE",
"280 0 LINE"
);
},
{
closed = 1;
nodes = (
"354 836 LINE",
"288 836 LINE",
"173 688 LINE",
"244 688 LINE",
"321 790 LINE",
"398 688 LINE",
"469 688 LINE"
);
}
);
width = 642;
}
);
leftKerningGroup = Y;
note = Ycircumflex;
rightKerningGroup = Y;
unicode = 0176;
},
{
glyphname = Ydieresis;
lastChange = "2015-10-24 18:33:42 +0000";
layers = (
{
layerId = "139F617A-DF90-4219-9825-66026F124FCC";
name = Light;
paths = (
{
closed = 1;
nodes = (
"362 0 LINE",
"362 240 LINE",
"592 644 LINE",
"507 644 LINE",
"321 310 LINE",
"135 644 LINE",
"50 644 LINE",
"280 240 LINE",
"280 0 LINE"
);
},
{
closed = 1;
nodes = (
"272 711 LINE",
"272 786 LINE",
"194 786 LINE",
"194 711 LINE"
);
},
{
closed = 1;
nodes = (
"448 711 LINE",
"448 786 LINE",
"370 786 LINE",
"370 711 LINE"
);
}
);
width = 642;
}
);
leftKerningGroup = Y;
note = Ydieresis;
rightKerningGroup = Y;
unicode = 0178;
},
{
glyphname = Ydotaccent;
lastChange = "2015-10-24 18:33:42 +0000";
layers = (
{
layerId = "139F617A-DF90-4219-9825-66026F124FCC";
name = Light;
paths = (
{
closed = 1;
nodes = (
"362 0 LINE",
"362 240 LINE",
"592 644 LINE",
"507 644 LINE",
"321 310 LINE",
"135 644 LINE",
"50 644 LINE",
"280 240 LINE",
"280 0 LINE"
);
},
{
closed = 1;
nodes = (
"361 710 LINE",
"361 787 LINE",
"281 787 LINE",
"281 710 LINE"
);
}
);
width = 642;
}
);
leftKerningGroup = Y;
note = Ydotaccent;
rightKerningGroup = Y;
unicode = 1E8E;
},
{
glyphname = Ydotbelow;
lastChange = "2015-10-24 18:33:41 +0000";
layers = (
{
layerId = "139F617A-DF90-4219-9825-66026F124FCC";
name = Light;
paths = (
{
closed = 1;
nodes = (
"362 0 LINE",
"362 240 LINE",
"592 644 LINE",
"507 644 LINE",
"321 310 LINE",
"135 644 LINE",
"50 644 LINE",
"280 240 LINE",
"280 0 LINE"
);
},
{
closed = 1;
nodes = (
"361 -149 LINE",
"361 -72 LINE",
"281 -72 LINE",
"281 -149 LINE"
);
}
);
width = 642;
}
);
leftKerningGroup = Y;
note = Ydotbelow;
rightKerningGroup = Y;
unicode = 1EF4;
},
{
glyphname = Ygrave;
lastChange = "2015-10-24 18:33:41 +0000";
layers = (
{
layerId = "139F617A-DF90-4219-9825-66026F124FCC";
name = Light;
paths = (
{
closed = 1;
nodes = (
"362 0 LINE",
"362 240 LINE",
"592 644 LINE",
"507 644 LINE",
"321 310 LINE",
"135 644 LINE",
"50 644 LINE",
"280 240 LINE",
"280 0 LINE"
);
},
{
closed = 1;
nodes = (
"367 688 LINE",
"296 856 LINE",
"222 856 LINE",
"301 688 LINE"
);
}
);
width = 642;
}
);
leftKerningGroup = Y;
note = Ygrave;
rightKerningGroup = Y;
unicode = 1EF2;
},
{
glyphname = Yhookabove;
lastChange = "2015-10-24 18:33:41 +0000";
layers = (
{
layerId = "139F617A-DF90-4219-9825-66026F124FCC";
name = Light;
paths = (
{
closed = 1;
nodes = (
"362 0 LINE",
"362 240 LINE",
"592 644 LINE",
"507 644 LINE",
"321 310 LINE",
"135 644 LINE",
"50 644 LINE",
"280 240 LINE",
"280 0 LINE"
);
},
{
closed = 1;
nodes = (
"434 886 OFFCURVE",
"392 920 OFFCURVE",
"313 920 CURVE SMOOTH",
"284 920 OFFCURVE",
"248 915 OFFCURVE",
"228 907 CURVE",
"228 856 LINE",
"245 863 OFFCURVE",
"273 868 OFFCURVE",
"294 868 CURVE SMOOTH",
"347 868 OFFCURVE",
"372 856 OFFCURVE",
"372 823 CURVE SMOOTH",
"372 788 OFFCURVE",
"357 775 OFFCURVE",
"279 771 CURVE",
"279 688 LINE",
"345 688 LINE",
"345 736 LINE",
"412 745 OFFCURVE",
"434 775 OFFCURVE",
"434 829 CURVE SMOOTH"
);
}
);
width = 642;
}
);
leftKerningGroup = Y;
note = Yhookabove;
rightKerningGroup = Y;
unicode = 1EF6;
},
{
glyphname = Ytilde;
lastChange = "2015-10-24 18:33:41 +0000";
layers = (
{
layerId = "139F617A-DF90-4219-9825-66026F124FCC";
name = Light;
paths = (
{
closed = 1;
nodes = (
"362 0 LINE",
"362 240 LINE",
"592 644 LINE",
"507 644 LINE",
"321 310 LINE",
"135 644 LINE",
"50 644 LINE",
"280 240 LINE",
"280 0 LINE"
);
},
{
closed = 1;
nodes = (
"430 708 OFFCURVE",
"460 720 OFFCURVE",
"473 738 CURVE",
"473 802 LINE",
"455 777 OFFCURVE",
"430 766 OFFCURVE",
"396 766 CURVE SMOOTH",
"347 766 OFFCURVE",
"307 804 OFFCURVE",
"252 804 CURVE SMOOTH",
"221 804 OFFCURVE",
"185 792 OFFCURVE",
"169 774 CURVE",
"169 711 LINE",
"191 737 OFFCURVE",
"220 746 OFFCURVE",
"252 746 CURVE SMOOTH",
"295 746 OFFCURVE",
"344 708 OFFCURVE",
"396 708 CURVE SMOOTH"
);
}
);
width = 642;
}
);
leftKerningGroup = Y;
note = Ytilde;
rightKerningGroup = Y;
unicode = 1EF8;
},
{
glyphname = Z;
lastChange = "2015-10-24 18:33:42 +0000";
layers = (
{
layerId = "139F617A-DF90-4219-9825-66026F124FCC";
name = Light;
paths = (
{
closed = 1;
nodes = (
"527 0 LINE",
"527 64 LINE",
"157 64 LINE",
"522 593 LINE",
"522 644 LINE",
"67 644 LINE",
"67 579 LINE",
"418 579 LINE",
"50 46 LINE",
"50 0 LINE"
);
}
);
width = 572;
}
);
leftKerningGroup = Z;
note = Z;
rightKerningGroup = Z;
unicode = 005A;
},
{
glyphname = Zacute;
lastChange = "2015-10-24 18:33:41 +0000";
layers = (
{
layerId = "139F617A-DF90-4219-9825-66026F124FCC";
name = Light;
paths = (
{
closed = 1;
nodes = (
"527 0 LINE",
"527 64 LINE",
"157 64 LINE",
"522 593 LINE",
"522 644 LINE",
"67 644 LINE",
"67 579 LINE",
"418 579 LINE",
"50 46 LINE",
"50 0 LINE"
);
},
{
closed = 1;
nodes = (
"326 688 LINE",
"405 856 LINE",
"331 856 LINE",
"260 688 LINE"
);
}
);
width = 572;
}
);
leftKerningGroup = Z;
note = Zacute;
rightKerningGroup = Z;
unicode = 0179;
},
{
glyphname = Zcaron;
lastChange = "2015-10-24 18:33:41 +0000";
layers = (
{
layerId = "139F617A-DF90-4219-9825-66026F124FCC";
name = Light;
paths = (
{
closed = 1;
nodes = (
"527 0 LINE",
"527 64 LINE",
"157 64 LINE",
"522 593 LINE",
"522 644 LINE",
"67 644 LINE",
"67 579 LINE",
"418 579 LINE",
"50 46 LINE",
"50 0 LINE"
);
},
{
closed = 1;
nodes = (
"451 836 LINE",
"380 836 LINE",
"303 734 LINE",
"226 836 LINE",
"155 836 LINE",
"270 688 LINE",
"336 688 LINE"
);
}
);
width = 572;
}
);
leftKerningGroup = Z;
note = Zcaron;
rightKerningGroup = Z;
unicode = 017D;
},
{
glyphname = Zdotaccent;
lastChange = "2015-10-24 18:33:42 +0000";
layers = (
{
layerId = "139F617A-DF90-4219-9825-66026F124FCC";
name = Light;
paths = (
{
closed = 1;
nodes = (
"527 0 LINE",
"527 64 LINE",
"157 64 LINE",
"522 593 LINE",
"522 644 LINE",
"67 644 LINE",
"67 579 LINE",
"418 579 LINE",
"50 46 LINE",
"50 0 LINE"
);
},
{
closed = 1;
nodes = (
"335 710 LINE",
"335 787 LINE",
"255 787 LINE",
"255 710 LINE"
);
}
);
width = 572;
}
);
leftKerningGroup = Z;
note = Zdotaccent;
rightKerningGroup = Z;
unicode = 017B;
},
{
glyphname = Zdotbelow;
lastChange = "2015-10-24 18:33:42 +0000";
layers = (
{
layerId = "139F617A-DF90-4219-9825-66026F124FCC";
name = Light;
paths = (
{
closed = 1;
nodes = (
"527 0 LINE",
"527 64 LINE",
"157 64 LINE",
"522 593 LINE",
"522 644 LINE",
"67 644 LINE",
"67 579 LINE",
"418 579 LINE",
"50 46 LINE",
"50 0 LINE"
);
},
{
closed = 1;
nodes = (
"337 -164 LINE",
"337 -87 LINE",
"257 -87 LINE",
"257 -164 LINE"
);
}
);
width = 572;
}
);
leftKerningGroup = Z;
note = Zdotbelow;
rightKerningGroup = Z;
unicode = 1E92;
},
{
glyphname = a;
lastChange = "2015-10-24 18:33:41 +0000";
layers = (
{
layerId = "139F617A-DF90-4219-9825-66026F124FCC";
name = Light;
paths = (
{
closed = 1;
nodes = (
"476 0 LINE",
"476 310 LINE SMOOTH",
"476 433 OFFCURVE",
"408 484 OFFCURVE",
"274 484 CURVE SMOOTH",
"207 484 OFFCURVE",
"147 473 OFFCURVE",
"105 457 CURVE",
"105 389 LINE",
"151 405 OFFCURVE",
"206 415 OFFCURVE",
"263 415 CURVE SMOOTH",
"374 415 OFFCURVE",
"398 387 OFFCURVE",
"398 310 CURVE SMOOTH",
"398 281 LINE",
"233 281 LINE SMOOTH",
"104 281 OFFCURVE",
"50 220 OFFCURVE",
"50 133 CURVE SMOOTH",
"50 37 OFFCURVE",
"126 -10 OFFCURVE",
"217 -10 CURVE SMOOTH",
"304 -10 OFFCURVE",
"360 11 OFFCURVE",
"401 54 CURVE",
"407 0 LINE"
);
},
{
closed = 1;
nodes = (
"398 126 LINE",
"361 83 OFFCURVE",
"307 57 OFFCURVE",
"238 57 CURVE SMOOTH",
"172 57 OFFCURVE",
"131 75 OFFCURVE",
"131 133 CURVE SMOOTH",
"131 190 OFFCURVE",
"160 218 OFFCURVE",
"235 218 CURVE SMOOTH",
"398 218 LINE"
);
}
);
width = 541;
}
);
leftKerningGroup = a;
note = a;
rightKerningGroup = a;
unicode = 0061;
},
{
glyphname = aacute;
lastChange = "2015-11-24 10:24:16 +0000";
layers = (
{
layerId = "139F617A-DF90-4219-9825-66026F124FCC";
name = Light;
paths = (
{
closed = 1;
nodes = (
"476 0 LINE",
"476 310 LINE SMOOTH",
"476 433 OFFCURVE",
"408 484 OFFCURVE",
"274 484 CURVE SMOOTH",
"207 484 OFFCURVE",
"147 473 OFFCURVE",
"105 457 CURVE",
"105 389 LINE",
"151 405 OFFCURVE",
"206 415 OFFCURVE",
"263 415 CURVE SMOOTH",
"374 415 OFFCURVE",
"398 387 OFFCURVE",
"398 310 CURVE SMOOTH",
"398 281 LINE",
"233 281 LINE SMOOTH",
"104 281 OFFCURVE",
"50 220 OFFCURVE",
"50 133 CURVE SMOOTH",
"50 37 OFFCURVE",
"126 -10 OFFCURVE",
"217 -10 CURVE SMOOTH",
"304 -10 OFFCURVE",
"360 11 OFFCURVE",
"401 54 CURVE",
"407 0 LINE"
);
},
{
closed = 1;
nodes = (
"398 126 LINE",
"361 83 OFFCURVE",
"307 57 OFFCURVE",
"238 57 CURVE SMOOTH",
"172 57 OFFCURVE",
"131 75 OFFCURVE",
"131 133 CURVE SMOOTH",
"131 190 OFFCURVE",
"160 218 OFFCURVE",
"235 218 CURVE SMOOTH",
"398 218 LINE"
);
},
{
closed = 1;
nodes = (
"310 522 LINE",
"389 690 LINE",
"315 690 LINE",
"244 522 LINE"
);
}
);
width = 541;
}
);
leftKerningGroup = a;
note = aacute;
rightKerningGroup = a;
unicode = 00E1;
},
{
glyphname = abreve;
lastChange = "2015-10-24 18:33:41 +0000";
layers = (
{
layerId = "139F617A-DF90-4219-9825-66026F124FCC";
name = Light;
paths = (
{
closed = 1;
nodes = (
"476 0 LINE",
"476 310 LINE SMOOTH",
"476 433 OFFCURVE",
"408 484 OFFCURVE",
"274 484 CURVE SMOOTH",
"207 484 OFFCURVE",
"147 473 OFFCURVE",
"105 457 CURVE",
"105 389 LINE",
"151 405 OFFCURVE",
"206 415 OFFCURVE",
"263 415 CURVE SMOOTH",
"374 415 OFFCURVE",
"398 387 OFFCURVE",
"398 310 CURVE SMOOTH",
"398 281 LINE",
"233 281 LINE SMOOTH",
"104 281 OFFCURVE",
"50 220 OFFCURVE",
"50 133 CURVE SMOOTH",
"50 37 OFFCURVE",
"126 -10 OFFCURVE",
"217 -10 CURVE SMOOTH",
"304 -10 OFFCURVE",
"360 11 OFFCURVE",
"401 54 CURVE",
"407 0 LINE"
);
},
{
closed = 1;
nodes = (
"398 126 LINE",
"361 83 OFFCURVE",
"307 57 OFFCURVE",
"238 57 CURVE SMOOTH",
"172 57 OFFCURVE",
"131 75 OFFCURVE",
"131 133 CURVE SMOOTH",
"131 190 OFFCURVE",
"160 218 OFFCURVE",
"235 218 CURVE SMOOTH",
"398 218 LINE"
);
},
{
closed = 1;
nodes = (
"157 648 LINE",
"157 573 OFFCURVE",
"200 522 OFFCURVE",
"283 522 CURVE SMOOTH",
"367 522 OFFCURVE",
"411 573 OFFCURVE",
"411 648 CURVE",
"353 648 LINE",
"353 597 OFFCURVE",
"327 574 OFFCURVE",
"283 574 CURVE SMOOTH",
"241 574 OFFCURVE",
"215 597 OFFCURVE",
"215 648 CURVE"
);
}
);
width = 541;
}
);
leftKerningGroup = a;
note = abreve;
rightKerningGroup = a;
unicode = 0103;
},
{
glyphname = abreveacute;
lastChange = "2015-10-24 18:33:41 +0000";
layers = (
{
layerId = "139F617A-DF90-4219-9825-66026F124FCC";
name = Light;
paths = (
{
closed = 1;
nodes = (
"476 0 LINE",
"476 310 LINE SMOOTH",
"476 433 OFFCURVE",
"408 484 OFFCURVE",
"274 484 CURVE SMOOTH",
"207 484 OFFCURVE",
"147 473 OFFCURVE",
"105 457 CURVE",
"105 389 LINE",
"151 405 OFFCURVE",
"206 415 OFFCURVE",
"263 415 CURVE SMOOTH",
"374 415 OFFCURVE",
"398 387 OFFCURVE",
"398 310 CURVE SMOOTH",
"398 281 LINE",
"233 281 LINE SMOOTH",
"104 281 OFFCURVE",
"50 220 OFFCURVE",
"50 133 CURVE SMOOTH",
"50 37 OFFCURVE",
"126 -10 OFFCURVE",
"217 -10 CURVE SMOOTH",
"304 -10 OFFCURVE",
"360 11 OFFCURVE",
"401 54 CURVE",
"407 0 LINE"
);
},
{
closed = 1;
nodes = (
"398 126 LINE",
"361 83 OFFCURVE",
"307 57 OFFCURVE",
"238 57 CURVE SMOOTH",
"172 57 OFFCURVE",
"131 75 OFFCURVE",
"131 133 CURVE SMOOTH",
"131 190 OFFCURVE",
"160 218 OFFCURVE",
"235 218 CURVE SMOOTH",
"398 218 LINE"
);
},
{
closed = 1;
nodes = (
"234 570 OFFCURVE",
"196 600 OFFCURVE",
"196 662 CURVE",
"144 662 LINE",
"144 560 OFFCURVE",
"211 522 OFFCURVE",
"291 522 CURVE SMOOTH",
"371 522 OFFCURVE",
"438 560 OFFCURVE",
"438 662 CURVE",
"386 662 LINE",
"386 600 OFFCURVE",
"348 570 OFFCURVE",
"291 570 CURVE SMOOTH"
);
},
{
closed = 1;
nodes = (
"311 626 LINE",
"379 751 LINE",
"314 751 LINE",
"252 626 LINE"
);
}
);
width = 541;
}
);
leftKerningGroup = a;
note = abreveacute;
rightKerningGroup = a;
unicode = 1EAF;
},
{
glyphname = abrevedotbelow;
lastChange = "2015-10-24 18:33:42 +0000";
layers = (
{
layerId = "139F617A-DF90-4219-9825-66026F124FCC";
name = Light;
paths = (
{
closed = 1;
nodes = (
"476 0 LINE",
"476 310 LINE SMOOTH",
"476 433 OFFCURVE",
"408 484 OFFCURVE",
"274 484 CURVE SMOOTH",
"207 484 OFFCURVE",
"147 473 OFFCURVE",
"105 457 CURVE",
"105 389 LINE",
"151 405 OFFCURVE",
"206 415 OFFCURVE",
"263 415 CURVE SMOOTH",
"374 415 OFFCURVE",
"398 387 OFFCURVE",
"398 310 CURVE SMOOTH",
"398 281 LINE",
"233 281 LINE SMOOTH",
"104 281 OFFCURVE",
"50 220 OFFCURVE",
"50 133 CURVE SMOOTH",
"50 37 OFFCURVE",
"126 -10 OFFCURVE",
"217 -10 CURVE SMOOTH",
"304 -10 OFFCURVE",
"360 11 OFFCURVE",
"401 54 CURVE",
"407 0 LINE"
);
},
{
closed = 1;
nodes = (
"398 126 LINE",
"361 83 OFFCURVE",
"307 57 OFFCURVE",
"238 57 CURVE SMOOTH",
"172 57 OFFCURVE",
"131 75 OFFCURVE",
"131 133 CURVE SMOOTH",
"131 190 OFFCURVE",
"160 218 OFFCURVE",
"235 218 CURVE SMOOTH",
"398 218 LINE"
);
},
{
closed = 1;
nodes = (
"153 648 LINE",
"153 573 OFFCURVE",
"196 522 OFFCURVE",
"279 522 CURVE SMOOTH",
"363 522 OFFCURVE",
"407 573 OFFCURVE",
"407 648 CURVE",
"349 648 LINE",
"349 597 OFFCURVE",
"323 574 OFFCURVE",
"279 574 CURVE SMOOTH",
"237 574 OFFCURVE",
"211 597 OFFCURVE",
"211 648 CURVE"
);
},
{
closed = 1;
nodes = (
"320 -164 LINE",
"320 -87 LINE",
"240 -87 LINE",
"240 -164 LINE"
);
}
);
width = 541;
}
);
leftKerningGroup = a;
note = abrevedotbelow;
rightKerningGroup = a;
unicode = 1EB7;
},
{
glyphname = abrevegrave;
lastChange = "2015-10-24 18:33:42 +0000";
layers = (
{
layerId = "139F617A-DF90-4219-9825-66026F124FCC";
name = Light;
paths = (
{
closed = 1;
nodes = (
"476 0 LINE",
"476 310 LINE SMOOTH",
"476 433 OFFCURVE",
"408 484 OFFCURVE",
"274 484 CURVE SMOOTH",
"207 484 OFFCURVE",
"147 473 OFFCURVE",
"105 457 CURVE",
"105 389 LINE",
"151 405 OFFCURVE",
"206 415 OFFCURVE",
"263 415 CURVE SMOOTH",
"374 415 OFFCURVE",
"398 387 OFFCURVE",
"398 310 CURVE SMOOTH",
"398 281 LINE",
"233 281 LINE SMOOTH",
"104 281 OFFCURVE",
"50 220 OFFCURVE",
"50 133 CURVE SMOOTH",
"50 37 OFFCURVE",
"126 -10 OFFCURVE",
"217 -10 CURVE SMOOTH",
"304 -10 OFFCURVE",
"360 11 OFFCURVE",
"401 54 CURVE",
"407 0 LINE"
);
},
{
closed = 1;
nodes = (
"398 126 LINE",
"361 83 OFFCURVE",
"307 57 OFFCURVE",
"238 57 CURVE SMOOTH",
"172 57 OFFCURVE",
"131 75 OFFCURVE",
"131 133 CURVE SMOOTH",
"131 190 OFFCURVE",
"160 218 OFFCURVE",
"235 218 CURVE SMOOTH",
"398 218 LINE"
);
},
{
closed = 1;
nodes = (
"229 570 OFFCURVE",
"191 600 OFFCURVE",
"191 662 CURVE",
"139 662 LINE",
"139 560 OFFCURVE",
"206 522 OFFCURVE",
"286 522 CURVE SMOOTH",
"366 522 OFFCURVE",
"433 560 OFFCURVE",
"433 662 CURVE",
"381 662 LINE",
"381 600 OFFCURVE",
"343 570 OFFCURVE",
"286 570 CURVE SMOOTH"
);
},
{
closed = 1;
nodes = (
"325 626 LINE",
"263 751 LINE",
"198 751 LINE",
"266 626 LINE"
);
}
);
width = 541;
}
);
leftKerningGroup = a;
note = abrevegrave;
rightKerningGroup = a;
unicode = 1EB1;
},
{
glyphname = abrevehookabove;
lastChange = "2015-10-24 18:33:42 +0000";
layers = (
{
layerId = "139F617A-DF90-4219-9825-66026F124FCC";
name = Light;
paths = (
{
closed = 1;
nodes = (
"476 0 LINE",
"476 310 LINE SMOOTH",
"476 433 OFFCURVE",
"408 484 OFFCURVE",
"274 484 CURVE SMOOTH",
"207 484 OFFCURVE",
"147 473 OFFCURVE",
"105 457 CURVE",
"105 389 LINE",
"151 405 OFFCURVE",
"206 415 OFFCURVE",
"263 415 CURVE SMOOTH",
"374 415 OFFCURVE",
"398 387 OFFCURVE",
"398 310 CURVE SMOOTH",
"398 281 LINE",
"233 281 LINE SMOOTH",
"104 281 OFFCURVE",
"50 220 OFFCURVE",
"50 133 CURVE SMOOTH",
"50 37 OFFCURVE",
"126 -10 OFFCURVE",
"217 -10 CURVE SMOOTH",
"304 -10 OFFCURVE",
"360 11 OFFCURVE",
"401 54 CURVE",
"407 0 LINE"
);
},
{
closed = 1;
nodes = (
"398 126 LINE",
"361 83 OFFCURVE",
"307 57 OFFCURVE",
"238 57 CURVE SMOOTH",
"172 57 OFFCURVE",
"131 75 OFFCURVE",
"131 133 CURVE SMOOTH",
"131 190 OFFCURVE",
"160 218 OFFCURVE",
"235 218 CURVE SMOOTH",
"398 218 LINE"
);
},
{
closed = 1;
nodes = (
"227 570 OFFCURVE",
"189 600 OFFCURVE",
"189 662 CURVE",
"137 662 LINE",
"137 560 OFFCURVE",
"204 522 OFFCURVE",
"284 522 CURVE SMOOTH",
"364 522 OFFCURVE",
"431 560 OFFCURVE",
"431 662 CURVE",
"379 662 LINE",
"379 600 OFFCURVE",
"341 570 OFFCURVE",
"284 570 CURVE SMOOTH"
);
},
{
closed = 1;
nodes = (
"385 781 OFFCURVE",
"351 809 OFFCURVE",
"292 809 CURVE SMOOTH",
"264 809 OFFCURVE",
"237 804 OFFCURVE",
"218 797 CURVE",
"218 756 LINE",
"235 764 OFFCURVE",
"253 769 OFFCURVE",
"275 769 CURVE SMOOTH",
"311 769 OFFCURVE",
"328 757 OFFCURVE",
"328 730 CURVE SMOOTH",
"328 703 OFFCURVE",
"313 688 OFFCURVE",
"246 685 CURVE",
"246 627 LINE",
"306 627 LINE",
"306 661 LINE",
"363 670 OFFCURVE",
"385 692 OFFCURVE",
"385 735 CURVE SMOOTH"
);
}
);
width = 541;
}
);
leftKerningGroup = a;
note = abrevehookabove;
rightKerningGroup = a;
unicode = 1EB3;
},
{
glyphname = abrevetilde;
lastChange = "2015-10-24 18:33:42 +0000";
layers = (
{
layerId = "139F617A-DF90-4219-9825-66026F124FCC";
name = Light;
paths = (
{
closed = 1;
nodes = (
"476 0 LINE",
"476 310 LINE SMOOTH",
"476 433 OFFCURVE",
"408 484 OFFCURVE",
"274 484 CURVE SMOOTH",
"207 484 OFFCURVE",
"147 473 OFFCURVE",
"105 457 CURVE",
"105 389 LINE",
"151 405 OFFCURVE",
"206 415 OFFCURVE",
"263 415 CURVE SMOOTH",
"374 415 OFFCURVE",
"398 387 OFFCURVE",
"398 310 CURVE SMOOTH",
"398 281 LINE",
"233 281 LINE SMOOTH",
"104 281 OFFCURVE",
"50 220 OFFCURVE",
"50 133 CURVE SMOOTH",
"50 37 OFFCURVE",
"126 -10 OFFCURVE",
"217 -10 CURVE SMOOTH",
"304 -10 OFFCURVE",
"360 11 OFFCURVE",
"401 54 CURVE",
"407 0 LINE"
);
},
{
closed = 1;
nodes = (
"398 126 LINE",
"361 83 OFFCURVE",
"307 57 OFFCURVE",
"238 57 CURVE SMOOTH",
"172 57 OFFCURVE",
"131 75 OFFCURVE",
"131 133 CURVE SMOOTH",
"131 190 OFFCURVE",
"160 218 OFFCURVE",
"235 218 CURVE SMOOTH",
"398 218 LINE"
);
},
{
closed = 1;
nodes = (
"231 570 OFFCURVE",
"193 600 OFFCURVE",
"193 662 CURVE",
"141 662 LINE",
"141 560 OFFCURVE",
"208 522 OFFCURVE",
"288 522 CURVE SMOOTH",
"368 522 OFFCURVE",
"435 560 OFFCURVE",
"435 662 CURVE",
"383 662 LINE",
"383 600 OFFCURVE",
"345 570 OFFCURVE",
"288 570 CURVE SMOOTH"
);
},
{
closed = 1;
nodes = (
"389 683 OFFCURVE",
"417 694 OFFCURVE",
"429 710 CURVE",
"429 767 LINE",
"412 744 OFFCURVE",
"389 734 OFFCURVE",
"358 734 CURVE SMOOTH",
"313 734 OFFCURVE",
"276 769 OFFCURVE",
"225 769 CURVE SMOOTH",
"197 769 OFFCURVE",
"164 758 OFFCURVE",
"149 742 CURVE",
"149 686 LINE",
"169 710 OFFCURVE",
"196 718 OFFCURVE",
"225 718 CURVE SMOOTH",
"265 718 OFFCURVE",
"310 683 OFFCURVE",
"358 683 CURVE SMOOTH"
);
}
);
width = 541;
}
);
leftKerningGroup = a;
note = abrevetilde;
rightKerningGroup = a;
unicode = 1EB5;
},
{
glyphname = acaron;
lastChange = "2015-10-24 18:33:41 +0000";
layers = (
{
layerId = "139F617A-DF90-4219-9825-66026F124FCC";
name = Light;
paths = (
{
closed = 1;
nodes = (
"476 0 LINE",
"476 310 LINE SMOOTH",
"476 433 OFFCURVE",
"408 484 OFFCURVE",
"274 484 CURVE SMOOTH",
"207 484 OFFCURVE",
"147 473 OFFCURVE",
"105 457 CURVE",
"105 389 LINE",
"151 405 OFFCURVE",
"206 415 OFFCURVE",
"263 415 CURVE SMOOTH",
"374 415 OFFCURVE",
"398 387 OFFCURVE",
"398 310 CURVE SMOOTH",
"398 281 LINE",
"233 281 LINE SMOOTH",
"104 281 OFFCURVE",
"50 220 OFFCURVE",
"50 133 CURVE SMOOTH",
"50 37 OFFCURVE",
"126 -10 OFFCURVE",
"217 -10 CURVE SMOOTH",
"304 -10 OFFCURVE",
"360 11 OFFCURVE",
"401 54 CURVE",
"407 0 LINE"
);
},
{
closed = 1;
nodes = (
"398 126 LINE",
"361 83 OFFCURVE",
"307 57 OFFCURVE",
"238 57 CURVE SMOOTH",
"172 57 OFFCURVE",
"131 75 OFFCURVE",
"131 133 CURVE SMOOTH",
"131 190 OFFCURVE",
"160 218 OFFCURVE",
"235 218 CURVE SMOOTH",
"398 218 LINE"
);
},
{
closed = 1;
nodes = (
"428 670 LINE",
"357 670 LINE",
"280 568 LINE",
"203 670 LINE",
"132 670 LINE",
"247 522 LINE",
"313 522 LINE"
);
}
);
width = 541;
}
);
leftKerningGroup = a;
note = acaron;
rightKerningGroup = a;
unicode = 01CE;
},
{
glyphname = acircumflex;
lastChange = "2015-10-24 18:33:41 +0000";
layers = (
{
layerId = "139F617A-DF90-4219-9825-66026F124FCC";
name = Light;
paths = (
{
closed = 1;
nodes = (
"476 0 LINE",
"476 310 LINE SMOOTH",
"476 433 OFFCURVE",
"408 484 OFFCURVE",
"274 484 CURVE SMOOTH",
"207 484 OFFCURVE",
"147 473 OFFCURVE",
"105 457 CURVE",
"105 389 LINE",
"151 405 OFFCURVE",
"206 415 OFFCURVE",
"263 415 CURVE SMOOTH",
"374 415 OFFCURVE",
"398 387 OFFCURVE",
"398 310 CURVE SMOOTH",
"398 281 LINE",
"233 281 LINE SMOOTH",
"104 281 OFFCURVE",
"50 220 OFFCURVE",
"50 133 CURVE SMOOTH",
"50 37 OFFCURVE",
"126 -10 OFFCURVE",
"217 -10 CURVE SMOOTH",
"304 -10 OFFCURVE",
"360 11 OFFCURVE",
"401 54 CURVE",
"407 0 LINE"
);
},
{
closed = 1;
nodes = (
"398 126 LINE",
"361 83 OFFCURVE",
"307 57 OFFCURVE",
"238 57 CURVE SMOOTH",
"172 57 OFFCURVE",
"131 75 OFFCURVE",
"131 133 CURVE SMOOTH",
"131 190 OFFCURVE",
"160 218 OFFCURVE",
"235 218 CURVE SMOOTH",
"398 218 LINE"
);
},
{
closed = 1;
nodes = (
"315 670 LINE",
"249 670 LINE",
"134 522 LINE",
"205 522 LINE",
"282 624 LINE",
"359 522 LINE",
"430 522 LINE"
);
}
);
width = 541;
}
);
leftKerningGroup = a;
note = acircumflex;
rightKerningGroup = a;
unicode = 00E2;
},
{
glyphname = acircumflexacute;
lastChange = "2015-11-24 10:24:28 +0000";
layers = (
{
layerId = "139F617A-DF90-4219-9825-66026F124FCC";
name = Light;
paths = (
{
closed = 1;
nodes = (
"476 0 LINE",
"476 310 LINE SMOOTH",
"476 433 OFFCURVE",
"408 484 OFFCURVE",
"274 484 CURVE SMOOTH",
"207 484 OFFCURVE",
"147 473 OFFCURVE",
"105 457 CURVE",
"105 389 LINE",
"151 405 OFFCURVE",
"206 415 OFFCURVE",
"263 415 CURVE SMOOTH",
"374 415 OFFCURVE",
"398 387 OFFCURVE",
"398 310 CURVE SMOOTH",
"398 281 LINE",
"233 281 LINE SMOOTH",
"104 281 OFFCURVE",
"50 220 OFFCURVE",
"50 133 CURVE SMOOTH",
"50 37 OFFCURVE",
"126 -10 OFFCURVE",
"217 -10 CURVE SMOOTH",
"304 -10 OFFCURVE",
"360 11 OFFCURVE",
"401 54 CURVE",
"407 0 LINE"
);
},
{
closed = 1;
nodes = (
"398 126 LINE",
"361 83 OFFCURVE",
"307 57 OFFCURVE",
"238 57 CURVE SMOOTH",
"172 57 OFFCURVE",
"131 75 OFFCURVE",
"131 133 CURVE SMOOTH",
"131 190 OFFCURVE",
"160 218 OFFCURVE",
"235 218 CURVE SMOOTH",
"398 218 LINE"
);
},
{
closed = 1;
nodes = (
"312 640 LINE",
"246 640 LINE",
"135 522 LINE",
"205 522 LINE",
"279 605 LINE",
"354 522 LINE",
"423 522 LINE"
);
},
{
closed = 1;
nodes = (
"418 631 LINE",
"486 756 LINE",
"421 756 LINE",
"359 631 LINE"
);
}
);
width = 541;
}
);
leftKerningGroup = a;
note = acircumflexacute;
rightKerningGroup = a;
unicode = 1EA5;
},
{
glyphname = acircumflexdotbelow;
lastChange = "2015-10-24 18:33:41 +0000";
layers = (
{
layerId = "139F617A-DF90-4219-9825-66026F124FCC";
name = Light;
paths = (
{
closed = 1;
nodes = (
"476 0 LINE",
"476 310 LINE SMOOTH",
"476 433 OFFCURVE",
"408 484 OFFCURVE",
"274 484 CURVE SMOOTH",
"207 484 OFFCURVE",
"147 473 OFFCURVE",
"105 457 CURVE",
"105 389 LINE",
"151 405 OFFCURVE",
"206 415 OFFCURVE",
"263 415 CURVE SMOOTH",
"374 415 OFFCURVE",
"398 387 OFFCURVE",
"398 310 CURVE SMOOTH",
"398 281 LINE",
"233 281 LINE SMOOTH",
"104 281 OFFCURVE",
"50 220 OFFCURVE",
"50 133 CURVE SMOOTH",
"50 37 OFFCURVE",
"126 -10 OFFCURVE",
"217 -10 CURVE SMOOTH",
"304 -10 OFFCURVE",
"360 11 OFFCURVE",
"401 54 CURVE",
"407 0 LINE"
);
},
{
closed = 1;
nodes = (
"398 126 LINE",
"361 83 OFFCURVE",
"307 57 OFFCURVE",
"238 57 CURVE SMOOTH",
"172 57 OFFCURVE",
"131 75 OFFCURVE",
"131 133 CURVE SMOOTH",
"131 190 OFFCURVE",
"160 218 OFFCURVE",
"235 218 CURVE SMOOTH",
"398 218 LINE"
);
},
{
closed = 1;
nodes = (
"308 670 LINE",
"242 670 LINE",
"127 522 LINE",
"198 522 LINE",
"275 624 LINE",
"352 522 LINE",
"423 522 LINE"
);
},
{
closed = 1;
nodes = (
"315 -164 LINE",
"315 -87 LINE",
"235 -87 LINE",
"235 -164 LINE"
);
}
);
width = 541;
}
);
leftKerningGroup = a;
note = acircumflexdotbelow;
rightKerningGroup = a;
unicode = 1EAD;
},
{
glyphname = acircumflexgrave;
lastChange = "2015-10-24 18:33:41 +0000";
layers = (
{
layerId = "139F617A-DF90-4219-9825-66026F124FCC";
name = Light;
paths = (
{
closed = 1;
nodes = (
"476 0 LINE",
"476 310 LINE SMOOTH",
"476 433 OFFCURVE",
"408 484 OFFCURVE",
"274 484 CURVE SMOOTH",
"207 484 OFFCURVE",
"147 473 OFFCURVE",
"105 457 CURVE",
"105 389 LINE",
"151 405 OFFCURVE",
"206 415 OFFCURVE",
"263 415 CURVE SMOOTH",
"374 415 OFFCURVE",
"398 387 OFFCURVE",
"398 310 CURVE SMOOTH",
"398 281 LINE",
"233 281 LINE SMOOTH",
"104 281 OFFCURVE",
"50 220 OFFCURVE",
"50 133 CURVE SMOOTH",
"50 37 OFFCURVE",
"126 -10 OFFCURVE",
"217 -10 CURVE SMOOTH",
"304 -10 OFFCURVE",
"360 11 OFFCURVE",
"401 54 CURVE",
"407 0 LINE"
);
},
{
closed = 1;
nodes = (
"398 126 LINE",
"361 83 OFFCURVE",
"307 57 OFFCURVE",
"238 57 CURVE SMOOTH",
"172 57 OFFCURVE",
"131 75 OFFCURVE",
"131 133 CURVE SMOOTH",
"131 190 OFFCURVE",
"160 218 OFFCURVE",
"235 218 CURVE SMOOTH",
"398 218 LINE"
);
},
{
closed = 1;
nodes = (
"121 522 LINE",
"190 522 LINE",
"265 605 LINE",
"339 522 LINE",
"409 522 LINE",
"298 640 LINE",
"232 640 LINE"
);
},
{
closed = 1;
nodes = (
"185 631 LINE",
"123 756 LINE",
"58 756 LINE",
"126 631 LINE"
);
}
);
width = 541;
}
);
leftKerningGroup = a;
note = acircumflexgrave;
rightKerningGroup = a;
unicode = 1EA7;
},
{
glyphname = acircumflexhookabove;
lastChange = "2015-11-24 10:24:35 +0000";
layers = (
{
layerId = "139F617A-DF90-4219-9825-66026F124FCC";
name = Light;
paths = (
{
closed = 1;
nodes = (
"476 0 LINE",
"476 310 LINE SMOOTH",
"476 433 OFFCURVE",
"408 484 OFFCURVE",
"274 484 CURVE SMOOTH",
"207 484 OFFCURVE",
"147 473 OFFCURVE",
"105 457 CURVE",
"105 389 LINE",
"151 405 OFFCURVE",
"206 415 OFFCURVE",
"263 415 CURVE SMOOTH",
"374 415 OFFCURVE",
"398 387 OFFCURVE",
"398 310 CURVE SMOOTH",
"398 281 LINE",
"233 281 LINE SMOOTH",
"104 281 OFFCURVE",
"50 220 OFFCURVE",
"50 133 CURVE SMOOTH",
"50 37 OFFCURVE",
"126 -10 OFFCURVE",
"217 -10 CURVE SMOOTH",
"304 -10 OFFCURVE",
"360 11 OFFCURVE",
"401 54 CURVE",
"407 0 LINE"
);
},
{
closed = 1;
nodes = (
"398 126 LINE",
"361 83 OFFCURVE",
"307 57 OFFCURVE",
"238 57 CURVE SMOOTH",
"172 57 OFFCURVE",
"131 75 OFFCURVE",
"131 133 CURVE SMOOTH",
"131 190 OFFCURVE",
"160 218 OFFCURVE",
"235 218 CURVE SMOOTH",
"398 218 LINE"
);
},
{
closed = 1;
nodes = (
"128 521 LINE",
"198 521 LINE",
"272 604 LINE",
"347 521 LINE",
"416 521 LINE",
"305 639 LINE",
"239 639 LINE"
);
},
{
closed = 1;
nodes = (
"500 765 OFFCURVE",
"464 793 OFFCURVE",
"404 793 CURVE SMOOTH",
"374 793 OFFCURVE",
"351 788 OFFCURVE",
"333 781 CURVE",
"333 738 LINE",
"349 745 OFFCURVE",
"367 750 OFFCURVE",
"390 750 CURVE SMOOTH",
"424 750 OFFCURVE",
"440 739 OFFCURVE",
"440 714 CURVE SMOOTH",
"440 688 OFFCURVE",
"427 675 OFFCURVE",
"360 672 CURVE",
"360 609 LINE",
"421 609 LINE",
"421 644 LINE",
"476 651 OFFCURVE",
"500 675 OFFCURVE",
"500 718 CURVE SMOOTH"
);
}
);
width = 541;
}
);
leftKerningGroup = a;
note = acircumflexhookabove;
rightKerningGroup = a;
unicode = 1EA9;
},
{
glyphname = acircumflextilde;
lastChange = "2015-10-24 18:33:41 +0000";
layers = (
{
layerId = "139F617A-DF90-4219-9825-66026F124FCC";
name = Light;
paths = (
{
closed = 1;
nodes = (
"476 0 LINE",
"476 310 LINE SMOOTH",
"476 433 OFFCURVE",
"408 484 OFFCURVE",
"274 484 CURVE SMOOTH",
"207 484 OFFCURVE",
"147 473 OFFCURVE",
"105 457 CURVE",
"105 389 LINE",
"151 405 OFFCURVE",
"206 415 OFFCURVE",
"263 415 CURVE SMOOTH",
"374 415 OFFCURVE",
"398 387 OFFCURVE",
"398 310 CURVE SMOOTH",
"398 281 LINE",
"233 281 LINE SMOOTH",
"104 281 OFFCURVE",
"50 220 OFFCURVE",
"50 133 CURVE SMOOTH",
"50 37 OFFCURVE",
"126 -10 OFFCURVE",
"217 -10 CURVE SMOOTH",
"304 -10 OFFCURVE",
"360 11 OFFCURVE",
"401 54 CURVE",
"407 0 LINE"
);
},
{
closed = 1;
nodes = (
"398 126 LINE",
"361 83 OFFCURVE",
"307 57 OFFCURVE",
"238 57 CURVE SMOOTH",
"172 57 OFFCURVE",
"131 75 OFFCURVE",
"131 133 CURVE SMOOTH",
"131 190 OFFCURVE",
"160 218 OFFCURVE",
"235 218 CURVE SMOOTH",
"398 218 LINE"
);
},
{
closed = 1;
nodes = (
"136 522 LINE",
"206 522 LINE",
"280 605 LINE",
"355 522 LINE",
"424 522 LINE",
"313 640 LINE",
"247 640 LINE"
);
},
{
closed = 1;
nodes = (
"382 642 OFFCURVE",
"410 653 OFFCURVE",
"422 669 CURVE",
"422 726 LINE",
"405 703 OFFCURVE",
"382 693 OFFCURVE",
"351 693 CURVE SMOOTH",
"306 693 OFFCURVE",
"269 728 OFFCURVE",
"218 728 CURVE SMOOTH",
"190 728 OFFCURVE",
"157 717 OFFCURVE",
"142 701 CURVE",
"142 645 LINE",
"162 669 OFFCURVE",
"189 677 OFFCURVE",
"218 677 CURVE SMOOTH",
"258 677 OFFCURVE",
"303 642 OFFCURVE",
"351 642 CURVE SMOOTH"
);
}
);
width = 541;
}
);
leftKerningGroup = a;
note = acircumflextilde;
rightKerningGroup = a;
unicode = 1EAB;
},
{
glyphname = adieresis;
lastChange = "2015-10-24 18:33:41 +0000";
layers = (
{
layerId = "139F617A-DF90-4219-9825-66026F124FCC";
name = Light;
paths = (
{
closed = 1;
nodes = (
"476 0 LINE",
"476 310 LINE SMOOTH",
"476 433 OFFCURVE",
"408 484 OFFCURVE",
"274 484 CURVE SMOOTH",
"207 484 OFFCURVE",
"147 473 OFFCURVE",
"105 457 CURVE",
"105 389 LINE",
"151 405 OFFCURVE",
"206 415 OFFCURVE",
"263 415 CURVE SMOOTH",
"374 415 OFFCURVE",
"398 387 OFFCURVE",
"398 310 CURVE SMOOTH",
"398 281 LINE",
"233 281 LINE SMOOTH",
"104 281 OFFCURVE",
"50 220 OFFCURVE",
"50 133 CURVE SMOOTH",
"50 37 OFFCURVE",
"126 -10 OFFCURVE",
"217 -10 CURVE SMOOTH",
"304 -10 OFFCURVE",
"360 11 OFFCURVE",
"401 54 CURVE",
"407 0 LINE"
);
},
{
closed = 1;
nodes = (
"398 126 LINE",
"361 83 OFFCURVE",
"307 57 OFFCURVE",
"238 57 CURVE SMOOTH",
"172 57 OFFCURVE",
"131 75 OFFCURVE",
"131 133 CURVE SMOOTH",
"131 190 OFFCURVE",
"160 218 OFFCURVE",
"235 218 CURVE SMOOTH",
"398 218 LINE"
);
},
{
closed = 1;
nodes = (
"238 545 LINE",
"238 620 LINE",
"160 620 LINE",
"160 545 LINE"
);
},
{
closed = 1;
nodes = (
"414 545 LINE",
"414 620 LINE",
"336 620 LINE",
"336 545 LINE"
);
}
);
width = 541;
}
);
leftKerningGroup = a;
note = adieresis;
rightKerningGroup = a;
unicode = 00E4;
},
{
glyphname = adotbelow;
lastChange = "2015-10-24 18:33:41 +0000";
layers = (
{
layerId = "139F617A-DF90-4219-9825-66026F124FCC";
name = Light;
paths = (
{
closed = 1;
nodes = (
"476 0 LINE",
"476 310 LINE SMOOTH",
"476 433 OFFCURVE",
"408 484 OFFCURVE",
"274 484 CURVE SMOOTH",
"207 484 OFFCURVE",
"147 473 OFFCURVE",
"105 457 CURVE",
"105 389 LINE",
"151 405 OFFCURVE",
"206 415 OFFCURVE",
"263 415 CURVE SMOOTH",
"374 415 OFFCURVE",
"398 387 OFFCURVE",
"398 310 CURVE SMOOTH",
"398 281 LINE",
"233 281 LINE SMOOTH",
"104 281 OFFCURVE",
"50 220 OFFCURVE",
"50 133 CURVE SMOOTH",
"50 37 OFFCURVE",
"126 -10 OFFCURVE",
"217 -10 CURVE SMOOTH",
"304 -10 OFFCURVE",
"360 11 OFFCURVE",
"401 54 CURVE",
"407 0 LINE"
);
},
{
closed = 1;
nodes = (
"398 126 LINE",
"361 83 OFFCURVE",
"307 57 OFFCURVE",
"238 57 CURVE SMOOTH",
"172 57 OFFCURVE",
"131 75 OFFCURVE",
"131 133 CURVE SMOOTH",
"131 190 OFFCURVE",
"160 218 OFFCURVE",
"235 218 CURVE SMOOTH",
"398 218 LINE"
);
},
{
closed = 1;
nodes = (
"319 -164 LINE",
"319 -87 LINE",
"239 -87 LINE",
"239 -164 LINE"
);
}
);
width = 541;
}
);
leftKerningGroup = a;
note = adotbelow;
rightKerningGroup = a;
unicode = 1EA1;
},
{
glyphname = agrave;
lastChange = "2015-10-24 18:33:41 +0000";
layers = (
{
layerId = "139F617A-DF90-4219-9825-66026F124FCC";
name = Light;
paths = (
{
closed = 1;
nodes = (
"476 0 LINE",
"476 310 LINE SMOOTH",
"476 433 OFFCURVE",
"408 484 OFFCURVE",
"274 484 CURVE SMOOTH",
"207 484 OFFCURVE",
"147 473 OFFCURVE",
"105 457 CURVE",
"105 389 LINE",
"151 405 OFFCURVE",
"206 415 OFFCURVE",
"263 415 CURVE SMOOTH",
"374 415 OFFCURVE",
"398 387 OFFCURVE",
"398 310 CURVE SMOOTH",
"398 281 LINE",
"233 281 LINE SMOOTH",
"104 281 OFFCURVE",
"50 220 OFFCURVE",
"50 133 CURVE SMOOTH",
"50 37 OFFCURVE",
"126 -10 OFFCURVE",
"217 -10 CURVE SMOOTH",
"304 -10 OFFCURVE",
"360 11 OFFCURVE",
"401 54 CURVE",
"407 0 LINE"
);
},
{
closed = 1;
nodes = (
"398 126 LINE",
"361 83 OFFCURVE",
"307 57 OFFCURVE",
"238 57 CURVE SMOOTH",
"172 57 OFFCURVE",
"131 75 OFFCURVE",
"131 133 CURVE SMOOTH",
"131 190 OFFCURVE",
"160 218 OFFCURVE",
"235 218 CURVE SMOOTH",
"398 218 LINE"
);
},
{
closed = 1;
nodes = (
"327 522 LINE",
"256 690 LINE",
"182 690 LINE",
"261 522 LINE"
);
}
);
width = 541;
}
);
leftKerningGroup = a;
note = agrave;
rightKerningGroup = a;
unicode = 00E0;
},
{
glyphname = ahookabove;
lastChange = "2015-10-24 18:33:41 +0000";
layers = (
{
layerId = "139F617A-DF90-4219-9825-66026F124FCC";
name = Light;
paths = (
{
closed = 1;
nodes = (
"476 0 LINE",
"476 310 LINE SMOOTH",
"476 433 OFFCURVE",
"408 484 OFFCURVE",
"274 484 CURVE SMOOTH",
"207 484 OFFCURVE",
"147 473 OFFCURVE",
"105 457 CURVE",
"105 389 LINE",
"151 405 OFFCURVE",
"206 415 OFFCURVE",
"263 415 CURVE SMOOTH",
"374 415 OFFCURVE",
"398 387 OFFCURVE",
"398 310 CURVE SMOOTH",
"398 281 LINE",
"233 281 LINE SMOOTH",
"104 281 OFFCURVE",
"50 220 OFFCURVE",
"50 133 CURVE SMOOTH",
"50 37 OFFCURVE",
"126 -10 OFFCURVE",
"217 -10 CURVE SMOOTH",
"304 -10 OFFCURVE",
"360 11 OFFCURVE",
"401 54 CURVE",
"407 0 LINE"
);
},
{
closed = 1;
nodes = (
"398 126 LINE",
"361 83 OFFCURVE",
"307 57 OFFCURVE",
"238 57 CURVE SMOOTH",
"172 57 OFFCURVE",
"131 75 OFFCURVE",
"131 133 CURVE SMOOTH",
"131 190 OFFCURVE",
"160 218 OFFCURVE",
"235 218 CURVE SMOOTH",
"398 218 LINE"
);
},
{
closed = 1;
nodes = (
"395 720 OFFCURVE",
"353 754 OFFCURVE",
"274 754 CURVE SMOOTH",
"245 754 OFFCURVE",
"209 749 OFFCURVE",
"189 741 CURVE",
"189 690 LINE",
"206 697 OFFCURVE",
"234 702 OFFCURVE",
"255 702 CURVE SMOOTH",
"308 702 OFFCURVE",
"333 690 OFFCURVE",
"333 657 CURVE SMOOTH",
"333 622 OFFCURVE",
"318 609 OFFCURVE",
"240 605 CURVE",
"240 522 LINE",
"306 522 LINE",
"306 570 LINE",
"373 579 OFFCURVE",
"395 609 OFFCURVE",
"395 663 CURVE SMOOTH"
);
}
);
width = 541;
}
);
leftKerningGroup = a;
note = ahookabove;
rightKerningGroup = a;
unicode = 1EA3;
},
{
glyphname = "alpha-latin";
lastChange = "2015-10-24 18:33:41 +0000";
layers = (
{
layerId = "139F617A-DF90-4219-9825-66026F124FCC";
name = Light;
paths = (
{
closed = 1;
nodes = (
"50 59 OFFCURVE",
"131 -10 OFFCURVE",
"264 -10 CURVE SMOOTH",
"335 -10 OFFCURVE",
"385 9 OFFCURVE",
"429 50 CURVE",
"435 0 LINE",
"505 0 LINE",
"505 474 LINE",
"423 474 LINE",
"423 439 LINE",
"378 470 OFFCURVE",
"327 484 OFFCURVE",
"266 484 CURVE SMOOTH",
"132 484 OFFCURVE",
"50 402 OFFCURVE",
"50 231 CURVE SMOOTH"
);
},
{
closed = 1;
nodes = (
"345 418 OFFCURVE",
"390 400 OFFCURVE",
"423 371 CURVE",
"423 113 LINE",
"387 74 OFFCURVE",
"340 56 OFFCURVE",
"285 56 CURVE SMOOTH",
"174 56 OFFCURVE",
"132 107 OFFCURVE",
"132 231 CURVE SMOOTH",
"132 360 OFFCURVE",
"182 418 OFFCURVE",
"288 418 CURVE SMOOTH"
);
}
);
width = 575;
}
);
leftKerningGroup = a;
note = ascript;
rightKerningGroup = a;
unicode = 0251;
},
{
glyphname = amacron;
lastChange = "2015-10-24 18:33:41 +0000";
layers = (
{
layerId = "139F617A-DF90-4219-9825-66026F124FCC";
name = Light;
paths = (
{
closed = 1;
nodes = (
"476 0 LINE",
"476 310 LINE SMOOTH",
"476 433 OFFCURVE",
"408 484 OFFCURVE",
"274 484 CURVE SMOOTH",
"207 484 OFFCURVE",
"147 473 OFFCURVE",
"105 457 CURVE",
"105 389 LINE",
"151 405 OFFCURVE",
"206 415 OFFCURVE",
"263 415 CURVE SMOOTH",
"374 415 OFFCURVE",
"398 387 OFFCURVE",
"398 310 CURVE SMOOTH",
"398 281 LINE",
"233 281 LINE SMOOTH",
"104 281 OFFCURVE",
"50 220 OFFCURVE",
"50 133 CURVE SMOOTH",
"50 37 OFFCURVE",
"126 -10 OFFCURVE",
"217 -10 CURVE SMOOTH",
"304 -10 OFFCURVE",
"360 11 OFFCURVE",
"401 54 CURVE",
"407 0 LINE"
);
},
{
closed = 1;
nodes = (
"398 126 LINE",
"361 83 OFFCURVE",
"307 57 OFFCURVE",
"238 57 CURVE SMOOTH",
"172 57 OFFCURVE",
"131 75 OFFCURVE",
"131 133 CURVE SMOOTH",
"131 190 OFFCURVE",
"160 218 OFFCURVE",
"235 218 CURVE SMOOTH",
"398 218 LINE"
);
},
{
closed = 1;
nodes = (
"133 605 LINE",
"133 546 LINE",
"421 546 LINE",
"421 605 LINE"
);
}
);
width = 541;
}
);
leftKerningGroup = a;
note = amacron;
rightKerningGroup = a;
unicode = 0101;
},
{
glyphname = aogonek;
lastChange = "2015-11-24 10:24:46 +0000";
layers = (
{
layerId = "139F617A-DF90-4219-9825-66026F124FCC";
name = Light;
paths = (
{
closed = 1;
nodes = (
"400 -77 OFFCURVE",
"422 -34 OFFCURVE",
"476 0 CURVE",
"476 310 LINE SMOOTH",
"476 433 OFFCURVE",
"408 484 OFFCURVE",
"274 484 CURVE SMOOTH",
"207 484 OFFCURVE",
"147 473 OFFCURVE",
"105 457 CURVE",
"105 389 LINE",
"151 405 OFFCURVE",
"206 415 OFFCURVE",
"263 415 CURVE SMOOTH",
"374 415 OFFCURVE",
"398 387 OFFCURVE",
"398 310 CURVE SMOOTH",
"398 281 LINE",
"233 281 LINE SMOOTH",
"104 281 OFFCURVE",
"50 220 OFFCURVE",
"50 133 CURVE SMOOTH",
"50 37 OFFCURVE",
"126 -10 OFFCURVE",
"217 -10 CURVE SMOOTH",
"304 -10 OFFCURVE",
"360 11 OFFCURVE",
"401 54 CURVE",
"407 0 LINE",
"364 -30 OFFCURVE",
"333 -80 OFFCURVE",
"333 -132 CURVE SMOOTH",
"333 -195 OFFCURVE",
"378 -220 OFFCURVE",
"432 -220 CURVE SMOOTH",
"456 -220 OFFCURVE",
"484 -216 OFFCURVE",
"500 -208 CURVE",
"500 -152 LINE",
"488 -159 OFFCURVE",
"467 -163 OFFCURVE",
"450 -163 CURVE SMOOTH",
"417 -163 OFFCURVE",
"400 -154 OFFCURVE",
"400 -120 CURVE SMOOTH"
);
},
{
closed = 1;
nodes = (
"398 126 LINE",
"361 83 OFFCURVE",
"307 57 OFFCURVE",
"238 57 CURVE SMOOTH",
"172 57 OFFCURVE",
"131 75 OFFCURVE",
"131 133 CURVE SMOOTH",
"131 190 OFFCURVE",
"160 218 OFFCURVE",
"235 218 CURVE SMOOTH",
"398 218 LINE"
);
}
);
width = 541;
}
);
leftKerningGroup = a;
note = aogonek;
rightKerningGroup = a;
unicode = 0105;
},
{
glyphname = aring;
lastChange = "2015-10-24 18:33:42 +0000";
layers = (
{
layerId = "139F617A-DF90-4219-9825-66026F124FCC";
name = Light;
paths = (
{
closed = 1;
nodes = (
"476 0 LINE",
"476 310 LINE SMOOTH",
"476 433 OFFCURVE",
"408 484 OFFCURVE",
"274 484 CURVE SMOOTH",
"207 484 OFFCURVE",
"147 473 OFFCURVE",
"105 457 CURVE",
"105 389 LINE",
"151 405 OFFCURVE",
"206 415 OFFCURVE",
"263 415 CURVE SMOOTH",
"374 415 OFFCURVE",
"398 387 OFFCURVE",
"398 310 CURVE SMOOTH",
"398 281 LINE",
"233 281 LINE SMOOTH",
"104 281 OFFCURVE",
"50 220 OFFCURVE",
"50 133 CURVE SMOOTH",
"50 37 OFFCURVE",
"126 -10 OFFCURVE",
"217 -10 CURVE SMOOTH",
"304 -10 OFFCURVE",
"360 11 OFFCURVE",
"401 54 CURVE",
"407 0 LINE"
);
},
{
closed = 1;
nodes = (
"398 126 LINE",
"361 83 OFFCURVE",
"307 57 OFFCURVE",
"238 57 CURVE SMOOTH",
"172 57 OFFCURVE",
"131 75 OFFCURVE",
"131 133 CURVE SMOOTH",
"131 190 OFFCURVE",
"160 218 OFFCURVE",
"235 218 CURVE SMOOTH",
"398 218 LINE"
);
},
{
closed = 1;
nodes = (
"174 569 OFFCURVE",
"219 522 OFFCURVE",
"283 522 CURVE SMOOTH",
"349 522 OFFCURVE",
"394 569 OFFCURVE",
"394 629 CURVE SMOOTH",
"394 689 OFFCURVE",
"349 737 OFFCURVE",
"283 737 CURVE SMOOTH",
"219 737 OFFCURVE",
"174 689 OFFCURVE",
"174 629 CURVE SMOOTH"
);
},
{
closed = 1;
nodes = (
"222 663 OFFCURVE",
"248 690 OFFCURVE",
"283 690 CURVE SMOOTH",
"320 690 OFFCURVE",
"345 663 OFFCURVE",
"345 629 CURVE SMOOTH",
"345 595 OFFCURVE",
"320 568 OFFCURVE",
"283 568 CURVE SMOOTH",
"248 568 OFFCURVE",
"222 595 OFFCURVE",
"222 629 CURVE SMOOTH"
);
}
);
width = 541;
}
);
leftKerningGroup = a;
note = aring;
rightKerningGroup = a;
unicode = 00E5;
},
{
glyphname = aringacute;
lastChange = "2015-10-24 18:33:41 +0000";
layers = (
{
layerId = "139F617A-DF90-4219-9825-66026F124FCC";
name = Light;
paths = (
{
closed = 1;
nodes = (
"476 0 LINE",
"476 310 LINE SMOOTH",
"476 433 OFFCURVE",
"408 484 OFFCURVE",
"274 484 CURVE SMOOTH",
"207 484 OFFCURVE",
"147 473 OFFCURVE",
"105 457 CURVE",
"105 389 LINE",
"151 405 OFFCURVE",
"206 415 OFFCURVE",
"263 415 CURVE SMOOTH",
"374 415 OFFCURVE",
"398 387 OFFCURVE",
"398 310 CURVE SMOOTH",
"398 281 LINE",
"233 281 LINE SMOOTH",
"104 281 OFFCURVE",
"50 220 OFFCURVE",
"50 133 CURVE SMOOTH",
"50 37 OFFCURVE",
"126 -10 OFFCURVE",
"217 -10 CURVE SMOOTH",
"304 -10 OFFCURVE",
"360 11 OFFCURVE",
"401 54 CURVE",
"407 0 LINE"
);
},
{
closed = 1;
nodes = (
"398 126 LINE",
"361 83 OFFCURVE",
"307 57 OFFCURVE",
"238 57 CURVE SMOOTH",
"172 57 OFFCURVE",
"131 75 OFFCURVE",
"131 133 CURVE SMOOTH",
"131 190 OFFCURVE",
"160 218 OFFCURVE",
"235 218 CURVE SMOOTH",
"398 218 LINE"
);
},
{
closed = 1;
nodes = (
"166 566 OFFCURVE",
"211 519 OFFCURVE",
"275 519 CURVE SMOOTH",
"341 519 OFFCURVE",
"386 566 OFFCURVE",
"386 626 CURVE SMOOTH",
"386 686 OFFCURVE",
"341 734 OFFCURVE",
"275 734 CURVE SMOOTH",
"211 734 OFFCURVE",
"166 686 OFFCURVE",
"166 626 CURVE SMOOTH"
);
},
{
closed = 1;
nodes = (
"214 660 OFFCURVE",
"240 687 OFFCURVE",
"275 687 CURVE SMOOTH",
"312 687 OFFCURVE",
"337 660 OFFCURVE",
"337 626 CURVE SMOOTH",
"337 592 OFFCURVE",
"312 565 OFFCURVE",
"275 565 CURVE SMOOTH",
"240 565 OFFCURVE",
"214 592 OFFCURVE",
"214 626 CURVE SMOOTH"
);
},
{
closed = 1;
nodes = (
"305 783 LINE",
"384 917 LINE",
"310 917 LINE",
"239 783 LINE"
);
}
);
width = 541;
}
);
leftKerningGroup = a;
note = aringacute;
rightKerningGroup = a;
unicode = 01FB;
},
{
glyphname = atilde;
lastChange = "2015-10-24 18:33:42 +0000";
layers = (
{
layerId = "139F617A-DF90-4219-9825-66026F124FCC";
name = Light;
paths = (
{
closed = 1;
nodes = (
"476 0 LINE",
"476 310 LINE SMOOTH",
"476 433 OFFCURVE",
"408 484 OFFCURVE",
"274 484 CURVE SMOOTH",
"207 484 OFFCURVE",
"147 473 OFFCURVE",
"105 457 CURVE",
"105 389 LINE",
"151 405 OFFCURVE",
"206 415 OFFCURVE",
"263 415 CURVE SMOOTH",
"374 415 OFFCURVE",
"398 387 OFFCURVE",
"398 310 CURVE SMOOTH",
"398 281 LINE",
"233 281 LINE SMOOTH",
"104 281 OFFCURVE",
"50 220 OFFCURVE",
"50 133 CURVE SMOOTH",
"50 37 OFFCURVE",
"126 -10 OFFCURVE",
"217 -10 CURVE SMOOTH",
"304 -10 OFFCURVE",
"360 11 OFFCURVE",
"401 54 CURVE",
"407 0 LINE"
);
},
{
closed = 1;
nodes = (
"398 126 LINE",
"361 83 OFFCURVE",
"307 57 OFFCURVE",
"238 57 CURVE SMOOTH",
"172 57 OFFCURVE",
"131 75 OFFCURVE",
"131 133 CURVE SMOOTH",
"131 190 OFFCURVE",
"160 218 OFFCURVE",
"235 218 CURVE SMOOTH",
"398 218 LINE"
);
},
{
closed = 1;
nodes = (
"389 542 OFFCURVE",
"419 554 OFFCURVE",
"432 572 CURVE",
"432 636 LINE",
"414 611 OFFCURVE",
"389 600 OFFCURVE",
"355 600 CURVE SMOOTH",
"306 600 OFFCURVE",
"266 638 OFFCURVE",
"211 638 CURVE SMOOTH",
"180 638 OFFCURVE",
"144 626 OFFCURVE",
"128 608 CURVE",
"128 545 LINE",
"150 571 OFFCURVE",
"179 580 OFFCURVE",
"211 580 CURVE SMOOTH",
"254 580 OFFCURVE",
"303 542 OFFCURVE",
"355 542 CURVE SMOOTH"
);
}
);
width = 541;
}
);
leftKerningGroup = a;
note = atilde;
rightKerningGroup = a;
unicode = 00E3;
},
{
glyphname = ae;
lastChange = "2015-10-24 18:33:41 +0000";
layers = (
{
layerId = "139F617A-DF90-4219-9825-66026F124FCC";
name = Light;
paths = (
{
closed = 1;
nodes = (
"484 18 OFFCURVE",
"549 -10 OFFCURVE",
"651 -10 CURVE SMOOTH",
"707 -10 OFFCURVE",
"760 -1 OFFCURVE",
"801 17 CURVE",
"801 81 LINE",
"762 65 OFFCURVE",
"713 56 OFFCURVE",
"667 56 CURVE SMOOTH",
"537 56 OFFCURVE",
"488 91 OFFCURVE",
"480 199 CURVE",
"831 199 LINE",
"831 288 LINE SMOOTH",
"831 400 OFFCURVE",
"765 484 OFFCURVE",
"625 484 CURVE SMOOTH",
"544 484 OFFCURVE",
"486 455 OFFCURVE",
"449 411 CURVE",
"418 459 OFFCURVE",
"360 484 OFFCURVE",
"274 484 CURVE SMOOTH",
"207 484 OFFCURVE",
"147 473 OFFCURVE",
"105 457 CURVE",
"105 389 LINE",
"151 405 OFFCURVE",
"206 415 OFFCURVE",
"263 415 CURVE SMOOTH",
"374 415 OFFCURVE",
"398 387 OFFCURVE",
"398 310 CURVE SMOOTH",
"398 281 LINE",
"233 281 LINE SMOOTH",
"104 281 OFFCURVE",
"50 220 OFFCURVE",
"50 133 CURVE SMOOTH",
"50 37 OFFCURVE",
"126 -10 OFFCURVE",
"217 -10 CURVE SMOOTH",
"345 -10 OFFCURVE",
"405 36 OFFCURVE",
"443 80 CURVE"
);
},
{
closed = 1;
nodes = (
"720 418 OFFCURVE",
"758 374 OFFCURVE",
"758 297 CURVE SMOOTH",
"758 258 LINE",
"480 258 LINE",
"480 365 OFFCURVE",
"514 418 OFFCURVE",
"627 418 CURVE SMOOTH"
);
},
{
closed = 1;
nodes = (
"398 126 LINE",
"361 83 OFFCURVE",
"315 57 OFFCURVE",
"238 57 CURVE SMOOTH",
"172 57 OFFCURVE",
"131 75 OFFCURVE",
"131 133 CURVE SMOOTH",
"131 190 OFFCURVE",
"160 218 OFFCURVE",
"235 218 CURVE SMOOTH",
"398 218 LINE"
);
}
);
width = 881;
}
);
leftKerningGroup = a;
note = ae;
rightKerningGroup = e;
unicode = 00E6;
},
{
glyphname = aeacute;
lastChange = "2015-10-24 18:33:41 +0000";
layers = (
{
layerId = "139F617A-DF90-4219-9825-66026F124FCC";
name = Light;
paths = (
{
closed = 1;
nodes = (
"484 18 OFFCURVE",
"549 -10 OFFCURVE",
"651 -10 CURVE SMOOTH",
"707 -10 OFFCURVE",
"760 -1 OFFCURVE",
"801 17 CURVE",
"801 81 LINE",
"762 65 OFFCURVE",
"713 56 OFFCURVE",
"667 56 CURVE SMOOTH",
"537 56 OFFCURVE",
"488 91 OFFCURVE",
"480 199 CURVE",
"831 199 LINE",
"831 288 LINE SMOOTH",
"831 400 OFFCURVE",
"765 484 OFFCURVE",
"625 484 CURVE SMOOTH",
"544 484 OFFCURVE",
"486 455 OFFCURVE",
"449 411 CURVE",
"418 459 OFFCURVE",
"360 484 OFFCURVE",
"274 484 CURVE SMOOTH",
"207 484 OFFCURVE",
"147 473 OFFCURVE",
"105 457 CURVE",
"105 389 LINE",
"151 405 OFFCURVE",
"206 415 OFFCURVE",
"263 415 CURVE SMOOTH",
"374 415 OFFCURVE",
"398 387 OFFCURVE",
"398 310 CURVE SMOOTH",
"398 281 LINE",
"233 281 LINE SMOOTH",
"104 281 OFFCURVE",
"50 220 OFFCURVE",
"50 133 CURVE SMOOTH",
"50 37 OFFCURVE",
"126 -10 OFFCURVE",
"217 -10 CURVE SMOOTH",
"345 -10 OFFCURVE",
"405 36 OFFCURVE",
"443 80 CURVE"
);
},
{
closed = 1;
nodes = (
"720 418 OFFCURVE",
"758 374 OFFCURVE",
"758 297 CURVE SMOOTH",
"758 258 LINE",
"480 258 LINE",
"480 365 OFFCURVE",
"514 418 OFFCURVE",
"627 418 CURVE SMOOTH"
);
},
{
closed = 1;
nodes = (
"398 126 LINE",
"361 83 OFFCURVE",
"315 57 OFFCURVE",
"238 57 CURVE SMOOTH",
"172 57 OFFCURVE",
"131 75 OFFCURVE",
"131 133 CURVE SMOOTH",
"131 190 OFFCURVE",
"160 218 OFFCURVE",
"235 218 CURVE SMOOTH",
"398 218 LINE"
);
},
{
closed = 1;
nodes = (
"468 522 LINE",
"547 690 LINE",
"473 690 LINE",
"402 522 LINE"
);
}
);
width = 881;
}
);
leftKerningGroup = a;
note = aeacute;
rightKerningGroup = e;
unicode = 01FD;
},
